<?xml version="1.0" encoding="utf-8"?>
<!-- Generator: Adobe Illustrator 15.0.0, SVG Export Plug-In . SVG Version: 6.00 Build 0)  -->
<!DOCTYPE svg PUBLIC "-//W3C//DTD SVG 1.1//EN" "http://www.w3.org/Graphics/SVG/1.1/DTD/svg11.dtd">
<svg version="1.1" id="Layer_1" xmlns="http://www.w3.org/2000/svg" xmlns:xlink="http://www.w3.org/1999/xlink" x="0px" y="0px"
	 width="20px" height="20px" viewBox="0 0 30 30" enable-background="new 0 0 30 30" xml:space="preserve">
<g>
	<path fill="#FFFFFF" d="M17.693,0c1.699,0,3.398,0,5.099,0c0,1.66,0,3.32,0,4.98c-2.084,0.153-4.36-0.448-5.156,0.996
		c-0.64,1.163-0.116,3.104-0.293,4.922c1.642,0.137,3.535,0.02,5.273,0.059c0,1.797,0,3.594,0,5.391c-1.759,0-3.517,0-5.273,0
		c0,4.551,0,9.102,0,13.651c-1.855,0-3.71,0-5.566,0c0-4.551,0-9.103,0-13.651c-1.523,0-3.047,0-4.57,0c0-1.797,0-3.594,0-5.391
		c1.523,0,3.047,0,4.57,0C11.296,4.852,12.549,0.479,17.693,0z"/>
</g>
</svg>