<?xml version="1.0" encoding="utf-8"?>
<!-- Generator: Adobe Illustrator 15.0.0, SVG Export Plug-In . SVG Version: 6.00 Build 0)  -->
<!DOCTYPE svg PUBLIC "-//W3C//DTD SVG 1.1//EN" "http://www.w3.org/Graphics/SVG/1.1/DTD/svg11.dtd">
<svg version="1.1" id="Layer_1" xmlns="http://www.w3.org/2000/svg" xmlns:xlink="http://www.w3.org/1999/xlink" x="0px" y="0px"
	 width="20px" height="20px" viewBox="0 0 30 30" enable-background="new 0 0 30 30" xml:space="preserve">
<g>
	<path fill="#FFFFFF" d="M3.164,0c7.891,0,15.781,0,23.672,0C28.564,0.38,29.628,1.427,30,3.164c0,7.891,0,15.781,0,23.672
		c-0.372,1.737-1.436,2.784-3.164,3.164c-7.891,0-15.781,0-23.672,0C1.437,29.618,0.368,28.577,0,26.836c0-7.891,0-15.781,0-23.672
		C0.368,1.423,1.437,0.382,3.164,0z M20.684,4.043c-0.396,0.776-0.31,4.049,0.06,4.629c0.444,0.699,1.67,0.586,2.813,0.586
		c0.784,0,1.938,0.107,2.461-0.234c0.688-0.451,0.526-1.517,0.526-2.695c0-0.895,0.134-1.627-0.06-2.168
		c-0.371-1.042-2.904-1.054-4.688-0.762C21.221,3.493,20.879,3.66,20.684,4.043z M10.605,11.016
		c-0.748,0.791-1.566,2.024-1.582,3.867c-0.03,3.545,2.727,5.67,5.625,5.859c3.092,0.201,6.387-2.068,6.387-5.801
		c0-1.643-0.891-3.202-1.641-3.984c-1.144-1.191-2.895-1.987-5.04-1.758C12.639,9.383,11.462,10.11,10.605,11.016z M3.34,12.891
		c0,3.466,0,6.686,0,10.136c0,1.094-0.165,2.557,0.293,3.105c0.646,0.776,3.869,0.41,5.391,0.41c4.272,0,7.557,0,11.719,0
		c1.335,0,4.791,0.365,5.508-0.352c0.521-0.521,0.353-2.028,0.353-3.105c0-3.693,0-6.578,0-10.371c-0.859,0-1.72,0-2.578,0
		c1.101,3.413-0.379,6.797-2.109,8.672c-1.497,1.622-3.695,2.784-6.328,2.93c-6.4,0.354-11.125-5.067-9.551-11.602
		c-0.879,0-1.758,0-2.637,0C3.33,12.725,3.335,12.808,3.34,12.891z"/>
</g>
</svg>