<!-- Generator: Adobe Illustrator 15.0.0, SVG Export Plug-In . SVG Version: 6.00 Build 0)  -->
<!DOCTYPE svg PUBLIC "-//W3C//DTD SVG 1.1//EN" "http://www.w3.org/Graphics/SVG/1.1/DTD/svg11.dtd">
<svg version="1.1" id="Layer_1" xmlns="http://www.w3.org/2000/svg" xmlns:xlink="http://www.w3.org/1999/xlink" x="0px" y="0px"
	 width="285.333px" height="60.056px"  enable-background="new 0 0 242.333 60.056"
	 xml:space="preserve">
<g>
	<g>
		<path fill-rule="evenodd" clip-rule="evenodd" fill="#060204" d="M53.701,24.06c1.848,7.704-1.343,16.057-8.133,20.946
			l4.155,8.212c11.346-7.373,16.442-21.196,12.538-33.504l-0.002-0.004c-2.26,1.156-5.349,2.717-8.546,4.328L53.701,24.06z"/>
	</g>
	<g>
		<path fill-rule="evenodd" clip-rule="evenodd" fill="#F16A22" d="M31.979,31.158l0.34-0.524l3.405-5.248l-7.277-13.97
			c-0.993,0.344-1.976,0.764-2.939,1.263c-10.13,5.243-14.342,17.175-9.405,26.651c0.081,0.156,0.164,0.31,0.249,0.462l15.274-8.087
			L31.979,31.158z"/>
	</g>
	<g>
		<path fill-rule="evenodd" clip-rule="evenodd" fill="#00A04B" d="M35.624,25.282l15.276-7.89
			c-4.584-6.805-12.071-8.793-22.46-5.963c-0.014,0.004-0.028,0.007-0.042,0.011l0.007,0.015L35.624,25.282z"/>
	</g>
	<g>
		<path fill-rule="evenodd" clip-rule="evenodd" fill="#CD1F26" d="M53.86,24.075l-14.8,7.685l-0.007-0.014l-0.023-0.001
			l6.866,13.223C52.702,40.052,55.843,31.697,53.86,24.075z"/>
	</g>
	<g>
		<path fill-rule="evenodd" clip-rule="evenodd" fill="#17C1E8" d="M45.98,45.012l-6.879-13.248l-6.21-0.275l-1.278-0.056
			l0.008-0.012l-15.093,8.018l-0.03,0.016c5.01,9.111,16.889,12.358,26.761,7.232C44.221,46.188,45.129,45.626,45.98,45.012z"/>
	</g>
	<g>
		<path fill-rule="evenodd" clip-rule="evenodd" fill="#060204" d="M16.365,39.101c-1.078-2.076-1.715-4.269-1.947-6.482
			c-0.859-7.827,3.362-15.925,11.151-19.969c0.948-0.493,1.914-0.907,2.891-1.245l-0.007-0.015L26.41,7.455L24.19,3.278
			c-0.947,0.379-1.886,0.809-2.812,1.29c-14.56,7.56-20.537,24.909-13.35,38.751c0.095,0.185,0.193,0.369,0.292,0.55l8.25-4.383
			C16.501,39.358,16.432,39.23,16.365,39.101z"/>
	</g>
	<g>
		<path fill-rule="evenodd" clip-rule="evenodd" fill="#060204" d="M8.135,43.652c7.404,13.5,24.854,18.385,39.3,10.885
			c0.945-0.491,1.854-1.022,2.725-1.591l-4.201-8.091c-0.851,0.615-1.76,1.177-2.723,1.676c-9.879,5.129-21.777,1.859-26.806-7.286
			L8.135,43.652z"/>
	</g>
	<g>
		
			<rect x="33.72" y="28.362" transform="matrix(0.4698 0.8828 -0.8828 0.4698 44.9119 -17.9987)" fill="#231F20" width="7.437" height="0.05"/>
	</g>
	<g>
		<polygon fill="#231F20" points="39.185,31.696 32.702,31.359 32.224,30.416 32.269,30.393 32.733,31.31 39.187,31.645 		"/>
	</g>
	<g>
		
			<rect x="33.934" y="24.642" transform="matrix(0.8437 0.5369 -0.5369 0.8437 20.2477 -13.8819)" fill="#231F20" width="0.051" height="6.366"/>
	</g>
	<g>
		<path fill-rule="evenodd" clip-rule="evenodd" fill="#060204" d="M35.687,25.227l3.485,6.529l-6.491-0.334l-0.442-0.87l-0.03-0.06
			l-0.308,0.473l-0.346,0.532l0.063-0.034l-0.007,0.012l1.283,0.057l6.208,0.271l-0.007-0.014l0.023,0.001l23.163-12
			c-0.953-2.427-2.057-4.602-3.309-6.527L35.687,25.227z"/>
	</g>
	<g>
		
			<rect x="47.391" y="11.645" transform="matrix(0.4543 0.8909 -0.8909 0.4543 46.6815 -29.6512)" fill="#FFFFFF" width="0.303" height="23.264"/>
	</g>
	<g>
		<path fill="#FFFFFF" d="M33.154,53.143c-2.429,0-4.851-0.339-7.201-1.022C19.585,50.268,14.5,46.106,11.635,40.4
			c-2.865-5.705-3.167-12.269-0.852-18.483c2.316-6.209,6.97-11.327,13.106-14.409c0.81-0.407,1.648-0.778,2.49-1.103l0.11,0.283
			c-0.833,0.321-1.662,0.688-2.463,1.091c-6.067,3.047-10.669,8.106-12.958,14.244c-2.287,6.134-1.989,12.612,0.838,18.242
			c4.021,8.008,12.363,12.559,21.257,12.56c4.016,0,8.143-0.927,12.039-2.884c12.323-6.19,17.796-20.148,12.459-31.778l0.276-0.126
			c2.594,5.652,2.726,12.089,0.369,18.125c-2.359,6.046-6.965,11.036-12.968,14.051C41.467,52.155,37.3,53.143,33.154,53.143z
			 M55.744,14.796l-0.024-0.034l0.25-0.172l0.024,0.035L55.744,14.796z"/>
	</g>
	<g>
		<polygon fill-rule="evenodd" clip-rule="evenodd" fill="#231F20" points="37.463,28.434 35.711,25.141 35.65,25.172 
			32.276,30.464 32.717,31.334 39.186,31.67 		"/>
		<path fill="#231F20" d="M39.229,31.698l-0.044-0.002l-6.483-0.337l-0.454-0.896l0.008-0.012l3.377-5.298l0.089-0.046
			L39.229,31.698z M32.733,31.31l6.409,0.333l-3.441-6.468l-0.033,0.018l-3.362,5.274L32.733,31.31z"/>
	</g>
	<g>
		<polygon fill-rule="evenodd" clip-rule="evenodd" fill="#F5CAA1" points="35.618,25.243 32.285,30.472 32.721,31.332 
			39.112,31.664 37.41,28.465 35.679,25.211 		"/>
		<path fill="#231F20" d="M39.225,31.736l-6.545-0.34l-0.47-0.927l3.363-5.276l0.134-0.069L39.225,31.736z M32.762,31.268L39,31.592
			l-3.345-6.286l-3.294,5.169L32.762,31.268z"/>
	</g>
	<g>
		<g>
			<defs>
				<path id="SVGID_1_" d="M24.238,3.322c3.948,0.827,5.354,3.512,4.217,8.055L24.238,3.322z"/>
			</defs>
			<clipPath id="SVGID_2_">
				<use xlink:href="#SVGID_1_"  overflow="visible"/>
			</clipPath>
			<path clip-path="url(#SVGID_2_)" fill-rule="evenodd" clip-rule="evenodd" fill="#E97F81" d="M26.243,3.322l-2.005,0.099
				L26.243,3.322z"/>
			<polygon clip-path="url(#SVGID_2_)" fill-rule="evenodd" clip-rule="evenodd" fill="#E97E80" points="28.249,4 24,3.521 
				24,3.421 26.243,4 			"/>
			<polygon clip-path="url(#SVGID_2_)" fill-rule="evenodd" clip-rule="evenodd" fill="#E97C7E" points="30,3.355 24,3.62 24,3.521 
				28.249,4 30,4 			"/>
			<polygon clip-path="url(#SVGID_2_)" fill-rule="evenodd" clip-rule="evenodd" fill="#E97B7D" points="30,3.454 24,3.719 24,3.62 
				30,3.355 			"/>
			<polygon clip-path="url(#SVGID_2_)" fill-rule="evenodd" clip-rule="evenodd" fill="#E9797B" points="30,3.553 24,3.818 
				24,3.719 30,3.454 			"/>
			<polygon clip-path="url(#SVGID_2_)" fill-rule="evenodd" clip-rule="evenodd" fill="#EA787A" points="30,3.652 24,3.917 
				24,3.818 30,3.553 			"/>
			<polygon clip-path="url(#SVGID_2_)" fill-rule="evenodd" clip-rule="evenodd" fill="#EA7779" points="30,3.752 24,4.016 
				24,3.917 30,3.652 			"/>
			<polygon clip-path="url(#SVGID_2_)" fill-rule="evenodd" clip-rule="evenodd" fill="#EA7577" points="30,3.851 24,4.115 
				24,4.016 30,3.752 			"/>
			<polygon clip-path="url(#SVGID_2_)" fill-rule="evenodd" clip-rule="evenodd" fill="#EA7476" points="30,3.95 24,4.214 24,4.115 
				30,3.851 			"/>
			<polygon clip-path="url(#SVGID_2_)" fill-rule="evenodd" clip-rule="evenodd" fill="#EA7375" points="30,4.049 24,4.314 
				24,4.214 30,3.95 			"/>
			<polygon clip-path="url(#SVGID_2_)" fill-rule="evenodd" clip-rule="evenodd" fill="#EA7173" points="30,4.148 24,4.413 
				24,4.314 30,4.049 			"/>
			<polygon clip-path="url(#SVGID_2_)" fill-rule="evenodd" clip-rule="evenodd" fill="#EA7072" points="30,4.247 24,4.512 
				24,4.413 30,4.148 			"/>
			<polygon clip-path="url(#SVGID_2_)" fill-rule="evenodd" clip-rule="evenodd" fill="#EA6F71" points="30,4.347 24,4.611 
				24,4.512 30,4.247 			"/>
			<polygon clip-path="url(#SVGID_2_)" fill-rule="evenodd" clip-rule="evenodd" fill="#EA6D6F" points="30,4.446 24,4.71 24,4.611 
				30,4.347 			"/>
			<polygon clip-path="url(#SVGID_2_)" fill-rule="evenodd" clip-rule="evenodd" fill="#EB6C6E" points="30,4.545 24,4.81 24,4.71 
				30,4.446 			"/>
			<polygon clip-path="url(#SVGID_2_)" fill-rule="evenodd" clip-rule="evenodd" fill="#EB6B6D" points="30,4.644 24,4.909 24,4.81 
				30,4.545 			"/>
			<polygon clip-path="url(#SVGID_2_)" fill-rule="evenodd" clip-rule="evenodd" fill="#EB696B" points="30,4.744 24,5.008 
				24,4.909 30,4.644 			"/>
			<polygon clip-path="url(#SVGID_2_)" fill-rule="evenodd" clip-rule="evenodd" fill="#EB686A" points="30,4.842 24,5.107 
				24,5.008 30,4.744 			"/>
			<polygon clip-path="url(#SVGID_2_)" fill-rule="evenodd" clip-rule="evenodd" fill="#EB6769" points="30,4.941 24,5.207 
				24,5.107 30,4.842 			"/>
			<polygon clip-path="url(#SVGID_2_)" fill-rule="evenodd" clip-rule="evenodd" fill="#EB6668" points="30,5.041 24,5.306 
				24,5.207 30,4.941 			"/>
			<polygon clip-path="url(#SVGID_2_)" fill-rule="evenodd" clip-rule="evenodd" fill="#EB6466" points="30,5.14 24,5.404 24,5.306 
				30,5.041 			"/>
			<polygon clip-path="url(#SVGID_2_)" fill-rule="evenodd" clip-rule="evenodd" fill="#EB6365" points="30,5.239 24,5.503 
				24,5.404 30,5.14 			"/>
			<polygon clip-path="url(#SVGID_2_)" fill-rule="evenodd" clip-rule="evenodd" fill="#EB6264" points="30,5.338 24,5.603 
				24,5.503 30,5.239 			"/>
			<polygon clip-path="url(#SVGID_2_)" fill-rule="evenodd" clip-rule="evenodd" fill="#EB6163" points="30,5.437 24,5.702 
				24,5.603 30,5.338 			"/>
			<polygon clip-path="url(#SVGID_2_)" fill-rule="evenodd" clip-rule="evenodd" fill="#EB6062" points="30,5.537 24,5.801 
				24,5.702 30,5.437 			"/>
			<polygon clip-path="url(#SVGID_2_)" fill-rule="evenodd" clip-rule="evenodd" fill="#EC5F61" points="30,5.636 24,5.9 24,5.801 
				30,5.537 			"/>
			<polygon clip-path="url(#SVGID_2_)" fill-rule="evenodd" clip-rule="evenodd" fill="#EC5D5F" points="30,5.734 24,6 24,5.9 
				30,5.636 			"/>
			<polygon clip-path="url(#SVGID_2_)" fill-rule="evenodd" clip-rule="evenodd" fill="#EC5C5E" points="30,5.834 24,6.099 24,6 
				30,5.734 			"/>
			<polygon clip-path="url(#SVGID_2_)" fill-rule="evenodd" clip-rule="evenodd" fill="#EC5B5D" points="30,5.933 24,6.198 
				24,6.099 30,5.834 			"/>
			<polygon clip-path="url(#SVGID_2_)" fill-rule="evenodd" clip-rule="evenodd" fill="#EC5A5C" points="30,6.033 24,6.296 
				24,6.198 30,5.933 			"/>
			<polygon clip-path="url(#SVGID_2_)" fill-rule="evenodd" clip-rule="evenodd" fill="#EC595B" points="30,6.131 24,6.396 
				24,6.296 30,6.033 			"/>
			<polygon clip-path="url(#SVGID_2_)" fill-rule="evenodd" clip-rule="evenodd" fill="#EC585A" points="30,6.23 24,6.495 24,6.396 
				30,6.131 			"/>
			<polygon clip-path="url(#SVGID_2_)" fill-rule="evenodd" clip-rule="evenodd" fill="#EC5759" points="30,6.329 24,6.594 
				24,6.495 30,6.23 			"/>
			<polygon clip-path="url(#SVGID_2_)" fill-rule="evenodd" clip-rule="evenodd" fill="#EC5658" points="30,6.429 24,6.693 
				24,6.594 30,6.329 			"/>
			<polygon clip-path="url(#SVGID_2_)" fill-rule="evenodd" clip-rule="evenodd" fill="#EC5557" points="30,6.528 24,6.793 
				24,6.693 30,6.429 			"/>
			<polygon clip-path="url(#SVGID_2_)" fill-rule="evenodd" clip-rule="evenodd" fill="#EC5456" points="30,6.627 24,6.892 
				24,6.793 30,6.528 			"/>
			<polygon clip-path="url(#SVGID_2_)" fill-rule="evenodd" clip-rule="evenodd" fill="#ED5355" points="30,6.726 24,6.991 
				24,6.892 30,6.627 			"/>
			<polygon clip-path="url(#SVGID_2_)" fill-rule="evenodd" clip-rule="evenodd" fill="#ED5254" points="30,6.826 24,7.09 24,6.991 
				30,6.726 			"/>
			<polygon clip-path="url(#SVGID_2_)" fill-rule="evenodd" clip-rule="evenodd" fill="#ED5153" points="30,6.925 24,7.189 24,7.09 
				30,6.826 			"/>
			<polygon clip-path="url(#SVGID_2_)" fill-rule="evenodd" clip-rule="evenodd" fill="#ED5052" points="30,7.024 24,7.289 
				24,7.189 30,6.925 			"/>
			<polygon clip-path="url(#SVGID_2_)" fill-rule="evenodd" clip-rule="evenodd" fill="#ED4F51" points="30,7.123 24,7.388 
				24,7.289 30,7.024 			"/>
			<polygon clip-path="url(#SVGID_2_)" fill-rule="evenodd" clip-rule="evenodd" fill="#ED4E50" points="30,7.222 24.327,7.486 
				24,7.417 24,7.388 30,7.123 			"/>
			<polygon clip-path="url(#SVGID_2_)" fill-rule="evenodd" clip-rule="evenodd" fill="#ED4D4F" points="30,7.321 24.45,7.585 
				24.548,7.486 30,7.222 			"/>
			<polygon clip-path="url(#SVGID_2_)" fill-rule="evenodd" clip-rule="evenodd" fill="#ED4C4E" points="30,7.42 24.455,7.685 
				24.553,7.585 30,7.321 			"/>
			<polygon clip-path="url(#SVGID_2_)" fill-rule="evenodd" clip-rule="evenodd" fill="#ED4B4D" points="30,7.52 24.46,7.783 
				24.558,7.685 30,7.42 			"/>
			<polygon clip-path="url(#SVGID_2_)" fill-rule="evenodd" clip-rule="evenodd" fill="#ED4A4C" points="30,7.619 24.466,7.882 
				24.563,7.783 30,7.52 			"/>
			<polygon clip-path="url(#SVGID_2_)" fill-rule="evenodd" clip-rule="evenodd" fill="#ED494B" points="30,7.718 24.471,7.981 
				24.567,7.882 30,7.619 			"/>
			<polygon clip-path="url(#SVGID_2_)" fill-rule="evenodd" clip-rule="evenodd" fill="#ED494B" points="30,7.817 24.476,8.08 
				24.573,7.981 30,7.718 			"/>
			<polygon clip-path="url(#SVGID_2_)" fill-rule="evenodd" clip-rule="evenodd" fill="#ED484A" points="30,7.916 24.479,8.179 
				24.577,8.08 30,7.817 			"/>
			<polygon clip-path="url(#SVGID_2_)" fill-rule="evenodd" clip-rule="evenodd" fill="#ED4749" points="30,8.015 24.484,8.278 
				24.582,8.179 30,7.916 			"/>
			<polygon clip-path="url(#SVGID_2_)" fill-rule="evenodd" clip-rule="evenodd" fill="#EE4648" points="30,8.115 24.49,8.377 
				24.587,8.278 30,8.015 			"/>
			<polygon clip-path="url(#SVGID_2_)" fill-rule="evenodd" clip-rule="evenodd" fill="#EE4648" points="30,8.213 24.495,8.476 
				24.592,8.377 30,8.115 			"/>
			<polygon clip-path="url(#SVGID_2_)" fill-rule="evenodd" clip-rule="evenodd" fill="#EE4547" points="30,8.313 24.499,8.574 
				24.597,8.476 30,8.213 			"/>
			<polygon clip-path="url(#SVGID_2_)" fill-rule="evenodd" clip-rule="evenodd" fill="#EE4446" points="30,8.412 24.504,8.674 
				24.602,8.574 30,8.313 			"/>
			<polygon clip-path="url(#SVGID_2_)" fill-rule="evenodd" clip-rule="evenodd" fill="#EE4446" points="30,8.511 24.51,8.773 
				24.606,8.674 30,8.412 			"/>
			<polygon clip-path="url(#SVGID_2_)" fill-rule="evenodd" clip-rule="evenodd" fill="#EE4345" points="30,8.61 24.515,8.871 
				24.611,8.773 30,8.511 			"/>
			<polygon clip-path="url(#SVGID_2_)" fill-rule="evenodd" clip-rule="evenodd" fill="#EE4244" points="30,8.709 24.52,8.97 
				24.616,8.871 30,8.61 			"/>
			<polygon clip-path="url(#SVGID_2_)" fill-rule="evenodd" clip-rule="evenodd" fill="#EE4244" points="30,8.809 24.524,9.069 
				24.621,8.97 30,8.709 			"/>
			<polygon clip-path="url(#SVGID_2_)" fill-rule="evenodd" clip-rule="evenodd" fill="#EE4143" points="30,8.908 24.528,9.168 
				24.626,9.069 30,8.809 			"/>
			<polygon clip-path="url(#SVGID_2_)" fill-rule="evenodd" clip-rule="evenodd" fill="#EE4143" points="30,9.007 24.534,9.267 
				24.631,9.168 30,8.908 			"/>
			<polygon clip-path="url(#SVGID_2_)" fill-rule="evenodd" clip-rule="evenodd" fill="#EE4143" points="30,9.106 24.539,9.366 
				24.636,9.267 30,9.007 			"/>
			<polygon clip-path="url(#SVGID_2_)" fill-rule="evenodd" clip-rule="evenodd" fill="#EE4042" points="30,9.205 24.544,9.465 
				24.641,9.366 30,9.106 			"/>
			<polygon clip-path="url(#SVGID_2_)" fill-rule="evenodd" clip-rule="evenodd" fill="#EE4042" points="30,9.304 24.549,9.564 
				24.646,9.465 30,9.205 			"/>
			<polygon clip-path="url(#SVGID_2_)" fill-rule="evenodd" clip-rule="evenodd" fill="#EE4042" points="24.434,12 24.549,9.876 
				30,9.304 30,12 			"/>
		</g>
		<path fill="#231F20" d="M28.433,11.39l-4.242-8.103l0.052,0.011c1.826,0.382,3.125,1.174,3.864,2.353
			c0.856,1.368,0.982,3.297,0.372,5.733L28.433,11.39z M24.286,3.358l4.161,7.949c0.587-2.392,0.459-4.286-0.382-5.629
			C27.34,4.521,26.069,3.741,24.286,3.358z"/>
	</g>
	<g>
		<polygon fill-rule="evenodd" clip-rule="evenodd" fill="#F5CAA1" points="35.625,25.315 32.291,30.545 32.727,31.404 
			39.119,31.737 37.417,28.538 35.685,25.284 		"/>
		<path fill="#231F20" d="M39.23,31.808l-6.545-0.34l-0.47-0.927l3.363-5.276l0.135-0.069L39.23,31.808z M32.768,31.341l6.237,0.324
			l-3.344-6.285l-3.294,5.169L32.768,31.341z"/>
	</g>
</g>
<g>
	<g>
		<path fill="#F4F4F4" d="M75.616,1c0.621,4.933,0.945,9.866,1.166,14.799c0.138,2.466,0.169,4.933,0.25,7.399l0.083,7.399
			l-0.079,7.399c-0.083,2.467-0.11,4.933-0.25,7.399c-0.22,4.933-0.546,9.866-1.17,14.799c-0.625-4.933-0.951-9.866-1.17-14.799
			c-0.14-2.466-0.167-4.933-0.25-7.399l-0.079-7.399l0.083-7.399c0.082-2.467,0.112-4.933,0.25-7.399
			C74.67,10.866,74.995,5.933,75.616,1z"/>
	</g>
	
		<text transform="matrix(1 0 0 1 83.5859 26.4756)" fill="#F4F4F4" font-family="'Raleway'" font-size="19.2346" letter-spacing="5"> GENERATIONS’</text>
	
		<text transform="matrix(1 0 0 1 83.5859 47.333)" fill="#F4F4F4" font-family="'Raleway'" font-size="19.2346" letter-spacing="5"> JOURNAL</text>
</g>
</svg>