<?xml version="1.0" encoding="utf-8"?>
<!-- Generator: Adobe Illustrator 15.0.0, SVG Export Plug-In . SVG Version: 6.00 Build 0)  -->
<!DOCTYPE svg PUBLIC "-//W3C//DTD SVG 1.1//EN" "http://www.w3.org/Graphics/SVG/1.1/DTD/svg11.dtd">
<svg version="1.1" id="Layer_1" xmlns="http://www.w3.org/2000/svg" xmlns:xlink="http://www.w3.org/1999/xlink" x="0px" y="0px"
	 width="300px" height="300px" viewBox="0 0 300 300" enable-background="new 0 0 300 300" xml:space="preserve">
<g>
	<path fill-rule="evenodd" clip-rule="evenodd" fill="#060204" d="M-333.842-490.515c18.271,76.178-13.28,158.776-80.426,207.113
		l41.091,81.201c112.188-72.906,162.577-209.587,123.976-331.292l-0.02-0.039c-22.341,11.422-52.893,26.866-84.502,42.794
		L-333.842-490.515z"/>
	<path fill-rule="evenodd" clip-rule="evenodd" fill="#F26922" d="M-548.636-420.329l3.362-5.182l33.667-51.894l-71.958-138.137
		c-9.822,3.402-19.538,7.557-29.067,12.488c-100.173,51.842-141.812,169.827-93.002,263.526c0.802,1.538,1.623,3.062,2.463,4.568
		l151.033-79.971L-548.636-420.329z"/>
	<path fill-rule="evenodd" clip-rule="evenodd" fill="#00A04B" d="M-512.591-478.438l151.056-78.009
		c-45.327-67.291-119.356-86.948-222.087-58.971c-0.14,0.038-0.279,0.076-0.419,0.114l0.072,0.137L-512.591-478.438z"/>
	<path fill-rule="evenodd" clip-rule="evenodd" fill="#CD1F26" d="M-332.264-490.364l-146.348,75.985l-0.07-0.134l-0.231-0.011
		l67.89,130.756C-343.718-332.381-312.666-414.995-332.264-490.364z"/>
	<path fill-rule="evenodd" clip-rule="evenodd" fill="#19C2E8" d="M-410.188-283.335l-68.018-131.001l-61.403-2.714l-12.642-0.559
		l0.076-0.117l-149.241,79.281l-0.301,0.159c49.541,90.094,167,122.196,264.617,71.513
		C-427.586-271.714-418.605-277.261-410.188-283.335z"/>
	<path fill-rule="evenodd" clip-rule="evenodd" fill="#060204" d="M-703.027-341.793c-10.653-20.519-16.959-42.205-19.254-64.092
		c-8.496-77.399,33.239-157.473,110.262-197.464c9.371-4.865,18.927-8.962,28.588-12.313l-0.071-0.138l-20.201-38.908l-21.943-41.3
		c-9.367,3.751-18.646,8-27.801,12.753c-143.976,74.753-203.081,246.309-132.017,383.18c0.949,1.827,1.916,3.64,2.901,5.436
		l81.576-43.339C-701.681-339.238-702.361-340.51-703.027-341.793z"/>
	<path fill-rule="evenodd" clip-rule="evenodd" fill="#060204" d="M-784.401-296.787
		c73.217,133.494,245.765,181.797,388.605,107.633c9.343-4.851,18.329-10.107,26.948-15.732l-41.541-80.01
		c-8.421,6.082-17.406,11.635-26.929,16.579c-97.686,50.719-215.339,18.378-265.055-72.049L-784.401-296.787z"/>
	
		<line fill-rule="evenodd" clip-rule="evenodd" fill="none" stroke="#000000" stroke-width="0.4997" stroke-miterlimit="2.6131" x1="-511.915" y1="-480.185" x2="-477.371" y2="-415.263"/>
	
		<polyline fill-rule="evenodd" clip-rule="evenodd" fill="none" stroke="#000000" stroke-width="0.4997" stroke-miterlimit="2.6131" points="
		-545.988,-427.778 -541.328,-418.584 -477.371,-415.263 	"/>
	
		<line fill-rule="evenodd" clip-rule="evenodd" fill="none" stroke="#000000" stroke-width="0.5" stroke-miterlimit="2.6131" x1="-545.967" y1="-426.748" x2="-512.135" y2="-479.828"/>
	<path fill-rule="evenodd" clip-rule="evenodd" fill="#060204" d="M-511.963-478.979l34.456,64.56l-64.177-3.304l-4.373-8.601
		l-0.302-0.592l-3.047,4.675l-3.42,5.26l0.632-0.335l-0.075,0.119l12.685,0.554l61.384,2.688l-0.071-0.138l0.233,0.013
		l229.045-118.663c-9.423-24.002-20.34-45.503-32.727-64.542L-511.963-478.979z"/>
	
		<line fill-rule="evenodd" clip-rule="evenodd" fill="none" stroke="#FFFFFF" stroke-width="2.9999" stroke-miterlimit="22.9256" x1="-497.134" y1="-445.875" x2="-292.331" y2="-550.637"/>
	
		<path fill-rule="evenodd" clip-rule="evenodd" fill="none" stroke="#FFFFFF" stroke-width="2.9999" stroke-miterlimit="22.9256" d="
		M-312.641-583.308c0.079,0.114,0.159,0.229,0.237,0.343 M-293.331-549.456c52.604,114.623-1.658,254.801-123.89,316.192
		c-124.747,62.653-273.047,19.517-331.239-96.348c-58.192-115.863-4.24-260.581,120.506-323.234
		c8.075-4.056,16.25-7.668,24.49-10.846"/>
	<polygon fill-rule="evenodd" clip-rule="evenodd" stroke="#000000" stroke-width="0.5" stroke-miterlimit="2.6131" points="
		-494.402,-447.272 -511.727,-479.831 -512.332,-479.518 -545.688,-427.187 -541.328,-418.584 -477.371,-415.263 	"/>
	
		<polygon fill-rule="evenodd" clip-rule="evenodd" fill="#F6CBA2" stroke="#000000" stroke-width="1.3" stroke-miterlimit="2.6131" points="
		-512.646,-478.82 -545.606,-427.109 -541.297,-418.609 -478.1,-415.327 -494.929,-446.957 -512.048,-479.13 	"/>
	<linearGradient id="SVGID_1_" gradientUnits="userSpaceOnUse" x1="-603.7373" y1="-696.6323" x2="-600.6902" y2="-635.0146">
		<stop  offset="0" style="stop-color:#E97F82"/>
		<stop  offset="0.2377" style="stop-color:#EB6E6D"/>
		<stop  offset="0.5639" style="stop-color:#ED5756"/>
		<stop  offset="0.8298" style="stop-color:#EE4748"/>
		<stop  offset="1" style="stop-color:#EF4042"/>
	</linearGradient>
	
		<path fill-rule="evenodd" clip-rule="evenodd" fill="url(#SVGID_1_)" stroke="#000000" stroke-width="0.5" stroke-miterlimit="2.6131" d="
		M-625.173-695.572c39.038,8.177,52.938,34.728,41.699,79.653L-625.173-695.572z"/>
	
		<polygon fill-rule="evenodd" clip-rule="evenodd" fill="#F6CBA2" stroke="#000000" stroke-width="1.3" stroke-miterlimit="2.6131" points="
		-512.586,-478.103 -545.546,-426.392 -541.238,-417.892 -478.039,-414.609 -494.868,-446.24 -511.987,-478.412 	"/>
</g>
<g>
	<path fill-rule="evenodd" clip-rule="evenodd" fill="#060204" d="M247.638,112.38c9.283,38.715-6.75,80.695-40.876,105.26
		l20.884,41.27c57.018-37.054,82.627-106.518,63.009-168.373l-0.012-0.02c-11.354,5.805-26.88,13.655-42.946,21.749L247.638,112.38z
		"/>
	<path fill-rule="evenodd" clip-rule="evenodd" fill="#F26922" d="M138.472,148.05l1.709-2.634l17.11-26.374L120.72,48.838
		c-4.992,1.729-9.93,3.841-14.773,6.347c-50.911,26.347-72.073,86.311-47.267,133.932c0.408,0.781,0.825,1.556,1.252,2.322
		l76.758-40.644L138.472,148.05z"/>
	<path fill-rule="evenodd" clip-rule="evenodd" fill="#00A04B" d="M156.791,118.518l76.771-39.647
		c-23.035-34.199-60.66-44.19-112.871-29.971c-0.07,0.02-0.141,0.04-0.212,0.058l0.037,0.071L156.791,118.518z"/>
	<path fill-rule="evenodd" clip-rule="evenodd" fill="#CD1F26" d="M248.438,112.457l-74.378,38.617l-0.035-0.067l-0.118-0.005
		l34.505,66.452C242.618,192.749,258.398,150.761,248.438,112.457z"/>
	<path fill-rule="evenodd" clip-rule="evenodd" fill="#19C2E8" d="M208.836,217.675l-34.569-66.579l-31.207-1.379l-6.424-0.285
		l0.038-0.059l-75.848,40.293l-0.153,0.08c25.178,45.79,84.874,62.104,134.486,36.345
		C199.992,223.581,204.559,220.762,208.836,217.675z"/>
	<path fill-rule="evenodd" clip-rule="evenodd" fill="#060204" d="M60.006,187.965c-5.414-10.429-8.619-21.45-9.785-32.573
		c-4.318-39.337,16.893-80.033,56.038-100.357c4.763-2.474,9.619-4.554,14.529-6.257l-0.036-0.071l-10.267-19.774L99.333,7.943
		c-4.76,1.907-9.476,4.065-14.129,6.481C12.03,52.416-18.009,139.605,18.108,209.167c0.482,0.929,0.974,1.851,1.475,2.764
		l41.459-22.027C60.691,189.263,60.344,188.617,60.006,187.965z"/>
	<path fill-rule="evenodd" clip-rule="evenodd" fill="#060204" d="M18.649,210.838c37.211,67.845,124.905,92.395,197.5,54.701
		c4.749-2.465,9.315-5.137,13.697-7.995l-21.112-40.663c-4.28,3.091-8.847,5.914-13.687,8.426
		c-49.646,25.778-109.442,9.342-134.709-36.616L18.649,210.838z"/>
	
		<line fill-rule="evenodd" clip-rule="evenodd" fill="none" stroke="#000000" stroke-width="0.4997" stroke-miterlimit="2.6131" x1="157.135" y1="117.63" x2="174.691" y2="150.625"/>
	
		<polyline fill-rule="evenodd" clip-rule="evenodd" fill="none" stroke="#000000" stroke-width="0.4997" stroke-miterlimit="2.6131" points="
		139.818,144.264 142.186,148.938 174.691,150.625 	"/>
	
		<line fill-rule="evenodd" clip-rule="evenodd" fill="none" stroke="#000000" stroke-width="0.5" stroke-miterlimit="2.6131" x1="139.829" y1="144.787" x2="157.023" y2="117.812"/>
	<path fill-rule="evenodd" clip-rule="evenodd" fill="#060204" d="M157.11,118.243l17.512,32.811l-32.616-1.68l-2.223-4.37
		l-0.153-0.301l-1.548,2.375l-1.739,2.674l0.321-0.17l-0.038,0.061l6.447,0.281l31.197,1.365l-0.036-0.07l0.119,0.008L290.76,90.919
		c-4.789-12.199-10.337-23.127-16.633-32.803L157.11,118.243z"/>
	
		<line fill-rule="evenodd" clip-rule="evenodd" fill="none" stroke="#FFFFFF" stroke-width="2.9999" stroke-miterlimit="22.9256" x1="164.647" y1="135.066" x2="268.732" y2="81.824"/>
	
		<path fill-rule="evenodd" clip-rule="evenodd" fill="none" stroke="#FFFFFF" stroke-width="2.9999" stroke-miterlimit="22.9256" d="
		M258.411,65.219c0.041,0.058,0.082,0.118,0.122,0.175 M268.226,82.425c26.734,58.255-0.843,129.497-62.965,160.699
		c-63.4,31.841-138.771,9.917-168.345-48.969C7.341,135.27,34.761,61.721,98.161,29.879c4.104-2.062,8.259-3.897,12.447-5.513"/>
	<polygon fill-rule="evenodd" clip-rule="evenodd" stroke="#000000" stroke-width="0.5" stroke-miterlimit="2.6131" points="
		166.035,134.357 157.23,117.81 156.923,117.968 139.97,144.565 142.186,148.938 174.691,150.625 	"/>
	
		<polygon fill-rule="evenodd" clip-rule="evenodd" fill="#F6CBA2" stroke="#000000" stroke-width="1.3" stroke-miterlimit="2.6131" points="
		156.764,118.323 140.012,144.605 142.202,148.925 174.32,150.593 165.769,134.517 157.067,118.166 	"/>
	<linearGradient id="SVGID_2_" gradientUnits="userSpaceOnUse" x1="110.4678" y1="7.625" x2="112.0164" y2="38.9411">
		<stop  offset="0" style="stop-color:#E97F82"/>
		<stop  offset="0.2377" style="stop-color:#EB6E6D"/>
		<stop  offset="0.5639" style="stop-color:#ED5756"/>
		<stop  offset="0.8298" style="stop-color:#EE4748"/>
		<stop  offset="1" style="stop-color:#EF4042"/>
	</linearGradient>
	
		<path fill-rule="evenodd" clip-rule="evenodd" fill="url(#SVGID_2_)" stroke="#000000" stroke-width="0.5" stroke-miterlimit="2.6131" d="
		M99.574,8.164c19.84,4.156,26.904,17.651,21.192,40.482L99.574,8.164z"/>
	
		<polygon fill-rule="evenodd" clip-rule="evenodd" fill="#F6CBA2" stroke="#000000" stroke-width="1.3" stroke-miterlimit="2.6131" points="
		156.794,118.688 140.042,144.97 142.232,149.289 174.352,150.957 165.799,134.881 157.099,118.531 	"/>
</g>
</svg>
