<?xml version="1.0" encoding="utf-8"?>
<!-- Generator: Adobe Illustrator 15.0.0, SVG Export Plug-In . SVG Version: 6.00 Build 0)  -->
<!DOCTYPE svg PUBLIC "-//W3C//DTD SVG 1.1//EN" "http://www.w3.org/Graphics/SVG/1.1/DTD/svg11.dtd">
<svg version="1.1" id="Layer_1" xmlns="http://www.w3.org/2000/svg" xmlns:xlink="http://www.w3.org/1999/xlink" x="0px" y="0px"
	 width="20px" height="20px" viewBox="0 0 30 30" enable-background="new 0 0 30 30" xml:space="preserve">
<g>
	<path fill="#FFFFFF" d="M7.089,0c0.449,0,0.898,0,1.348,0c1.336,0.309,2.385,1.213,2.813,2.52c0.43,1.314,0.044,3.055,0.176,4.98
		c2.777,0,6.042,0,9.023,0c1.082,0,2.205-0.073,2.93,0.176c0.96,0.328,1.786,1.086,2.168,1.875c0.995,2.059-0.138,4.743-2.227,5.332
		c-1.633,0.46-3.852,0.176-5.859,0.175c-2.115,0-4.16,0-6.035,0c-0.111,3.653-0.233,6.417,2.637,7.266
		c1.287,0.381,3.188,0.117,4.863,0.117c1.741,0,3.646-0.213,4.805,0.352c0.899,0.438,1.64,1.257,1.935,1.992
		c0.883,2.199-0.503,4.738-2.754,5.215c-3.027,0-6.056,0-9.082,0c-4.377-0.512-8.527-3.979-9.492-8.73
		c-0.514-2.531-0.234-5.995-0.234-8.847c0-1.504,0-3.05,0-4.57c0-1.553-0.143-3.12,0-4.57C4.273,1.53,5.585,0.388,7.089,0z"/>
</g>
</svg>