<?xml version="1.0" encoding="utf-8"?>
<!-- Generator: Adobe Illustrator 17.0.0, SVG Export Plug-In . SVG Version: 6.00 Build 0)  -->
<!DOCTYPE svg PUBLIC "-//W3C//DTD SVG 1.1//EN" "http://www.w3.org/Graphics/SVG/1.1/DTD/svg11.dtd">
<svg version="1.1" id="Layer_1" xmlns="http://www.w3.org/2000/svg" xmlns:xlink="http://www.w3.org/1999/xlink" x="0px" y="0px"
	 width="150px" height="150px" viewBox="0 0 150 150" enable-background="new 0 0 150 150" xml:space="preserve">
<path fill="#FFFFFF" d="M130.561,150.24c-35.2,0-70.4,0-105.6,0c-0.621-0.314-1.28-0.571-1.855-0.954
	c-0.763-0.508-1.557-1.028-2.164-1.7c-0.751-0.831-1.58-1.741-1.91-2.766c-0.425-1.32-0.521-2.788-0.529-4.194
	c-0.045-7.918-0.022-15.837-0.022-23.755c0-35.953,0.003-71.905-0.009-107.858c-0.001-2.089,0.603-4.032,1.848-5.595
	c1.17-1.468,2.742-2.633,4.64-3.179c35.2,0,70.4,0,105.6,0c1.266,0.626,1.442,1.766,1.442,3.006
	c-0.002,43.792-0.002,87.584-0.002,131.376c0,2.71-0.81,3.624-3.646,3.623c-33.714-0.008-67.428,0.005-101.142-0.037
	c-1.562-0.002-2.436,0.827-3.029,1.935c-1.188,2.219,0.497,4.817,3.005,4.817c33.674,0.001,67.348,0,101.022,0
	c0.36,0,0.722-0.023,1.079,0.006c1.484,0.121,2.393,0.934,2.696,2.388C132.188,148.321,131.467,149.781,130.561,150.24z
	 M27.841,5.571c-2.531-0.139-4.078,1.311-4.078,3.679c-0.002,41.035-0.002,82.069,0.001,123.104c0,0.342,0.039,0.684,0.053,0.919
	c1.355-0.152,2.631-0.296,4.025-0.453c0-0.479,0-0.989,0-1.499c0-29.516-0.003-59.032,0.011-88.549
	c0.001-1.237,0.022-2.462,1.333-3.278c0.826-0.514,2.156-0.483,2.925,0.116c1.191,0.927,1.252,2.142,1.252,3.44
	c-0.001,29.436-0.001,58.872-0.001,88.309c0,0.505,0,1.01,0,1.517c31.195,0,62.245,0,93.267,0c0-42.493,0-84.901,0-127.294
	c-31.115,0-62.136,0-93.267,0c0,0.488,0,0.919,0,1.35c0,7.919-0.006,15.838,0.006,23.757c0.002,1.39-0.318,2.516-1.623,3.326
	c-1.151,0.714-3.427,0.008-3.647-1.327c-0.147-0.891-0.243-1.801-0.245-2.702c-0.019-7.679-0.011-15.358-0.011-23.037
	C27.841,6.517,27.841,6.084,27.841,5.571z"/>
<path fill="#FFFFFF" d="M102.961,72.689c-0.319,2.215-0.378,4.51-1.022,6.627c-0.855,2.808-2.238,5.378-4.128,7.754
	c-1.417,1.783-3.124,3.115-4.79,4.547c-0.706,0.606-1.589,1.02-2.425,1.457c-2.105,1.101-4.351,1.813-6.683,2.23
	c-2.968,0.53-6,0.569-8.894-0.104c-2.896-0.673-5.807-1.739-8.141-3.629c-2.125-1.721-4.027-3.782-5.752-5.915
	c-1.884-2.33-3.139-5.112-3.551-8.081c-0.349-2.517-0.229-5.104-0.228-7.66c0-1.055,0.052-2.171,0.393-3.15
	c0.619-1.78,1.375-3.53,2.249-5.201c1.524-2.913,3.601-5.365,6.326-7.279c2.131-1.496,4.388-2.713,6.86-3.481
	c1.149-0.357,2.474-0.229,3.555-0.698c1.386-0.602,2.79-0.561,4.122-0.372c2.588,0.368,5.267,0.415,7.652,1.802
	c1.247,0.725,2.721,1.065,3.951,1.812c1.167,0.709,2.264,1.616,3.186,2.624c1.46,1.596,2.931,3.235,4.066,5.061
	c1.562,2.511,2.61,5.296,2.957,8.27c0.129,1.103,0.021,2.233,0.021,3.351C102.777,72.665,102.869,72.677,102.961,72.689z
	 M79.851,90.17c0.943,0,1.958,0.21,2.842-0.042c2.031-0.581,4.057-1.26,5.969-2.149c1.179-0.548,2.265-1.441,3.174-2.389
	c1.126-1.174,1.998-2.587,3.03-3.856c1.667-2.051,2.374-4.482,2.536-7.02c0.189-2.959,0.218-5.964-1.186-8.723
	c-0.744-1.462-1.379-3.054-2.43-4.27c-1.703-1.97-3.625-3.748-6.097-4.851c-2.142-0.956-4.314-1.751-6.651-1.891
	c-2.976-0.178-5.761,0.544-8.46,1.861c-1.808,0.882-3.459,1.886-4.915,3.275c-2.081,1.985-3.56,4.407-4.472,7.037
	c-1.025,2.956-1.09,6.102-0.41,9.216c0.667,3.054,2.051,5.714,4.151,8.036c1.637,1.809,3.527,3.372,5.702,4.32
	C74.87,89.698,77.25,90.642,79.851,90.17z"/>
<path fill="#FFFFFF" d="M59.297,28.65c1.572-1.484,3.05-2.888,4.538-4.281c1.309-1.225,2.618-2.45,3.95-3.649
	c0.949-0.855,2.802-0.672,3.759,0.212c1.694,1.563,3.47,3.035,5.171,4.591c0.68,0.622,1.273,1.346,1.866,2.057
	c0.784,0.942,1.7,0.981,2.544,0.147c1.142-1.129,2.338-2.203,3.504-3.308c1.234-1.169,2.478-2.329,3.686-3.525
	c0.935-0.926,2.784-1.01,3.822-0.065c1.649,1.501,3.253,3.049,4.897,4.557c1.134,1.04,2.302,2.045,3.618,3.21
	c0.869-0.744,1.835-1.54,2.765-2.376c1.285-1.154,2.551-2.331,3.812-3.511c0.69-0.646,1.319-1.36,2.039-1.968
	c0.814-0.687,1.745-0.716,2.759-0.379c1.031,0.343,1.384,1.171,1.46,2.051c0.114,1.322-0.132,2.451-1.593,3.197
	c-1.015,0.518-1.714,1.642-2.579,2.47c-1.3,1.245-2.617,2.472-3.937,3.696c-0.984,0.913-1.926,1.887-2.994,2.69
	c-0.917,0.689-2.777,0.669-3.798-0.421c-1.456-1.555-3.181-2.856-4.767-4.292c-0.809-0.732-1.601-1.489-2.336-2.295
	c-0.912-1.001-1.363-0.936-2.297,0.048c-1.027,1.082-2.232,1.993-3.34,2.999c-0.663,0.601-1.286,1.246-1.935,1.863
	c-0.691,0.657-1.388,1.308-2.089,1.953c-1.082,0.995-3.375,0.542-4.184-0.4c-1.078-1.254-2.414-2.284-3.63-3.42
	c-1.195-1.116-2.398-2.225-3.558-3.378c-0.474-0.471-0.795-0.635-1.377-0.099c-1.916,1.761-3.898,3.449-5.833,5.19
	c-0.633,0.57-1.194,1.219-1.794,1.826c-1.139,1.153-3.125,1.215-4.342,0.025c-2.144-2.098-4.347-4.136-6.548-6.175
	c-1.124-1.041-2.33-1.993-3.439-3.048c-0.982-0.934-0.949-3.165-0.016-4.082c0.949-0.933,2.743-0.733,3.893,0.331
	C53.712,23.605,56.467,26.079,59.297,28.65z"/>
<path fill="#FFFFFF" d="M79.364,102.28c2.826,0.276,4.946,0.298,6.979,0.73c2.33,0.495,4.639,1.212,6.853,2.096
	c2.178,0.869,4.333,1.899,6.295,3.172c1.701,1.103,3.157,2.603,4.648,4.006c1.235,1.163,2.505,2.336,3.504,3.692
	c1.436,1.95,2.655,4.062,3.934,6.125c0.374,0.604,0.633,1.279,0.947,1.92c0.567,1.158,0.259,2.565-0.755,3.432
	c-0.727,0.621-2.903,0.769-3.532,0.023c-0.643-0.763-1-1.774-1.446-2.695c-1.389-2.868-3.019-5.557-5.428-7.711
	c-1.318-1.179-2.469-2.585-3.911-3.574c-1.804-1.238-3.781-2.256-5.773-3.176c-1.781-0.823-3.635-1.715-5.541-1.983
	c-2.872-0.405-5.816-0.3-8.73-0.396c-0.555-0.018-1.131-0.046-1.664,0.075c-1.984,0.45-4.033,0.761-5.91,1.5
	c-2.031,0.8-3.895,2.025-5.836,3.058c-2.552,1.359-4.636,3.311-6.451,5.493c-1.973,2.372-3.948,4.773-4.793,7.885
	c-0.422,1.555-2.449,2.412-4.018,1.953c-0.757-0.222-1.455-1.832-1.33-2.694c0.365-2.518,1.734-4.548,3.065-6.605
	c2.111-3.264,4.644-6.114,7.721-8.537c2.034-1.602,4.202-2.871,6.499-4.027c2.491-1.254,5.033-2.214,7.798-2.618
	C75.015,103.056,77.526,102.589,79.364,102.28z"/>
<path fill="#FFFFFF" d="M80.04,83.627c-3.032-0.474-5.687-1.285-7.794-3.363c-0.738-0.728-0.653-3.152,0.113-3.875
	c0.898-0.847,2.922-0.706,3.744,0.195c0.323,0.355,0.794,0.584,1.216,0.838c2.027,1.216,4.734,0.833,6.456-0.902
	c0.778-0.784,2.837-0.936,3.623-0.269c0.965,0.82,1.208,2.884,0.355,3.857c-1.418,1.615-3.18,2.647-5.356,2.943
	C81.553,83.167,80.731,83.454,80.04,83.627z"/>
</svg>
