<?xml version="1.0" encoding="iso-8859-1"?>
<!-- Generator: Adobe Illustrator 19.0.0, SVG Export Plug-In . SVG Version: 6.00 Build 0)  -->
<svg version="1.1" id="Capa_1" xmlns="http://www.w3.org/2000/svg" xmlns:xlink="http://www.w3.org/1999/xlink" x="0px" y="0px"
	 viewBox="0 0 512 512" style="enable-background:new 0 0 512 512;" xml:space="preserve">
<circle style="fill:#10BEC1;" cx="256" cy="255.969" r="255.969"/>
<path style="fill:#D6D6D6;" d="M490.673,55.49l-42.318,369.365c-53.502,60.542-134.821,95.372-221.181,85.477
	c-86.36-9.894-158.019-61.637-196.442-132.711L73.405,7.683L490.673,55.49z"/>
<rect x="234.089" y="-141.39" transform="matrix(-0.1138 0.9935 -0.9935 -0.1138 378.6362 -200.5263)" style="fill:#E5E5E5;" width="89.328" height="419.996"/>
<g>
	
		<rect x="274.474" y="-159.041" transform="matrix(-0.1138 0.9935 -0.9935 -0.1138 363.3575 -222.1995)" style="fill:#BCBCBC;" width="12.61" height="419.996"/>
	
		<rect x="270.719" y="-126.247" transform="matrix(-0.1138 0.9935 -0.9935 -0.1138 391.7566 -181.9433)" style="fill:#BCBCBC;" width="12.61" height="419.996"/>
</g>
<path style="fill:#1B9E84;" d="M415.554,339.192c-6.567,4.548-16.6,11.159-28.959,18.156c-15.945,9.026-35.751,18.692-56.897,25.376
	c-9.645,3.049-18.782,5.23-27.276,6.771c-3.372,0.612-3.889,5.212-0.741,6.561l0.131,0.057c24.294,10.45,43.719,30.164,52.102,39.61
	c1.938,2.178,0.461,5.616-2.453,5.713c-12.625,0.415-40.295-0.115-64.589-10.565c-15.926-6.841-27.099-16.523-34.379-24.666
	c-1.966-2.202-5.616-1.011-5.952,1.927l-2.699,23.551c-0.22,1.92-1.197,3.565-2.597,4.676c-1.4,1.112-3.233,1.69-5.153,1.471
	c-3.841-0.44-6.587-3.91-6.148-7.74l2.699-23.551c0.336-2.938-2.959-4.924-5.372-3.223c-8.933,6.285-22.007,13.189-39.068,16.251
	c-26.027,4.685-53.111-1.058-65.315-4.318c-2.816-0.753-3.477-4.436-1.097-6.12c10.301-7.306,33.693-22.115,59.72-26.798l0.15-0.025
	c3.361-0.604,3.898-5.201,0.762-6.559c-7.927-3.422-16.342-7.614-25.048-12.766c-33.868-20.043-61.51-48.27-73.775-61.821
	c-2.269-2.5,0.053-6.43,3.339-5.643c17.782,4.225,55.83,14.862,89.699,34.906c7.741,4.578,14.706,9.319,20.938,14.041
	c3.029,2.292,6.963-1.294,4.999-4.537c-7.537-12.42-15.369-27.125-22.708-44.119c-20.046-46.422-30.169-95.472-34.157-118.402
	c-0.612-3.562,3.968-5.539,6.13-2.653c13.956,18.624,42.709,59.629,62.766,106.053c4.163,9.647,7.686,18.916,10.668,27.68
	c1.24,3.676,6.657,2.834,6.692-1.042c0.1-13.27,0.88-27.872,2.682-43.597c6.61-57.702,24.861-112.271,33.598-136.025
	c0.626-1.695,2.177-2.39,3.62-2.224s2.797,1.193,3.023,2.986c3.137,25.114,8.573,82.398,1.963,140.098
	c-1.801,15.725-4.344,30.114-7.248,43.063c-0.843,3.784,4.243,5.829,6.283,2.528c4.886-7.864,10.413-16.085,16.651-24.541
	c30.026-40.685,67.32-74.134,85.127-89.119c2.758-2.324,6.783,0.64,5.371,3.97c-9.06,21.435-30.025,66.923-60.051,107.619
	c-10.992,14.893-21.947,27.446-32.097,37.839c-2.645,2.715,0.375,7.099,3.844,5.551c7.138-3.189,15.005-6.231,23.571-8.941
	c25.107-7.934,51.074-11.352,70.984-12.763c9.862-0.71,18.234-0.918,24.286-0.951C416.947,332.916,418.32,337.268,415.554,339.192z"
	/>
<path style="fill:#17886E;" d="M271.864,125.596l-35.773,312.235c-3.841-0.44-6.587-3.91-6.148-7.74l2.699-23.551
	c0.336-2.938-2.959-4.924-5.372-3.223c-8.933,6.285-22.007,13.189-39.068,16.251c-26.027,4.685-53.111-1.058-65.315-4.318
	c-2.816-0.753-3.477-4.436-1.097-6.12c10.301-7.306,33.693-22.115,59.72-26.798l0.15-0.025c3.361-0.604,3.898-5.201,0.762-6.559
	c-7.927-3.422-16.342-7.614-25.048-12.766c-33.868-20.043-61.51-48.27-73.775-61.821c-2.269-2.5,0.053-6.43,3.339-5.643
	c17.782,4.225,55.83,14.862,89.699,34.906c7.741,4.578,14.706,9.319,20.938,14.041c3.029,2.292,6.963-1.294,4.999-4.537
	c-7.537-12.42-15.369-27.125-22.708-44.119c-20.046-46.422-30.169-95.472-34.157-118.402c-0.612-3.562,3.968-5.539,6.13-2.653
	c13.956,18.624,42.709,59.629,62.766,106.052c4.163,9.647,7.686,18.916,10.668,27.68c1.24,3.676,6.657,2.834,6.692-1.042
	c0.1-13.27,0.88-27.872,2.682-43.597c6.61-57.702,24.861-112.271,33.598-136.025C268.87,126.126,270.421,125.43,271.864,125.596z"/>
<g>
	<path style="fill:#E5E5E5;" d="M436.776,201.076l-22.197-2.543c-5.336-0.611-9.165-5.432-8.554-10.767l4.05-35.346
		c0.611-5.336,5.432-9.165,10.767-8.554l22.197,2.543c5.336,0.611,9.165,5.432,8.554,10.767l-4.05,35.346
		C446.933,197.857,442.111,201.688,436.776,201.076z"/>
	<path style="fill:#E5E5E5;" d="M410.93,426.664l-22.197-2.543c-5.336-0.611-9.165-5.432-8.554-10.767l22.204-193.81
		c0.611-5.336,5.432-9.165,10.767-8.554l22.197,2.543c5.336,0.611,9.165,5.432,8.554,10.767l-22.204,193.81
		C421.087,423.445,416.266,427.275,410.93,426.664z"/>
</g>
<path style="fill:#27B2A2;" d="M415.554,339.192c-6.567,4.548-16.6,11.159-28.959,18.156l2.687-23.458
	c9.862-0.71,18.234-0.918,24.286-0.951C416.947,332.916,418.32,337.268,415.554,339.192z"/>
<g>
</g>
<g>
</g>
<g>
</g>
<g>
</g>
<g>
</g>
<g>
</g>
<g>
</g>
<g>
</g>
<g>
</g>
<g>
</g>
<g>
</g>
<g>
</g>
<g>
</g>
<g>
</g>
<g>
</g>
</svg>
