<?xml version="1.0" encoding="iso-8859-1"?>
<!-- Generator: Adobe Illustrator 19.0.0, SVG Export Plug-In . SVG Version: 6.00 Build 0)  -->
<svg version="1.1" id="Layer_1" xmlns="http://www.w3.org/2000/svg" xmlns:xlink="http://www.w3.org/1999/xlink" x="0px" y="0px"
	 viewBox="0 0 512 512" style="enable-background:new 0 0 512 512;" xml:space="preserve">
<path style="fill:#E5A1A1;" d="M298.506,209.616c-0.733-0.105-1.476-0.157-2.229-0.157c-11.849,0-21.457,13.586-21.457,30.354
	s9.609,40.821,21.457,40.821c3.308,0,6.437-1.874,9.242-4.94h168.915c2.805,3.067,5.935,4.94,9.242,4.94
	c11.849,0,21.457-24.053,21.457-40.821s-9.609-30.354-21.457-30.354c-0.754,0-1.497,0.052-2.229,0.157"/>
<path style="fill:#F9C5C5;" d="M299.438,172.108c-3.2,38.867,0.911,79.196,9.295,120.629c6.908,34.136,36.625,58.796,71.445,59.511
	c6.532,0.134,13.066,0.134,19.598,0c34.82-0.715,64.537-25.375,71.445-59.511c8.385-41.433,12.494-81.762,9.295-120.629
	l-64.372-39.057l-92.109,15.7L299.438,172.108z"/>
<path style="fill:#FFDD00;" d="M410.911,373.596h14.559c34.059,0,61.661,27.612,61.661,61.671V512H295.963v-76.733
	c0-34.059,27.601-61.671,61.661-61.671h14.559"/>
<path style="fill:#F9C5C5;" d="M410.911,351.438v22.159c0,10.694-8.67,19.364-19.364,19.364l0,0
	c-10.694,0-19.364-8.67-19.364-19.364v-22.159"/>
<path style="fill:#E5A1A1;" d="M410.911,351.438v13.963c0,0-30.061,2.324-26.282,26.282c-2.564-0.973-4.867-2.491-6.772-4.396
	c-3.506-3.496-5.673-8.342-5.673-13.691v-22.159H410.911z"/>
<g>
	<path style="fill:#4D4D4D;" d="M350.202,243.806c-4.335,0-7.85-3.515-7.85-7.85v-10.467c0-4.335,3.515-7.85,7.85-7.85
		s7.85,3.515,7.85,7.85v10.467C358.053,240.292,354.538,243.806,350.202,243.806z"/>
	<path style="fill:#4D4D4D;" d="M429.751,243.806c-4.335,0-7.85-3.515-7.85-7.85v-10.467c0-4.335,3.515-7.85,7.85-7.85
		s7.85,3.515,7.85,7.85v10.467C437.601,240.292,434.086,243.806,429.751,243.806z"/>
</g>
<path style="fill:#E5A1A1;" d="M459.062,165.22c0,0-42.918-32.169-60.366,18.054c-54.428,4.187-69.773,36.98-69.773,67.679
	c0,30.71,7.536,79.946,51.257,101.288c-34.823-0.712-64.539-25.372-71.447-59.504c-5.631-27.821-9.337-55.15-10.184-81.862
	c-0.722-22.535-2.146-82.661,20.254-85.153c35.431-3.946,106.92,7.568,142.35,11.514
	C483.551,139.728,459.784,142.684,459.062,165.22z"/>
<path style="fill:#FA496E;" d="M501.976,192.371c0,8.981-1.057,17.71-3.056,26.073c-3.894-5.547-9.284-8.981-15.24-8.981
	c-0.754,0-1.497,0.052-2.229,0.157c-36.226-8.834-60.07-37.681-60.07-37.681v27.214c-30.825,4.469-62.1-2.753-85.264-10.865
	c-22.001-7.693-36.676-16.182-36.676-16.182c-1.015,12.361-1.298,24.869-0.932,37.513c-0.733-0.105-1.476-0.157-2.229-0.157
	c-5.956,0-11.346,3.433-15.24,8.981c-1.999-8.363-3.056-17.092-3.056-26.073c0-61.86,50.137-111.996,111.996-111.996
	C451.829,80.375,501.976,130.511,501.976,192.371z"/>
<path style="fill:#E23760;" d="M389.98,80.375c0,0-48.661,43.888-53.863,107.914c-22.001-7.693-36.676-16.182-36.676-16.182
	c-1.015,12.361-1.298,24.869-0.932,37.513c-0.733-0.105-1.476-0.157-2.229-0.157c-5.956,0-11.346,3.433-15.24,8.981
	c-1.999-8.363-3.056-17.092-3.056-26.073C277.984,130.511,328.12,80.375,389.98,80.375z"/>
<path style="fill:#E5A1A1;" d="M30.553,209.616c-0.733-0.105-1.476-0.157-2.229-0.157c-11.849,0-21.457,13.586-21.457,30.354
	s9.609,40.821,21.457,40.821c3.308,0,6.437-1.874,9.242-4.94h168.915c2.805,3.067,5.935,4.94,9.242,4.94
	c11.849,0,21.457-24.053,21.457-40.821s-9.609-30.354-21.457-30.354c-0.754,0-1.497,0.052-2.229,0.157"/>
<path style="fill:#FA496E;" d="M479.692,237.316c-1.769,18.223-4.679,36.708-8.468,55.422
	c-6.908,34.133-36.624,58.793-71.447,59.515c-6.531,0.126-13.063,0.126-19.594,0c-7.798-0.167-15.345-1.528-22.431-3.925
	c-24.555-8.321-43.658-29.098-49.017-55.59c-3.789-18.715-6.699-37.199-8.468-55.422c11.754-4.229,24.807,1.329,29.914,12.749
	l2.041,4.564c4.019,8.991,12.791,14.172,21.865,14.172c4.25,0,8.551-1.13,12.477-3.538c7.18-4.417,15.292-6.615,23.414-6.615
	s16.234,2.198,23.415,6.615c12.309,7.547,28.449,2.554,34.342-10.634l2.041-4.564C454.885,238.645,467.938,233.087,479.692,237.316z
	"/>
<path style="fill:#E23760;" d="M357.752,348.328c-24.555-8.321-43.658-29.098-49.017-55.59c-3.789-18.715-6.699-37.199-8.468-55.422
	c11.754-4.229,24.807,1.329,29.914,12.749l2.041,4.564C332.223,254.628,330.884,304.974,357.752,348.328z"/>
<path style="fill:#52DBFF;" d="M315.595,9.702c-12.936-12.936-33.908-12.936-46.841,0l-0.667,0.667l-6.222,6.222l-6.222-6.222
	l-0.667-0.667c-12.936-12.936-33.908-12.936-46.841,0c-6.411,6.408-9.645,14.789-9.7,23.191c-0.002,0.075-0.002,0.153-0.002,0.228
	c0,4.877,1.072,9.756,3.215,14.252c1.578,3.317,3.74,6.424,6.486,9.17l1.329,1.329l5.56,5.56l3.613,3.613l9.172,9.172l9.172,9.172
	l9.165,9.165l15.718,15.718l15.718-15.718l9.165-9.165l9.172-9.172l9.172-9.172l9.172-9.172l1.329-1.329
	c2.747-2.747,4.908-5.855,6.483-9.172c2.18-4.566,3.25-9.526,3.213-14.48C325.235,24.492,322,16.108,315.595,9.702z"/>
<polygon style="fill:#E5A1A1;" points="404.039,247.576 389.977,233.514 375.914,247.576 "/>
<path style="fill:#F9C5C5;" d="M203.271,292.738c-6.908,34.143-36.655,58.803-71.479,59.515c-6.51,0.126-13.021,0.126-19.542,0
	c-34.823-0.712-64.56-25.372-71.468-59.515c-7.065-34.928-11.095-69.061-10.279-102.199c0,0-0.345-46.107,40.329-73.582
	c23.257-15.711,52.188-19.563,78.219-11.545c8.457,2.596,16.601,6.448,24.158,11.545c40.674,27.476,40.329,73.582,40.329,73.582
	C214.366,223.677,210.336,257.81,203.271,292.738z"/>
<path style="fill:#A67EFF;" d="M142.957,373.596h14.559c34.059,0,61.661,27.612,61.661,61.671V512H28.01v-76.733
	c0-34.059,27.601-61.671,61.661-61.671h14.559"/>
<g>
	<rect x="28.01" y="475.649" style="fill:#F9C5C5;" width="36.435" height="36.352"/>
	<rect x="182.742" y="475.649" style="fill:#F9C5C5;" width="36.435" height="36.352"/>
	<path style="fill:#F9C5C5;" d="M142.957,351.438v22.159c0,10.694-8.67,19.364-19.364,19.364l0,0
		c-10.694,0-19.364-8.67-19.364-19.364v-22.159"/>
</g>
<path style="fill:#E5A1A1;" d="M142.957,351.438v13.963c0,0-30.061,2.324-26.282,26.282c-2.564-0.973-4.867-2.491-6.772-4.396
	c-3.506-3.496-5.673-8.342-5.673-13.691v-22.159H142.957z"/>
<g>
	<path style="fill:#4D4D4D;" d="M82.249,243.806c-4.335,0-7.85-3.515-7.85-7.85v-10.467c0-4.335,3.515-7.85,7.85-7.85
		c4.335,0,7.85,3.515,7.85,7.85v10.467C90.099,240.292,86.585,243.806,82.249,243.806z"/>
	<path style="fill:#4D4D4D;" d="M161.798,243.806c-4.335,0-7.85-3.515-7.85-7.85v-10.467c0-4.335,3.515-7.85,7.85-7.85
		s7.85,3.515,7.85,7.85v10.467C169.648,240.292,166.133,243.806,161.798,243.806z"/>
</g>
<path style="fill:#E23760;" d="M389.979,307.754c-9.252,0-18.503-3.522-25.548-10.565c-2.044-2.044-2.044-5.358,0-7.401
	s5.357-2.043,7.401,0c10.006,10.006,26.287,10.006,36.292,0c2.044-2.043,5.357-2.043,7.401,0c2.044,2.044,2.044,5.358,0,7.401
	C408.482,304.232,399.231,307.754,389.979,307.754z"/>
<g>
	<path style="fill:#E5A1A1;" d="M122.024,308.244c-9.252,0-18.503-3.522-25.548-10.565c-2.044-2.044-2.044-5.358,0-7.401
		c2.044-2.043,5.357-2.043,7.401,0c10.006,10.006,26.287,10.006,36.292,0c2.044-2.043,5.357-2.043,7.401,0
		c2.044,2.044,2.044,5.358,0,7.401C140.527,304.723,131.275,308.244,122.024,308.244z"/>
	<path style="fill:#E5A1A1;" d="M131.792,352.253c-6.51,0.126-13.021,0.126-19.542,0c-34.823-0.712-64.56-25.372-71.468-59.515
		c-7.065-34.928-11.095-69.061-10.279-102.199c0,0-0.345-46.107,40.329-73.582c23.257-15.711,52.188-19.563,78.219-11.545
		c0,0-84.386,27.82-88.78,79.088C53.992,257.768,49.449,316.938,131.792,352.253z"/>
	<polygon style="fill:#E5A1A1;" points="136.086,247.576 122.024,233.514 107.961,247.576 	"/>
</g>
<path style="fill:#C96C18;" d="M191.914,284.145c-17.448,10.184-54.773,27.298-69.888-1.748
	c-15.114,29.046-52.439,11.932-69.888,1.748c11.116,2.669,19.102-12.341,32.385-21.195c16.663-11.105,37.503,4.166,37.503,4.166
	s20.829-15.271,37.503-4.166C172.802,271.804,180.788,286.814,191.914,284.145z"/>
<g>
</g>
<g>
</g>
<g>
</g>
<g>
</g>
<g>
</g>
<g>
</g>
<g>
</g>
<g>
</g>
<g>
</g>
<g>
</g>
<g>
</g>
<g>
</g>
<g>
</g>
<g>
</g>
<g>
</g>
</svg>
