<?xml version="1.0" encoding="utf-8"?>
<!-- Generator: Adobe Illustrator 17.0.0, SVG Export Plug-In . SVG Version: 6.00 Build 0)  -->
<!DOCTYPE svg PUBLIC "-//W3C//DTD SVG 1.1//EN" "http://www.w3.org/Graphics/SVG/1.1/DTD/svg11.dtd">
<svg version="1.1" id="Layer_1" xmlns="http://www.w3.org/2000/svg" xmlns:xlink="http://www.w3.org/1999/xlink" x="0px" y="0px"
	 width="256px" height="256px" viewBox="0 0 256 256" enable-background="new 0 0 256 256" xml:space="preserve">
<path fill="#050505" d="M253,188.09l-24-22.153v11.173c-1.737,0.005-26.214,0.126-58.538,0.286
	c1.602-22.945,3.375-48.129,5.004-71.176c31.922-0.133,55.521-0.22,55.636-0.22h0.01c5.793-1,10.13-5.402,9.696-11.186
	c-0.397-5.285-4.631-9.353-9.77-9.689c-0.108-0.003-22.932,0.11-54.098,0.264C179.26,52.597,181,28.128,181,28.01V28
	c0-0.566-0.058-1.117-0.145-1.659l10.108,0.345L172.167,2.513l-21.805,22.787l9.786,0.334c-0.067,0.291-0.125,0.586-0.167,0.885
	c-0.012,0.113-1.787,25.351-4.153,58.974c-20.773,0.103-43.494,0.214-64.918,0.318C93.245,52.807,95,28.129,95,28.01V28
	c0-5.8-4.76-10.5-10.56-10.5c-5.3,0-9.74,3.92-10.46,9.02c-0.012,0.113-1.802,25.56-4.183,59.394
	c-22.466,0.108-41.961,0.198-53.996,0.249c-0.443-0.027-11.03-0.846-10.903,10.904c0.099,9.068,10.561,10.025,11.09,9.986
	l0.09-0.008c0.01-0.001,0.006,0.036,0.016,0.036c11.389-0.112,30.267-0.235,52.238-0.356c-1.629,23.141-3.4,48.313-5.013,71.195
	c-20.54,0.098-38.236,0.18-49.451,0.227c-0.443-0.027-11.03-0.847-10.903,10.903c0.099,9.068,10.561,10.025,11.09,9.985l0.09-0.008
	c0.01-0.001,0.006,0.047,0.016,0.046c10.595-0.104,27.672-0.218,47.69-0.33c-1.238,17.56-2.298,32.568-3.002,42.489
	c-0.06,0.44-1.517,10.937,10.21,11.69c9.05,0.581,10.94-9.78,10.94-10.31v-0.09c0-0.01,0-0.01,0-0.02
	c0.647-9.912,1.712-25.507,2.985-43.872c21.062-0.108,43.786-0.211,64.897-0.302c-1.251,17.739-2.322,32.905-3.031,42.905
	c-0.06,0.44-1.517,10.937,10.21,11.69c9.05,0.581,10.94-9.78,10.94-10.31v-0.09c0-0.01,0-0.01,0-0.02
	c0.651-9.983,1.727-25.728,3.012-44.264c32.684-0.136,57.737-0.228,59.988-0.235v8.562L253,188.09z M84.433,177.817
	c1.601-22.928,3.375-48.123,5.005-71.205c21.305-0.108,44.041-0.212,64.924-0.302c-1.627,23.114-3.398,48.283-5.012,71.19
	C128.341,177.604,105.625,177.715,84.433,177.817z"/>
</svg>
