<?xml version="1.0" encoding="iso-8859-1"?>
<!-- Generator: Adobe Illustrator 19.0.0, SVG Export Plug-In . SVG Version: 6.00 Build 0)  -->
<svg version="1.1" id="Layer_1" xmlns="http://www.w3.org/2000/svg" xmlns:xlink="http://www.w3.org/1999/xlink" x="0px" y="0px"
	 viewBox="0 0 512 512" style="enable-background:new 0 0 512 512;" xml:space="preserve">
<path style="fill:#334F55;" d="M446.966,425.22h-88.964l-16.62-58.179c27.378-23.875,44.787-58.904,44.787-97.991v-0.824
	c19.78-3.629,34.712-19.402,34.712-38.261c0-12.331-6.508-23.211-16.456-30.373h33.812c4.792,0,8.678-3.881,8.678-8.678
	C446.915,85.644,361.271,0,256,0S65.085,85.644,65.085,190.915c0,4.797,3.886,8.678,8.678,8.678h33.812
	c-9.948,7.162-16.456,18.042-16.456,30.373c0,18.859,14.932,34.632,34.712,38.261v0.824c0,39.086,17.409,74.115,44.787,97.991
	l-16.62,58.179H65.034c-23.898,0-43.339,19.466-43.339,43.39v34.712c0,4.797,3.886,8.678,8.678,8.678h43.39h69.424h338.441
	c4.792,0,8.678-3.881,8.678-8.678V468.61C490.305,444.687,470.864,425.22,446.966,425.22z"/>
<path style="fill:#63CB6B;" d="M256,17.356c92.792,0,168.809,73.195,173.343,164.881h-43.174v-8.703v-12.992
	c0-2.61-1.178-5.085-3.203-6.737c-2.021-1.644-4.674-2.305-7.246-1.754L256,176.991l-119.72-24.941
	c-2.563-0.551-5.22,0.11-7.246,1.754c-2.025,1.652-3.203,4.127-3.203,6.737v12.992v8.703H82.657
	C87.191,90.551,163.208,17.356,256,17.356z"/>
<path style="fill:#EAE8D2;" d="M143.186,269.051v-0.034v-17.356v-43.39v-17.356v-17.381v-2.322l111.042,23.136
	c1.17,0.254,2.373,0.254,3.542,0l111.042-23.136v2.322v17.381v17.356v43.39v17.356v0.034c0,62.187-50.606,112.78-112.814,112.78
	S143.186,331.237,143.186,269.051z"/>
<g>
	<path style="fill:#334F55;" d="M139.61,104.542c12.915-18.068,29.479-32.551,49.225-43.051l7.665-4.076l-8.148-15.322l-7.661,4.076
		c-22.14,11.771-40.712,28.017-55.199,48.288l-5.047,7.059l14.119,10.093L139.61,104.542z"/>
	<rect x="229.966" y="329.763" style="fill:#334F55;" width="52.068" height="17.356"/>
	<path style="fill:#334F55;" d="M212.61,260.339c9.572,0,17.356-7.788,17.356-17.356h52.068c0,9.568,7.784,17.356,17.356,17.356
		s17.356-7.788,17.356-17.356h17.356v-17.356H177.898v17.356h17.356C195.254,252.551,203.038,260.339,212.61,260.339z"/>
</g>
<path style="fill:#63CB6B;" d="M339.953,425.22h-75.275v-26.473c22.695-1.507,43.801-8.788,61.858-20.484L339.953,425.22z"/>
<g>
	<path style="fill:#EAE8D2;" d="M386.169,250.329v-40.726c10.079,2.994,17.356,10.946,17.356,20.363
		C403.525,239.383,396.249,247.335,386.169,250.329z"/>
	<path style="fill:#EAE8D2;" d="M108.475,229.966c0-9.417,7.276-17.369,17.356-20.363v40.726
		C115.751,247.335,108.475,239.383,108.475,229.966z"/>
</g>
<path style="fill:#63CB6B;" d="M185.464,378.263c18.056,11.696,39.162,18.976,61.858,20.484v26.473h-75.276L185.464,378.263z"/>
<rect x="82.441" y="468.61" style="fill:#C5D35E;" width="52.068" height="26.034"/>
<path style="fill:#63CB6B;" d="M472.949,494.644H151.864v-34.712c0-4.797-3.886-8.678-8.678-8.678H73.763
	c-4.792,0-8.678,3.881-8.678,8.678v34.712H39.051V468.61c0-14.356,11.657-26.034,25.983-26.034h95.508H256h95.458h95.508
	c14.326,0,25.983,11.678,25.983,26.034V494.644z"/>
<g>
</g>
<g>
</g>
<g>
</g>
<g>
</g>
<g>
</g>
<g>
</g>
<g>
</g>
<g>
</g>
<g>
</g>
<g>
</g>
<g>
</g>
<g>
</g>
<g>
</g>
<g>
</g>
<g>
</g>
</svg>
