<?xml version="1.0" encoding="utf-8"?>
<!-- Generator: Adobe Illustrator 17.0.0, SVG Export Plug-In . SVG Version: 6.00 Build 0)  -->
<!DOCTYPE svg PUBLIC "-//W3C//DTD SVG 1.1//EN" "http://www.w3.org/Graphics/SVG/1.1/DTD/svg11.dtd">
<svg version="1.1" id="Layer_1" xmlns="http://www.w3.org/2000/svg" xmlns:xlink="http://www.w3.org/1999/xlink" x="0px" y="0px"
	 width="150px" height="150px" viewBox="0 0 150 150" enable-background="new 0 0 150 150" xml:space="preserve">
<path fill="#FFFFFF" d="M135.36,149.761c-40.16,0-80.32,0-120.48,0c-0.444-0.238-0.862-0.589-1.335-0.696
	c-2.36-0.535-4.346-1.839-5.974-3.464c-2.716-2.711-4.437-6.038-4.441-9.999c-0.021-19.749-0.01-39.499-0.007-59.248
	c0-0.385,0.035-0.771,0.059-1.278c8.258,0,16.428,0,24.658,0c0-24.87,0-49.613,0-74.356c39.84,0,79.68,0,119.52,0
	c0,44.77,0.003,89.539-0.017,134.309c-0.001,1.171-0.041,2.416-0.427,3.496c-0.799,2.235-1.634,4.43-3.41,6.24
	c-0.96,0.979-1.896,1.966-3.048,2.622C138.835,148.312,137.066,148.982,135.36,149.761z M29.698,144.481c0.673,0,1.151,0,1.63,0
	c33.755,0,67.509-0.017,101.264,0.039c2.214,0.004,4.011-0.787,5.657-1.995c2.619-1.923,3.822-4.662,3.823-7.88
	c0.013-32.555,0.008-65.11,0.006-97.665c0-0.384-0.034-0.769-0.052-1.13c-36.355,0-72.604,0-108.906,0c0,0.607,0,1.124,0,1.641
	c0,30.875,0.017,61.75-0.027,92.625c-0.004,3.033,0.585,6.141-0.689,9.092c-0.389,0.903-0.691,1.847-1.135,2.721
	C30.848,142.762,30.294,143.526,29.698,144.481z M142.022,6.081c-36.336,0-72.583,0-108.808,0c0,8.172,0,16.264,0,24.34
	c36.313,0,72.532,0,108.808,0C142.022,22.299,142.022,14.236,142.022,6.081z M8.4,80.454c0,0.57,0,1.044,0,1.517
	c0,17.192-0.004,34.385,0.01,51.577c0.001,0.983,0.13,1.967,0.229,2.948c0.387,3.834,2.925,5.977,6.102,7.501
	c1.726,0.828,3.638,0.635,5.472,0.31c1.721-0.305,3.127-1.167,4.438-2.401c1.924-1.81,3.16-3.894,3.166-6.501
	c0.043-17.832,0.022-35.664,0.022-53.496c0-0.467,0-0.935,0-1.454C21.331,80.454,14.949,80.454,8.4,80.454z"/>
<path fill="#FFFFFF" d="M97.492,134.795c0-11.665,0-23.245,0-34.89c11.633,0,23.214,0,34.891,0c0,11.586,0,23.195,0,34.89
	C120.808,134.795,109.199,134.795,97.492,134.795z M102.532,129.515c8.268,0,16.437,0,24.571,0c0-8.176,0-16.265,0-24.329
	c-8.238,0-16.378,0-24.571,0C102.532,113.311,102.532,121.372,102.532,129.515z"/>
<path fill="#FFFFFF" d="M43.014,75.037c0-11.589,0-23.09,0-34.653c11.555,0,23.056,0,34.651,0c0,11.511,0,23.04,0,34.653
	C66.165,75.037,54.635,75.037,43.014,75.037z M72.665,45.684c-8.181,0-16.27,0-24.331,0c0,8.173,0,16.263,0,24.334
	c8.155,0,16.216,0,24.331,0C72.665,61.895,72.665,53.834,72.665,45.684z"/>
<path fill="#FFFFFF" d="M89.047,85.201c13.632,0,27.264,0.009,40.896-0.018c0.98-0.002,1.697,0.387,2.216,1.097
	c0.432,0.59,0.238,2.895-0.32,3.208c-0.723,0.404-1.602,0.685-2.427,0.721c-2.194,0.096-4.396,0.033-6.595,0.033
	c-24.626,0-49.251,0.002-73.877-0.01c-0.58,0-1.179-0.084-1.737-0.241c-1.25-0.352-2.036-1.596-1.835-2.788
	c0.238-1.405,0.987-2,2.542-2C61.623,85.2,75.335,85.201,89.047,85.201z"/>
<path fill="#FFFFFF" d="M110.002,45.601c-6.517,0-13.034,0.001-19.551-0.001c-1.547,0-2.887-1.137-3.088-2.611
	c-0.134-0.978,1.295-2.485,2.534-2.657c0.236-0.033,0.479-0.011,0.719-0.011c12.954,0,25.908,0.02,38.862-0.022
	c1.96-0.006,3.506,1.358,2.776,3.587c-0.336,1.024-1.215,1.713-2.461,1.713C123.196,45.602,116.599,45.601,110.002,45.601z"/>
<path fill="#FFFFFF" d="M109.898,60.481c-6.6,0-13.2-0.046-19.798,0.042c-1.209,0.016-1.752-0.653-2.192-1.414
	c-1.245-2.153,0.51-3.86,2.454-3.906c0.24-0.006,0.48-0.002,0.72-0.002c12.639,0,25.278-0.003,37.917,0.01
	c0.541,0.001,1.079,0.188,1.622,0.217c1.422,0.076,1.669,1.231,1.789,2.211c0.094,0.769-0.098,1.587-0.968,2.22
	c-0.635,0.462-1.162,0.627-1.866,0.626C123.017,60.478,116.457,60.481,109.898,60.481z"/>
<path fill="#FFFFFF" d="M109.923,75.121c-6.597,0-13.195,0-19.792,0c-1.559,0-2.585-0.857-2.765-2.307
	c-0.061-0.49,1.138-2.369,1.619-2.449c0.774-0.129,1.559-0.27,2.34-0.271c12.195-0.017,24.391-0.016,36.586-0.001
	c0.822,0.001,1.647,0.125,2.465,0.234c1.256,0.168,2.213,1.346,2.098,2.539c-0.15,1.567-0.909,2.254-2.518,2.255
	c-4.958,0.003-9.916,0.001-14.874,0.001C113.361,75.121,111.642,75.121,109.923,75.121z"/>
<path fill="#FFFFFF" d="M66.413,134.881c-6.155,0-12.309-0.025-18.464,0.015c-1.857,0.012-2.387-0.809-2.563-2.346
	c-0.166-1.449,1.087-2.836,2.464-2.945c0.278-0.022,0.559-0.004,0.839-0.004c11.87,0,23.739,0.027,35.609-0.034
	c1.552-0.008,2.658,0.579,3.331,1.791c0.29,0.523,0.068,1.449-0.155,2.114c-0.526,1.564-1.895,1.42-3.196,1.416
	C78.322,134.871,72.368,134.881,66.413,134.881z"/>
<path fill="#FFFFFF" d="M66.405,120.001c-6.113,0-12.226,0.003-18.339-0.002c-1.76-0.001-2.727-0.917-2.705-2.54
	c0.022-1.617,1.271-2.741,2.787-2.74c12.226,0.005,24.451,0.002,36.677,0.004c1.663,0,3.029,1.291,3.013,2.828
	c-0.015,1.476-1.122,2.444-2.856,2.447c-5.753,0.009-11.507,0.004-17.26,0.004C67.284,120.001,66.844,120.001,66.405,120.001z"/>
<path fill="#FFFFFF" d="M66.599,99.841c6.159,0,12.318-0.002,18.477,0.001c1.486,0.001,2.899,1.538,2.763,2.99
	c-0.12,1.279-1.405,2.271-3.022,2.284c-2.119,0.018-4.239,0.004-6.359,0.004c-10.038,0-20.077,0.002-30.115-0.002
	c-1.95-0.001-2.277-0.243-2.808-1.834c-0.601-1.802,0.783-3.426,2.467-3.434C54.201,99.825,60.4,99.841,66.599,99.841z"/>
<path fill="#FFFFFF" d="M117.519,25.623c-19.923,0-39.742,0-59.62,0c0-5,0-9.943,0-14.974c19.845,0,39.692,0,59.62,0
	C117.519,15.604,117.519,20.575,117.519,25.623z M62.935,20.318c16.582,0,33.069,0,49.527,0c0-1.537,0-2.989,0-4.416
	c-16.555,0-33.013,0-49.527,0C62.935,17.386,62.935,18.809,62.935,20.318z"/>
</svg>
