<?xml version="1.0" encoding="utf-8"?>
<!-- Generator: Adobe Illustrator 17.0.0, SVG Export Plug-In . SVG Version: 6.00 Build 0)  -->
<!DOCTYPE svg PUBLIC "-//W3C//DTD SVG 1.1//EN" "http://www.w3.org/Graphics/SVG/1.1/DTD/svg11.dtd">
<svg version="1.1" id="Layer_1" xmlns="http://www.w3.org/2000/svg" xmlns:xlink="http://www.w3.org/1999/xlink" x="0px" y="0px"
	 width="150px" height="150px" viewBox="0 0 150 150" enable-background="new 0 0 150 150" xml:space="preserve">
<path fill="#FFFFFF" d="M78.96,0.24c0.715,0.115,1.449,0.165,2.142,0.357c3.875,1.072,7.616,2.47,10.879,4.891
	c0.916,0.68,1.653,1.603,2.573,2.277c1.871,1.37,3.15,3.279,4.591,5.015c0.91,1.096,1.509,2.505,2.025,3.859
	c0.708,1.857,1.095,3.837,1.819,5.687c1.003,2.561,0.874,5.244,0.884,7.858c0.083,19.957,0.06,39.914,0.024,59.871
	c-0.004,2.088,0.052,4.286-0.552,6.237c-0.822,2.652-1.376,5.396-2.902,7.888c-1.162,1.898-2.303,3.802-3.753,5.454
	c-2.352,2.679-5.093,4.866-8.357,6.479c-2.297,1.135-4.619,1.928-7.086,2.557c-3.2,0.817-6.442,0.925-9.603,0.513
	c-2.877-0.376-5.75-1.32-8.435-2.461c-2.183-0.928-4.19-2.384-6.077-3.859c-1.695-1.324-3.11-2.963-4.461-4.701
	c-2.445-3.147-4.025-6.562-5.074-10.395c-0.779-2.846-0.991-5.696-1.001-8.552c-0.072-19.757-0.053-39.514-0.017-59.271
	c0.004-2.208-0.002-4.492,0.535-6.604c0.732-2.878,1.447-5.788,3.052-8.427c1.044-1.715,2.085-3.432,3.408-4.899
	c2.085-2.311,4.355-4.446,7.153-5.959c2.267-1.226,4.544-2.356,7.092-2.877c1.245-0.254,2.467-0.622,3.699-0.938
	C74,0.24,76.48,0.24,78.96,0.24z M93.404,104.799c0.452-0.65,0.848-1.178,1.199-1.734c0.683-1.083,1.439-2.137,1.969-3.293
	c0.295-0.642,0.753-1.404-0.201-2.178c-1.28-1.039-0.53-3.788,1.117-4.185c0.732-0.176,0.903-0.534,0.905-1.119
	c0.013-3.037,0.006-6.074,0.006-9.143c-0.232-0.062-0.419-0.099-0.596-0.162c-1.597-0.569-2.035-1.122-2.042-2.571
	c-0.006-1.31,0.629-2.078,2.069-2.688c0.265-0.112,0.542-0.568,0.546-0.868c0.04-2.997,0.024-5.995,0.024-8.974
	c-1.862-0.774-2.796-1.919-2.634-3.193c0.204-1.609,0.666-2.048,2.595-2.449c0-3.345,0-6.697,0-10.039
	c-1.614-0.355-2.637-1.431-2.599-2.7c0.048-1.603,0.885-2.529,2.599-2.84c0-3.344,0-6.695,0-10.04
	c-1.743-0.422-2.646-1.336-2.591-2.689c0.059-1.449,0.836-2.562,2.606-2.848c0.429-6.958-1.891-12.953-6.331-18.222
	c-1.908,1.098-3.917-0.034-3.983-2.163c-0.015-0.471-0.12-1.151-0.435-1.368c-1.96-1.348-4.103-2.336-6.444-2.845
	c-0.192-0.042-0.442,0.042-0.589-0.052c-1.886-1.205-4.058-0.829-6.051-0.802c-1.617,0.021-3.359-0.097-4.995,0.787
	c-1.558,0.842-3.459,1.039-5.046,1.843c-0.92,0.466-2.369,0.814-2.122,2.517c0.269,1.85-2.352,3.265-3.909,2.195
	c-0.744,0.816-1.548,1.577-2.208,2.448c-1.208,1.595-1.594,3.612-2.667,5.319c-0.742,1.18-1.041,2.724-1.228,4.146
	c-0.271,2.066-0.262,4.169-0.373,6.261c1.572,0.039,2.664,1.229,2.694,2.623c0.012,0.556-0.122,1.27-0.474,1.642
	c-0.548,0.578-1.339,0.926-2.078,1.404c0,3.22,0,6.571,0,9.92c1.526,0.019,2.4,1.2,2.576,2.602c0.16,1.267-0.846,2.397-2.582,2.924
	c0,3.352,0,6.703,0,10.046c1.839,0.234,2.448,0.824,2.585,2.459c0.11,1.321-0.793,2.393-2.637,3.08c0,2.973-0.023,5.971,0.033,8.967
	c0.006,0.32,0.408,0.781,0.735,0.919c1.122,0.473,1.857,1.423,1.871,2.638c0.016,1.412-0.384,1.95-1.807,2.465
	c-0.281,0.102-0.545,0.249-0.832,0.383c0,2.991-0.002,5.95,0.001,8.908c0.001,0.675,0.161,1.058,0.982,1.302
	c1.65,0.49,2.188,3.005,1.032,4.259c-0.282,0.306-0.481,1.013-0.321,1.346c0.929,1.948,1.977,3.839,2.984,5.75
	c0.568-3.319,1.188-3.983,3.643-3.744c1.252,0.122,2.292,1.767,1.952,3.383c-0.127,0.602-0.641,1.415-1.155,1.579
	c-0.987,0.315-2.101,0.235-3.363,0.334c2.269,1.715,4.508,3.406,6.726,5.083c0.748-0.772,0.35-2.037,1.66-2.388
	c1.018-0.272,1.907-0.302,2.811,0.158c1.231,0.626,1.565,2.405,0.711,3.791c3.675,1.251,7.321,1.246,11.006-0.012
	c-0.842-1.414-0.549-3.18,0.663-3.75c0.606-0.285,1.344-0.417,2.018-0.404c1.577,0.03,1.993,1.311,2.368,2.715
	c2.367-1.801,4.581-3.487,6.796-5.172c-2.646,0.326-4.244-0.298-4.519-1.882c-0.342-1.966,0.946-3.283,1.961-3.419
	C92.491,100.726,93.258,101.571,93.404,104.799z"/>
<path fill="#FFFFFF" d="M58.56,150.24c-1.212-0.616-1.748-1.915-1.433-3.478c0.226-1.119,1.248-1.802,2.704-1.802
	c4.236-0.001,8.472,0,12.798,0c0-4.303,0-8.555,0-12.796c-2.124-0.293-4.273-0.499-6.382-0.908c-1.84-0.357-3.712-0.759-5.433-1.471
	c-2.443-1.011-4.896-2.117-7.103-3.554c-3.717-2.421-7.236-5.095-10.091-8.616c-2.009-2.478-3.866-5.007-5.213-7.882
	c-0.967-2.065-1.931-4.158-2.605-6.328c-0.681-2.195-1.031-4.496-1.479-6.76c-1.382-6.992-0.455-14.066-0.722-21.098
	c-0.045-1.189,0.381-2.164,1.54-2.6c1.012-0.381,2.024-0.422,3.025,0.237c0.971,0.64,0.938,1.586,0.942,2.51
	c0.022,5.638-0.143,11.283,0.076,16.913c0.109,2.795,0.74,5.605,1.438,8.33c0.542,2.116,1.403,4.19,2.405,6.137
	c0.891,1.732,2.087,3.331,3.298,4.87c1.466,1.863,3.055,3.634,4.661,5.381c0.743,0.808,1.583,1.567,2.499,2.166
	c2.743,1.794,5.491,3.523,8.63,4.684c3.055,1.13,6.092,1.975,9.329,2.347c3.904,0.45,7.771,0.262,11.55-0.58
	c2.824-0.629,5.572-1.634,8.201-2.986c2.365-1.216,4.491-2.683,6.61-4.265c1.7-1.269,3.151-2.751,4.542-4.276
	c1.283-1.407,2.586-2.857,3.313-4.726c0.344-0.884,1.326-1.515,1.685-2.397c1.035-2.538,1.99-5.118,2.798-7.737
	c0.434-1.407,0.5-2.927,0.737-4.395c1.048-6.507,0.216-13.059,0.474-19.585c0.059-1.497,0.606-2.491,1.65-2.825
	c1.003-0.32,2.954,0.15,3.472,1.001c0.302,0.497,0.383,1.191,0.386,1.798c0.028,5.238,0.033,10.477,0.005,15.715
	c-0.007,1.384-0.033,2.787-0.257,4.148c-0.382,2.317-0.729,4.671-1.451,6.893c-1.074,3.305-2.214,6.611-4.252,9.513
	c-1.093,1.557-1.839,3.395-3.091,4.794c-1.975,2.208-4.193,4.21-6.406,6.19c-1.313,1.175-2.785,2.184-4.241,3.186
	c-1.006,0.692-2.057,1.364-3.176,1.832c-2.424,1.014-4.742,2.301-7.383,2.775c-2.889,0.519-5.758,1.153-8.772,1.765
	c0,3.957,0,8.211,0,12.602c1.038,0,2.065,0,3.092,0c3.279,0,6.559,0.035,9.837-0.018c1.25-0.02,2.168,0.502,2.497,1.599
	c0.33,1.097,0.219,2.296-0.582,3.261c-0.176,0.211-0.505,0.295-0.764,0.437C80.8,150.24,69.68,150.24,58.56,150.24z"/>
<path fill="#FFFFFF" d="M62.4,88.083c0,1.853-0.771,2.635-2.601,2.637c-2.125,0.003-2.679-0.543-2.679-2.639
	c0-1.622,1.012-2.64,2.624-2.641C61.23,85.439,62.4,86.604,62.4,88.083z"/>
<path fill="#FFFFFF" d="M93.36,88.105c-0.002,2.076-0.564,2.62-2.703,2.615c-1.834-0.004-2.579-0.773-2.577-2.661
	c0.001-1.456,1.194-2.621,2.68-2.619C92.372,85.442,93.362,86.457,93.36,88.105z"/>
<path fill="#FFFFFF" d="M67.512,52.08c-1.532-0.019-2.732-1.148-2.711-2.551c0.026-1.73,1.167-2.942,2.78-2.893
	c1.614,0.049,2.726,1.585,2.73,2.965C70.315,50.934,68.971,52.098,67.512,52.08z"/>
<path fill="#FFFFFF" d="M82.943,52.08c-1.454,0.008-2.797-1.176-2.774-2.504c0.025-1.423,1.155-2.903,2.75-2.949
	c1.592-0.046,2.757,1.228,2.76,2.927C85.681,50.953,84.47,52.071,82.943,52.08z"/>
<path fill="#FFFFFF" d="M67.484,36.48c-1.71,0.012-2.756-0.95-2.672-2.56c0.096-1.833,1.25-2.763,2.735-2.87
	c1.26-0.091,2.739,1.487,2.775,2.84C70.36,35.318,69.113,36.469,67.484,36.48z"/>
<path fill="#FFFFFF" d="M83.078,36.48c-1.637,0.01-2.887-1.082-2.923-2.508c-0.032-1.267,1.405-2.955,2.711-2.906
	c1.516,0.057,2.735,1.043,2.801,2.893C85.724,35.533,84.716,36.47,83.078,36.48z"/>
<path fill="#FFFFFF" d="M62.4,57.146c-0.001,1.81-0.815,2.615-2.642,2.614c-1.895,0-2.574-0.768-2.658-2.7
	c-0.075-1.742,1.182-2.58,2.561-2.578C61.35,54.484,62.401,55.512,62.4,57.146z"/>
<path fill="#FFFFFF" d="M67.573,62.226c1.427,0.012,2.744,1.301,2.747,2.69c0.003,1.387-1.504,2.801-2.943,2.763
	c-1.486-0.039-2.636-1.305-2.574-2.832C64.865,63.297,66.01,62.213,67.573,62.226z"/>
<path fill="#FFFFFF" d="M83.068,62.314c1.78,0.146,2.718,1.126,2.61,2.727c-0.112,1.652-1.357,2.79-2.886,2.637
	c-1.381-0.139-2.769-1.699-2.629-2.955C80.326,63.257,81.607,62.195,83.068,62.314z"/>
<path fill="#FFFFFF" d="M70.319,80.512c0.002,1.288-1.441,2.544-2.904,2.528c-1.356-0.015-2.629-1.256-2.613-2.547
	c0.019-1.522,1.288-3.009,2.625-2.954C68.943,77.601,70.231,78.842,70.319,80.512z"/>
<path fill="#FFFFFF" d="M85.679,80.541c-0.018,1.306-1.3,2.51-2.661,2.499c-1.44-0.012-2.919-1.321-2.849-2.576
	c0.097-1.734,1.496-2.913,2.933-2.925C84.447,77.529,85.699,79.052,85.679,80.541z"/>
<path fill="#FFFFFF" d="M70.319,96.091c0.016,1.171-1.488,2.525-2.834,2.549c-1.41,0.025-2.696-1.309-2.677-2.776
	c0.019-1.427,1.234-2.707,2.599-2.739C68.905,93.088,70.297,94.507,70.319,96.091z"/>
<path fill="#FFFFFF" d="M82.98,98.64c-1.341-0.033-2.843-1.399-2.818-2.564c0.034-1.586,1.439-3.003,2.926-2.952
	c1.372,0.048,2.583,1.339,2.585,2.755C85.674,97.361,84.394,98.674,82.98,98.64z"/>
<path fill="#FFFFFF" d="M90.723,59.76c-1.827,0-2.641-0.805-2.642-2.614c-0.001-1.633,1.05-2.667,2.739-2.662
	c1.396,0.004,2.665,0.814,2.562,2.696C93.282,58.989,92.573,59.76,90.723,59.76z"/>
<path fill="#FFFFFF" d="M62.4,41.552c0.275,1.47-1.042,2.663-2.603,2.799c-1.732,0.15-2.682-0.953-2.677-2.908
	c0.004-1.457,1.07-2.552,2.494-2.562C61.14,38.87,62.402,40.08,62.4,41.552z"/>
<path fill="#FFFFFF" d="M88.08,41.526c0-1.443,1.3-2.667,2.812-2.646c1.456,0.02,2.472,1.134,2.468,2.708
	c-0.004,1.77-0.88,2.799-2.585,2.756C89.343,44.308,87.808,43.205,88.08,41.526z"/>
<path fill="#FFFFFF" d="M59.84,70.08c1.616,0.004,2.573,0.981,2.56,2.614c-0.013,1.669-1.055,2.676-2.761,2.666
	c-1.678-0.01-2.518-0.927-2.519-2.751C57.119,70.846,57.948,70.075,59.84,70.08z"/>
<path fill="#FFFFFF" d="M90.749,70.08c1.791,0.002,2.513,0.8,2.639,2.516c0.121,1.639-1.215,2.848-2.657,2.782
	c-1.647-0.076-2.654-1.067-2.651-2.793C88.082,71.003,89.068,70.078,90.749,70.08z"/>
<path fill="#FFFFFF" d="M67.402,21.12c-1.482-0.172-2.57-1.068-2.593-2.787c-0.019-1.438,1.471-2.892,2.788-2.786
	c1.294,0.104,2.719,1.576,2.721,2.812C70.321,19.72,68.832,21.13,67.402,21.12z"/>
<path fill="#FFFFFF" d="M83.075,21.12c-1.428,0.009-2.918-1.404-2.913-2.764c0.004-1.235,1.437-2.715,2.724-2.811
	c1.322-0.099,2.806,1.353,2.786,2.792C85.647,20.055,84.548,20.955,83.075,21.12z"/>
<path fill="#FFFFFF" d="M56.969,26.047c0.156-1.648,1.162-2.748,2.632-2.767c1.485-0.019,2.805,1.312,2.798,2.819
	c-0.007,1.387-1.433,3.037-2.646,2.854c-0.737-0.111-1.555-0.487-2.073-1.007C57.246,27.511,57.192,26.695,56.969,26.047z"/>
<path fill="#FFFFFF" d="M88.08,26.051c-0.001-1.437,1.295-2.755,2.727-2.77c1.539-0.017,2.605,1.084,2.528,2.763
	c-0.03,0.667-0.155,1.504-0.574,1.936c-0.505,0.521-1.357,0.927-2.08,0.966C89.33,29.016,88.081,27.486,88.08,26.051z"/>
<path fill="#FFFFFF" d="M77.76,88.085c0,2.047-0.57,2.638-2.538,2.635c-1.952-0.003-2.504-0.592-2.502-2.672
	c0.002-1.651,0.936-2.61,2.538-2.608C76.834,85.443,77.76,86.422,77.76,88.085z"/>
<path fill="#FFFFFF" d="M72.72,103.71c-0.002-1.862,0.775-2.674,2.553-2.669c1.696,0.004,2.485,0.834,2.487,2.617
	c0.002,1.882-0.752,2.668-2.553,2.663C73.491,106.316,72.722,105.508,72.72,103.71z"/>
<path fill="#FFFFFF" d="M77.76,41.521c0,1.824-0.911,2.864-2.514,2.872c-1.595,0.008-2.525-1.046-2.526-2.861
	c-0.001-1.656,0.942-2.65,2.515-2.652C76.812,38.878,77.76,39.869,77.76,41.521z"/>
<path fill="#FFFFFF" d="M77.76,57.224c-0.006,1.765-0.802,2.546-2.587,2.536c-1.761-0.009-2.448-0.811-2.458-2.79
	c-0.009-1.796,1.091-2.491,2.532-2.489C76.667,54.484,77.889,55.167,77.76,57.224z"/>
<path fill="#FFFFFF" d="M77.909,26.126c-0.215,0.615-0.276,1.379-0.686,1.806c-0.495,0.515-1.255,0.928-1.96,1.055
	c-1.213,0.218-2.546-1.44-2.543-2.971c0.003-1.616,1.008-2.72,2.489-2.735C76.771,23.264,77.765,24.353,77.909,26.126z"/>
<path fill="#FFFFFF" d="M72.72,10.536c-0.09-1.91,1.09-2.613,2.511-2.615c1.432-0.002,2.623,0.687,2.54,2.716
	c-0.057,1.391-1.264,2.785-2.521,2.795C73.964,13.443,72.719,12.017,72.72,10.536z"/>
<path fill="#FFFFFF" d="M77.76,72.659c-0.008,1.786-0.877,2.706-2.55,2.701c-1.679-0.005-2.509-0.965-2.49-2.881
	c0.016-1.64,0.856-2.411,2.61-2.399C76.984,70.092,77.768,70.924,77.76,72.659z"/>
</svg>
