<?xml version="1.0" encoding="utf-8"?>
<!-- Generator: Adobe Illustrator 17.0.0, SVG Export Plug-In . SVG Version: 6.00 Build 0)  -->
<!DOCTYPE svg PUBLIC "-//W3C//DTD SVG 1.1//EN" "http://www.w3.org/Graphics/SVG/1.1/DTD/svg11.dtd">
<svg version="1.1" id="Layer_1" xmlns="http://www.w3.org/2000/svg" xmlns:xlink="http://www.w3.org/1999/xlink" x="0px" y="0px"
	 width="150px" height="150px" viewBox="0 0 150 150" enable-background="new 0 0 150 150" xml:space="preserve">
<path fill="#FFFFFF" d="M81.454,0.293c2.078,0.832,3.949,1.936,4.827,4.134c0.355,0.89,0.506,1.862,0.779,2.907
	c3.452,0,6.91,0,10.368,0c3.865,0.001,5.018,0.867,6.08,4.693c0.474,0,0.995,0,1.516,0c5.468,0,10.936-0.01,16.404,0.003
	c7.547,0.018,12.448,4.921,12.45,12.489c0.008,37.788,0.008,75.576-0.001,113.364c-0.002,7.474-4.927,12.419-12.366,12.422
	c-30.807,0.009-61.613,0.009-92.42,0c-7.38-0.002-12.36-4.926-12.363-12.275c-0.015-37.886-0.014-75.771-0.001-113.657
	C16.73,17,21.676,12.06,29.027,12.032c6.002-0.023,12.005-0.005,18.06-0.005c0.089-0.27,0.179-0.486,0.231-0.711
	c0.621-2.695,2.178-3.961,4.977-3.978c3.271-0.019,6.542-0.005,9.813-0.005c0.48,0,0.959,0,1.433,0
	c0.273-1.045,0.423-2.017,0.779-2.907c0.878-2.198,2.749-3.302,4.827-4.134C73.25,0.293,77.352,0.293,81.454,0.293z M30.592,136.438
	c29.897,0,59.612,0,89.373,0c0-36.902,0-73.72,0-110.625c-6.181,0-12.231-0.017-18.281,0.035c-0.431,0.004-0.938,0.431-1.275,0.788
	c-2.366,2.507-5.228,3.863-8.695,3.864c-10.936,0.004-21.872,0.003-32.808,0.001c-3.467-0.001-6.314-1.366-8.714-3.838
	c-0.44-0.453-1.216-0.808-1.841-0.816c-5.272-0.064-10.545-0.036-15.818-0.036c-0.619,0-1.238,0-1.94,0
	C30.592,62.776,30.592,99.559,30.592,136.438z M103.131,21.415c0.692,0,1.221,0,1.749,0c4.785,0,9.571-0.011,14.357,0.004
	c3.452,0.01,5.25,1.795,5.25,5.245c0.007,36.331,0.006,72.661,0,108.992c-0.001,3.46-1.795,5.264-5.225,5.264
	c-29.299,0.006-58.598,0.006-87.897,0c-3.446-0.001-5.25-1.793-5.251-5.238c-0.007-36.331-0.007-72.662,0-108.992
	c0.001-3.459,1.794-5.259,5.225-5.27c4.834-0.016,9.669-0.004,14.503-0.004c0.521,0,1.041,0,1.639,0
	c-0.127-1.768-0.24-3.343-0.358-4.992c-6.033,0-11.936-0.005-17.839,0.001c-5.234,0.005-8.166,2.932-8.166,8.165
	c-0.003,37.747-0.004,75.494,0.001,113.241c0.001,5.147,2.941,8.076,8.096,8.077c30.715,0.004,61.43,0.003,92.145,0
	c5.172-0.001,8.121-2.918,8.121-8.052c0.005-37.796,0.005-75.591,0-113.387c-0.001-5.057-2.965-8.032-7.993-8.043
	c-5.567-0.012-11.134-0.004-16.7,0c-0.428,0-0.855,0.045-1.335,0.072C103.346,18.122,103.245,19.666,103.131,21.415z M51.799,11.805
	c0,2.767-0.188,5.495,0.047,8.185c0.297,3.4,3.201,6.048,6.616,6.069c11.218,0.069,22.436,0.062,33.654,0.004
	c3.075-0.016,5.945-2.184,6.447-5.199c0.49-2.939,0.372-5.979,0.524-9.059C83.124,11.805,67.49,11.805,51.799,11.805z M82.412,7.278
	c-0.016-1.442-0.747-2.426-2.033-2.474c-3.406-0.128-6.824-0.132-10.228,0.02c-1.242,0.055-2,1.027-1.921,2.454
	C72.999,7.278,77.669,7.278,82.412,7.278z"/>
<path fill="#FFFFFF" d="M58.918,89.443c0.049-0.903,0.037-1.731,0.149-2.542c0.186-1.347,1.033-2.076,2.262-1.986
	c1.267,0.093,1.936,0.834,2.021,2.08c0.05,0.729,0.054,1.465,0.028,2.195c-0.102,2.886-1.775,4.624-4.673,4.752
	c-1.803,0.079-3.612,0.022-5.419,0.023c-2.685,0.001-5.372,0.036-8.056-0.011c-3.186-0.056-4.995-1.863-5.022-5.039
	c-0.038-4.394-0.041-8.789,0.001-13.183c0.03-3.114,1.802-4.929,4.921-4.973c4.394-0.063,8.789-0.017,13.183-0.017
	c1.808,0,3.351,0.579,4.432,2.208c0.578-0.551,1.044-1.036,1.552-1.472c1.036-0.889,2.327-0.891,3.163-0.035
	c0.787,0.806,0.86,2.142-0.03,3.046c-3.868,3.933-7.768,7.836-11.702,11.704c-0.971,0.954-2.155,0.924-3.152-0.019
	c-1.56-1.476-3.085-2.992-4.56-4.552c-0.962-1.018-0.938-2.283-0.081-3.152c0.827-0.84,2.154-0.856,3.157,0.073
	c1,0.927,1.912,1.95,3.065,3.14c1.559-2.244,4.385-3.265,4.973-6.341c-0.561-0.085-0.886-0.177-1.211-0.178
	c-4.004-0.01-8.008-0.03-12.011,0.024c-0.439,0.006-1.248,0.449-1.252,0.7c-0.077,4.48-0.056,8.961-0.056,13.554
	C49.401,89.443,54.062,89.443,58.918,89.443z"/>
<path fill="#FFFFFF" d="M51.834,101.312c2.829,0,5.659-0.018,8.488,0.005c2.19,0.018,3.045,0.829,3.055,2.987
	c0.027,5.707,0.026,11.415,0.001,17.122c-0.01,2.141-0.904,3.045-3.027,3.055c-5.707,0.026-11.415,0.027-17.122-0.001
	c-2.032-0.01-3.002-0.939-3.016-2.952c-0.04-5.756-0.038-11.513-0.001-17.269c0.013-2.035,0.952-2.92,2.988-2.94
	C46.078,101.292,48.956,101.313,51.834,101.312z M44.677,105.774c0,4.84,0,9.496,0,14.229c4.779,0,9.473,0,14.205,0
	c0-4.788,0-9.482,0-14.229C54.111,105.774,49.451,105.774,44.677,105.774z"/>
<path fill="#FFFFFF" d="M63.387,51.924c0,2.781,0.019,5.561-0.006,8.342C63.36,62.547,62.56,63.37,60.3,63.38
	c-5.659,0.023-11.317,0.023-16.976,0c-2.212-0.009-3.108-0.9-3.118-3.116c-0.025-5.61-0.022-11.22-0.002-16.83
	c0.008-2.284,0.929-3.219,3.194-3.228c5.61-0.023,11.22-0.023,16.83,0c2.297,0.01,3.137,0.889,3.154,3.23
	C63.404,46.265,63.388,49.094,63.387,51.924z M58.895,58.91c0-4.842,0-9.499,0-14.209c-4.788,0-9.479,0-14.18,0
	c0,4.798,0,9.487,0,14.209C49.495,58.91,54.151,58.91,58.895,58.91z"/>
<path fill="#FFFFFF" d="M88.253,115.401c5.662,0,11.325-0.047,16.985,0.051c0.841,0.015,1.914,0.509,2.448,1.145
	c0.819,0.974,0.159,2.529-1.082,2.963c-0.537,0.188-1.147,0.227-1.724,0.227c-11.129,0.012-22.258,0.009-33.387,0.009
	c-0.195,0-0.391,0.008-0.586-0.005c-1.594-0.105-2.503-0.972-2.441-2.32c0.06-1.296,0.931-2.056,2.506-2.062
	c5.418-0.02,10.836-0.009,16.254-0.009C87.57,115.401,87.912,115.401,88.253,115.401z"/>
<path fill="#FFFFFF" d="M88.298,84.856c5.418,0,10.835-0.003,16.253,0.004c0.584,0.001,1.178,0.002,1.749,0.106
	c1.13,0.206,1.82,1.064,1.632,2.07c-0.141,0.756-0.881,1.501-1.537,2.021c-0.383,0.304-1.125,0.202-1.705,0.203
	c-10.982,0.01-21.963,0.009-32.945,0c-0.581,0-1.18-0.029-1.738-0.172c-1.1-0.283-1.589-1.09-1.526-2.19
	c0.06-1.042,0.624-1.742,1.67-1.933c0.571-0.104,1.165-0.103,1.749-0.104C77.365,84.853,82.832,84.856,88.298,84.856z"/>
<path fill="#FFFFFF" d="M88.205,56.344c-5.467,0-10.933,0.003-16.4-0.004c-0.584-0.001-1.311,0.145-1.719-0.14
	c-0.648-0.452-1.323-1.133-1.549-1.855c-0.302-0.967,0.283-1.828,1.281-2.163c0.585-0.196,1.245-0.235,1.871-0.236
	c11.031-0.013,22.062-0.013,33.092,0c0.626,0.001,1.427-0.067,1.837,0.271c0.607,0.501,1.345,1.383,1.276,2.021
	c-0.078,0.718-0.899,1.468-1.574,1.965c-0.394,0.29-1.133,0.136-1.717,0.136C99.138,56.347,93.671,56.344,88.205,56.344z"/>
<path fill="#FFFFFF" d="M82.323,75.447c3.705,0,7.413-0.059,11.115,0.046c0.824,0.023,1.861,0.417,2.397,1.007
	c0.989,1.087,0.259,2.845-1.193,3.205c-0.559,0.139-1.159,0.149-1.74,0.15c-7.021,0.009-14.042,0.006-21.063,0.006
	c-0.146,0-0.293,0.002-0.439-0.001c-1.992-0.04-2.966-0.789-2.936-2.259c0.029-1.41,0.968-2.138,2.888-2.149
	C75.01,75.433,78.667,75.447,82.323,75.447z"/>
<path fill="#FFFFFF" d="M75.238,110.402c-1.416-0.001-2.833,0.037-4.247-0.01c-1.629-0.054-2.542-0.899-2.527-2.234
	c0.015-1.353,0.907-2.126,2.579-2.14c2.831-0.025,5.663-0.024,8.495-0.001c1.682,0.014,2.571,0.77,2.599,2.12
	c0.028,1.382-0.922,2.217-2.651,2.26C78.07,110.431,76.654,110.403,75.238,110.402z"/>
<path fill="#FFFFFF" d="M74.063,46.922c-1.171,0-2.344,0.043-3.513-0.012c-1.253-0.058-1.996-0.767-2.068-2.025
	c-0.072-1.264,0.612-2.164,1.836-2.222c2.528-0.12,5.068-0.12,7.596-0.006c1.221,0.055,1.892,0.942,1.865,2.209
	c-0.026,1.212-0.841,1.954-2.203,2.065c-0.097,0.008-0.195,0.012-0.292,0.012c-1.074,0.001-2.148,0.001-3.221,0.001
	C74.063,46.937,74.063,46.93,74.063,46.922z"/>
</svg>
