<?xml version="1.0" encoding="utf-8"?>
<!-- Generator: Adobe Illustrator 17.0.0, SVG Export Plug-In . SVG Version: 6.00 Build 0)  -->
<!DOCTYPE svg PUBLIC "-//W3C//DTD SVG 1.1//EN" "http://www.w3.org/Graphics/SVG/1.1/DTD/svg11.dtd">
<svg version="1.1" id="Layer_1" xmlns="http://www.w3.org/2000/svg" xmlns:xlink="http://www.w3.org/1999/xlink" x="0px" y="0px"
	 width="150px" height="150px" viewBox="0 0 150 150" enable-background="new 0 0 150 150" xml:space="preserve">
<g>
	<path fill="#FFFFFF" d="M86.728,0.293c1.854,0.923,3.256,2.146,3.006,4.483c-0.178,1.658-1.061,2.753-2.567,3.445
		c-0.489,0.225-1.021,0.609-1.27,1.065c-5.427,9.925-10.816,19.87-16.211,29.812c-0.088,0.163-0.153,0.339-0.336,0.754
		c0.698,0,1.251,0,1.805,0c22.944,0,45.887-0.001,68.831,0c6.692,0,10.324,3.623,10.324,10.299c0.001,29.973,0.001,59.946,0,89.92
		c0,6.586-3.65,10.238-10.232,10.238c-42.812,0.001-85.624,0.001-128.436,0.001c-6.798,0-8.912-1.42-11.348-7.618
		c0-31.742,0-63.483,0-95.225c2.437-6.189,4.563-7.614,11.359-7.614c11.426,0,22.852,0,34.278,0c0.518,0,1.036,0,1.67,0
		c-0.11-0.344-0.141-0.535-0.228-0.696C41.947,29.171,36.525,19.185,31.063,9.22c-0.245-0.447-0.81-0.785-1.299-1.021
		c-1.49-0.72-2.363-1.848-2.518-3.498c-0.212-2.253,1.19-3.448,2.934-4.409c0.684,0,1.367,0,2.051,0
		c2.791,1.394,3.321,2.397,2.98,5.402c-0.05,0.437,0.127,0.957,0.345,1.359c5.758,10.626,11.542,21.237,17.296,31.865
		c0.372,0.687,0.772,0.971,1.578,0.954c2.682-0.057,5.367-0.053,8.05-0.003c0.838,0.016,1.298-0.241,1.708-0.999
		C69.91,28.28,75.671,17.712,81.406,7.13c0.22-0.405,0.477-0.944,0.383-1.341c-0.643-2.706,0.535-4.395,2.888-5.496
		C85.361,0.293,86.045,0.293,86.728,0.293z M75.3,44.814c-21.632,0-43.264-0.001-64.897,0.001c-3.701,0-5.148,1.437-5.149,5.112
		c-0.001,30.08-0.001,60.16,0,90.24c0,3.776,1.417,5.18,5.225,5.18c43.216,0.001,86.431,0.001,129.647,0
		c3.806,0,5.222-1.405,5.222-5.183c0.001-30.031,0.001-60.062,0-90.093c0-3.875-1.393-5.257-5.298-5.257
		C118.467,44.814,96.884,44.814,75.3,44.814z"/>
	<path fill="#FFFFFF" d="M60.119,53.033c8.956,0.099,17.441,0.868,25.715,3.251c4.049,1.166,7.947,2.712,11.397,5.181
		c4.466,3.196,6.504,7.952,7.893,12.996c2.372,8.617,2.712,17.416,1.939,26.282c-0.085,0.972-0.1,1.957-0.281,2.911
		c-0.265,1.391-1.325,2.202-2.572,2.111c-1.315-0.097-2.287-1.125-2.239-2.588c0.064-1.95,0.309-3.893,0.395-5.842
		c0.355-8.046-0.332-15.943-2.729-23.709c-1.871-6.06-6.035-9.43-11.715-11.463c-5.925-2.121-12.054-3.227-18.292-3.762
		c-9.831-0.842-19.62-0.499-29.268,1.68c-3.168,0.715-6.248,1.861-9.323,2.938c-5.687,1.992-8.63,6.394-10.219,11.93
		c-2.544,8.863-2.816,17.883-1.881,26.99c0.53,5.165,1.635,10.181,3.431,15.071c1.877,5.113,5.407,8.426,10.362,10.459
		c6.254,2.565,12.801,3.764,19.485,4.335c9.348,0.798,18.63,0.342,27.799-1.736c4.055-0.919,7.965-2.253,11.599-4.338
		c3.934-2.258,5.971-5.895,7.437-9.972c0.395-1.1,0.69-2.239,1.132-3.319c0.566-1.383,1.812-1.962,3.055-1.53
		c1.263,0.439,1.947,1.674,1.584,3.065c-2.29,8.761-6.913,15.383-15.911,18.555c-10.969,3.867-22.233,4.943-33.728,4.425
		c-6.499-0.293-12.956-1.105-19.154-3.133c-3.358-1.099-6.677-2.5-9.758-4.223c-5.63-3.15-8.141-8.656-9.807-14.537
		c-3.296-11.638-3.927-23.476-1.76-35.366c0.7-3.844,2.012-7.631,3.478-11.27c2.281-5.662,7.121-8.601,12.562-10.665
		C40.331,54.12,50.358,53.185,60.119,53.033z"/>
	<path fill="#FFFFFF" d="M126.373,74.442c-5.899-0.017-10.696-4.858-10.653-10.751c0.042-5.816,4.838-10.61,10.647-10.644
		c5.815-0.033,10.746,4.878,10.75,10.709C137.12,69.616,132.251,74.459,126.373,74.442z M126.402,69.49
		c3.196,0.003,5.768-2.574,5.752-5.763c-0.016-3.121-2.551-5.677-5.668-5.714c-3.195-0.038-5.792,2.51-5.812,5.703
		C120.654,66.928,123.192,69.487,126.402,69.49z"/>
	<path fill="#FFFFFF" d="M126.359,100.818c-5.9-0.025-10.688-4.871-10.638-10.765c0.049-5.82,4.85-10.607,10.661-10.629
		c5.822-0.022,10.744,4.895,10.734,10.724C137.106,96.014,132.238,100.843,126.359,100.818z M126.472,95.867
		c3.192-0.029,5.726-2.632,5.68-5.833c-0.045-3.112-2.617-5.647-5.735-5.652c-3.184-0.005-5.75,2.579-5.74,5.78
		C120.687,93.368,123.256,95.897,126.472,95.867z"/>
	<path fill="#FFFFFF" d="M126.381,127.201c-2.585,0-5.169,0.018-7.754-0.005c-1.817-0.016-2.868-0.912-2.896-2.394
		c-0.028-1.459,1.032-2.508,2.8-2.524c5.266-0.045,10.534-0.047,15.8,0.003c1.744,0.016,2.833,1.131,2.766,2.57
		c-0.066,1.414-1.119,2.325-2.816,2.343C131.648,127.221,129.015,127.201,126.381,127.201z"/>
	<path fill="#FFFFFF" d="M126.362,137.123c-2.536,0-5.071,0.014-7.607-0.005c-1.892-0.014-3.007-0.934-3.026-2.441
		c-0.019-1.511,1.1-2.498,2.968-2.507c5.12-0.022,10.24-0.02,15.36-0.002c1.868,0.007,3.028,0.974,3.048,2.451
		c0.021,1.529-1.167,2.49-3.136,2.5C131.433,137.133,128.897,137.123,126.362,137.123z"/>
	<path fill="#FFFFFF" d="M126.385,117.317c-2.681,0-5.365,0.058-8.044-0.019c-1.921-0.055-3.076-1.642-2.474-3.243
		c0.404-1.073,1.234-1.618,2.371-1.621c5.46-0.01,10.921-0.031,16.38,0.017c1.479,0.013,2.449,1.05,2.481,2.362
		c0.033,1.356-0.965,2.434-2.525,2.474c-2.728,0.071-5.46,0.02-8.19,0.02C126.385,117.311,126.385,117.314,126.385,117.317z"/>
</g>
</svg>
