<?xml version="1.0" encoding="utf-8"?>
<!-- Generator: Adobe Illustrator 17.0.0, SVG Export Plug-In . SVG Version: 6.00 Build 0)  -->
<!DOCTYPE svg PUBLIC "-//W3C//DTD SVG 1.1//EN" "http://www.w3.org/Graphics/SVG/1.1/DTD/svg11.dtd">
<svg version="1.1" id="Layer_1" xmlns="http://www.w3.org/2000/svg" xmlns:xlink="http://www.w3.org/1999/xlink" x="0px" y="0px"
	 width="250px" height="250px" viewBox="0 0 250 250" enable-background="new 0 0 250 250" xml:space="preserve">
<path opacity="0.8" fill="#906094" d="M125.161,21.467c-59.758,0-108.201,48.443-108.201,108.201S65.403,237.87,125.161,237.87
	c59.758,0,108.202-48.443,108.202-108.201S184.919,21.467,125.161,21.467z M125.161,225.168c-52.743,0-95.499-42.756-95.499-95.499
	S72.418,34.17,125.161,34.17c52.743,0,95.499,42.756,95.499,95.499S177.904,225.168,125.161,225.168z"/>
<g>
	<path fill="#463836" d="M148.512,125.57c-4.989-0.672-9.926-2.369-14.495-5.168c-5.242-3.213-9.415-7.511-12.402-12.423
		c-0.005-0.008-0.01-0.017-0.015-0.024c-0.428,1.655-0.597,3.346-0.518,5.015c0.002,0.047,0.003,0.096,0.008,0.144
		c0.146,2.658,0.915,5.259,2.249,7.578c-0.002,0.004-0.005,0.007-0.008,0.011c-0.021,0.031-0.048,0.057-0.068,0.09l-1.241,2.382
		l-3.214-1.969l-10.419,17l4.402,2.697l-8.628,16.571c-1.527,2.492-1.001,5.594,1.163,6.979l0.344,0.194
		c2.192,1.128,5.058,0.173,6.539-2.242l10.877-15.194l1.612,0.839l1.774-2.957l0.584,0.35l-1.777,2.963l3.923,2.479l10.402-16.973
		l-4.128-2.592l-3.909,6.515l-0.584-0.35l3.903-6.506l-0.147-0.05l1.328-1.854l0.013-0.017c2.965,0.345,5.96-0.092,8.677-1.25
		c0.108-0.047,0.217-0.094,0.324-0.143c0.061-0.029,0.122-0.057,0.182-0.085c1.153-0.537,2.251-1.207,3.269-2.005
		C148.524,125.573,148.519,125.572,148.512,125.57z M119.147,139.821c-3.398-0.915-5.28-4.538-4.203-8.093
		c1.075-3.554,4.702-5.694,8.101-4.779l-0.004,0.015c0.318,0.196,0.44,0.66,0.285,1.116c-0.145,0.424-0.493,0.726-0.851,0.75
		l-0.009,0.025c-2.393-0.644-4.948,0.861-5.706,3.363c-0.758,2.502,0.56,5.053,2.953,5.697c2.152,0.579,4.422-0.584,5.41-2.647
		l-4.344-1.14l-1.093-1.109l1.421-0.421l4.039,1.158l0.001-0.007l2.064,0.51c-0.047,0.259,0.112,0.529,0.036,0.783
		C126.171,138.595,122.545,140.736,119.147,139.821z"/>
	<path fill="#F14742" d="M154.71,115.5c-5.252-0.519-10.469-2.203-15.275-5.149c-4.924-3.017-8.869-7.029-11.734-11.611
		c5.414-4.163,13.053-4.794,19.221-1.013C153.154,101.546,156.049,108.729,154.71,115.5z"/>
	<path fill="#F14742" d="M152.528,121.083c-0.759,1.239-1.651,2.345-2.65,3.312c-5.215-0.532-10.398-2.211-15.166-5.134
		c-5.422-3.323-9.656-7.851-12.567-13.021c0.371-0.99,0.845-1.969,1.42-2.907c0.874-1.427,1.92-2.675,3.101-3.736
		c2.957,4.697,7.016,8.8,12.068,11.897c4.924,3.018,10.273,4.762,15.662,5.312C153.99,118.276,153.366,119.715,152.528,121.083z"/>
	<path fill="#F14742" d="M148.509,125.569c-1,0.787-2.09,1.462-3.249,2.008c-0.06,0.028-0.121,0.055-0.182,0.085
		c-0.107,0.048-0.216,0.096-0.324,0.143c-2.49,1.076-5.276,1.569-8.17,1.321c-0.175-0.015-0.348-0.033-0.521-0.053
		c-5.517-0.64-10.137-3.877-12.736-8.371c-1.31-2.267-2.106-4.853-2.241-7.589c-0.005-0.048-0.006-0.096-0.008-0.144
		c-0.029-0.712-0.015-1.432,0.048-2.161c0.083-0.972,0.247-1.918,0.485-2.83c2.986,4.913,7.16,9.21,12.402,12.423
		C138.584,123.2,143.521,124.897,148.509,125.569z"/>
	<path fill="#141413" d="M138.564,184.252c-0.027-0.341-0.043-0.855-0.112-1.518c-0.051-0.66-0.177-1.475-0.409-2.399
		c-0.277-0.912-0.674-1.952-1.424-2.908c-0.766-0.934-1.819-1.747-3.061-2.279c-0.304-0.143-0.635-0.22-0.957-0.334
		c-0.326-0.099-0.651-0.232-0.995-0.274c-0.68-0.111-1.372-0.291-2.082-0.303c-0.71-0.045-1.428-0.119-2.159-0.07
		c-0.727,0.032-1.482,0.009-2.193,0.111c-0.728,0.079-1.461,0.158-2.198,0.238c-0.723,0.086-1.449,0.195-2.177,0.261
		c-1.456,0.13-2.918,0.24-4.352,0.198c-1.433-0.023-2.846-0.133-4.17-0.427c-1.325-0.282-2.571-0.722-3.616-1.365
		c-1.046-0.636-1.881-1.48-2.393-2.417c-0.521-0.929-0.777-1.901-0.862-2.771c-0.086-0.873-0.035-1.647,0.049-2.274
		c0.052-0.393,0.118-0.722,0.182-0.998l0.02-0.086l-0.334-0.188c-0.077,0.299-0.185,0.773-0.256,1.216
		c-0.1,0.65-0.17,1.451-0.097,2.371c0.069,0.917,0.317,1.959,0.86,2.974c0.531,1.021,1.419,1.956,2.524,2.658
		c1.104,0.711,2.407,1.199,3.779,1.52c1.374,0.334,2.825,0.476,4.293,0.531c1.472,0.07,2.961-0.01,4.446-0.112
		c0.743-0.054,1.481-0.149,2.218-0.221c0.727-0.064,1.452-0.128,2.17-0.189c0.73-0.091,1.422-0.046,2.119-0.065
		c0.695-0.033,1.378,0.054,2.048,0.108c0.679,0.024,1.308,0.209,1.94,0.322c0.321,0.045,0.608,0.174,0.901,0.269
		c0.287,0.109,0.59,0.182,0.854,0.315c1.086,0.496,1.952,1.204,2.578,1.992c0.609,0.809,0.932,1.704,1.159,2.51
		c0.187,0.826,0.292,1.566,0.327,2.194c0.052,0.624,0.058,1.127,0.077,1.476c0.014,0.349,0.023,0.536,0.023,0.536l1.312-0.079
		C138.597,184.776,138.585,184.593,138.564,184.252z"/>
	<polygon fill="#FEE191" points="118.805,121.204 108.386,138.204 124.694,148.048 134.883,130.976 	"/>
	<polygon fill="#FEE191" points="130.995,137.491 134.883,130.976 130.98,137.482 	"/>
	<polygon fill="#FEE191" points="134.883,130.976 134.756,130.898 134.736,130.926 	"/>
	<path fill="#F9BB32" d="M123.323,128.079c0.155-0.456,0.033-0.92-0.285-1.116l0.004-0.015c-3.398-0.915-7.026,1.226-8.101,4.779
		c-1.077,3.555,0.805,7.178,4.203,8.093c3.398,0.915,7.024-1.226,8.1-4.779c0.076-0.254-0.083-0.524-0.036-0.783l-2.064-0.51
		l-0.001,0.007l-4.039-1.158l-1.421,0.421l1.093,1.109l4.344,1.14c-0.988,2.063-3.258,3.227-5.41,2.647
		c-2.393-0.644-3.711-3.195-2.953-5.697c0.758-2.502,3.313-4.007,5.706-3.363l0.009-0.025
		C122.83,128.805,123.178,128.503,123.323,128.079z"/>
	<polygon fill="#FEE191" points="122.019,123.173 122.025,123.161 118.805,121.204 	"/>
	<polygon fill="#FFD24D" points="134.883,130.976 139.602,133.911 129.2,150.884 124.694,148.048 	"/>
</g>
</svg>
