<?xml version="1.0" encoding="utf-8"?>
<!-- Generator: Adobe Illustrator 17.0.0, SVG Export Plug-In . SVG Version: 6.00 Build 0)  -->
<!DOCTYPE svg PUBLIC "-//W3C//DTD SVG 1.1//EN" "http://www.w3.org/Graphics/SVG/1.1/DTD/svg11.dtd">
<svg version="1.1" id="Layer_1" xmlns="http://www.w3.org/2000/svg" xmlns:xlink="http://www.w3.org/1999/xlink" x="0px" y="0px"
	 width="250px" height="250px" viewBox="0 0 250 250" enable-background="new 0 0 250 250" xml:space="preserve">
<path opacity="0.8" fill="#906094" d="M125.699,21.467c-59.758,0-108.201,48.443-108.201,108.201S65.941,237.87,125.699,237.87
	c59.758,0,108.202-48.443,108.202-108.201S185.457,21.467,125.699,21.467z M125.699,224.45c-52.346,0-94.781-42.435-94.781-94.781
	s42.435-94.781,94.781-94.781c52.346,0,94.782,42.435,94.782,94.781S178.045,224.45,125.699,224.45z"/>
<g>
	<path fill="#F4F4F4" d="M99.875,95.42c0,0,33.727-14.645,49.259,4.66l-2.885,69.895c0,0-16.863,12.869-33.505,0l0.666-16.613
		c0,0-6.879-1.653-8.654,3.042L99.875,95.42z"/>
	<path fill="#D8D7D6" d="M97.348,94.188l6.2,63.508c0,0,2.694-2.346,6.99-2.675l0.588,15.463c0,0,18.45,16.555,36.533,1.227
		l3.391-73.561C151.05,98.15,135.065,77.052,97.348,94.188z M144.193,168.848c0,0-10.872,10.936-28.632-0.818l-2.454-62.13
		c0,0,20.064,8.783,33.067,2.153L144.193,168.848z M126.737,105.811c-4.092-0.671-8.412-1.932-12.581-3.948
		c0,0,3.471-3.666,12.642-2.355L126.737,105.811z M147.379,101.861c-0.752,2.961-7.639,5.054-16.362,4.45l0.818-9.411
		c0,0-12.658-5.77-23.423,2.282l2.056,52.071c-1.679-0.226-3.224-0.108-4.634,1.163l-4.182-55.645c0,0,25.059-9.989,43.045,1.001
		C145.354,98.174,147.825,100.107,147.379,101.861z"/>
	<path fill="#D3D3D3" d="M115.464,124.306l0.178,2.858c0,0,15.384,6.95,28.478,2.258l0.106-3.248
		C144.225,126.174,134.557,132.181,115.464,124.306z"/>
	<path fill="#D3D3D3" d="M115.464,131.54l0.178,2.858c0,0,15.384,6.95,28.478,2.258l0.106-3.248
		C144.225,133.408,134.557,139.414,115.464,131.54z"/>
	<path fill="#D3D3D3" d="M115.464,138.773l0.178,2.858c0,0,15.384,6.95,28.478,2.258l0.106-3.248
		C144.225,140.641,134.557,146.648,115.464,138.773z"/>
	<path fill="#D3D3D3" d="M116.454,145.98l0.165,2.661c0,0,14.325,6.472,26.518,2.103l0.099-3.025
		C143.235,147.72,134.233,153.313,116.454,145.98z"/>
	<path d="M144.168,113.948"/>
	<path fill="#FF7058" d="M129.118,156.521l-0.321,9.863c4.693,0.574,10.043,0.486,15.059-1.311l0.111-10.482
		C143.967,154.591,138.987,157.684,129.118,156.521z"/>
	<path fill="#84DBFF" d="M128.867,113.573c-3.777-0.493-8.246-1.606-13.403-3.734l0.178,10.091c0,0,5.56,2.512,12.839,3.496
		L128.867,113.573z"/>
	<path fill="#D3D3D3" d="M128.334,156.882c-3.519-0.511-7.637-1.576-12.353-3.521l0.171,2.755c0,0,5.21,2.353,12.081,3.329
		L128.334,156.882z"/>
	<path fill="#D3D3D3" d="M129.879,114.328l-0.084,2.564c4.602,0.598,9.893,0.551,14.844-1.224l0.102-3.131
		C144.742,112.537,139.756,115.632,129.879,114.328z"/>
	<path fill="#D3D3D3" d="M128.052,164.063c-3.372-0.517-7.296-1.553-11.768-3.398l0.168,2.695c0,0,4.937,2.23,11.502,3.21
		L128.052,164.063z"/>
	<path fill="#D3D3D3" d="M129.903,121.519l-0.082,2.508c4.561,0.62,9.841,0.606,14.776-1.162l0.1-3.063
		C144.697,119.802,139.734,122.883,129.903,121.519z"/>
</g>
</svg>
