<?xml version="1.0" encoding="utf-8"?>
<!-- Generator: Adobe Illustrator 17.0.0, SVG Export Plug-In . SVG Version: 6.00 Build 0)  -->
<!DOCTYPE svg PUBLIC "-//W3C//DTD SVG 1.1//EN" "http://www.w3.org/Graphics/SVG/1.1/DTD/svg11.dtd">
<svg version="1.1" xmlns="http://www.w3.org/2000/svg" xmlns:xlink="http://www.w3.org/1999/xlink" x="0px" y="0px" width="1024px"
	 height="768px" viewBox="0 0 1024 768" enable-background="new 0 0 1024 768" xml:space="preserve">
<g id="journal">
</g>
<g id="interview">
</g>
<g id="logo">
</g>
<g id="g_tv">
	<rect x="685" y="528" fill="#B6AB91" width="105" height="118"/>
	<rect x="679" y="275" fill="#AFB6BB" width="107" height="206"/>
	<path fill="#CFC6A8" d="M763.416,213h-228.88c0,0,0.011,0.017,0.011-0.053c0-6.148-2.868-11.562-7.365-15.187l55.228-100.375
		c5.8-0.901,10.239-5.785,10.239-11.717c0-6.571-5.441-11.888-12.153-11.888s-12.153,5.332-12.153,11.903
		c0,2.091,0.555,4.055,1.522,5.762l-55.729,101.327L457.113,89.096c0.832-1.611,1.311-3.426,1.311-5.354
		c0-6.571-5.441-11.898-12.152-11.898c-6.712,0-12.153,5.327-12.153,11.898c0,6.093,4.68,11.108,10.711,11.807l56.403,102.551
		c-4.32,3.625-7.067,8.84-7.067,14.847c0,0.071,0.01,0.053,0.01,0.053H264.084C240.013,213,220,232.826,220,256.897v407.903
		C220,688.872,240.013,708,264.084,708h499.331C787.487,708,807,688.872,807,664.801V256.897C807,232.826,787.487,213,763.416,213z
		 M730.438,297.462c20.067,0,36.591,15.538,38.795,34.538H738v11h30.932c-3.122,19-19.163,32.57-38.494,32.57
		c-21.568,0-39.054-17.485-39.054-39.054C691.384,314.947,708.869,297.462,730.438,297.462z M659,646H269V490.761
		c-2-24.512-2-49.094,0-73.7V275h390V646z M730.438,391.72c21.569,0,39.054,17.485,39.054,39.054
		c0,19.68-14.558,35.952-33.491,38.653V441h-11v28.443c-18.993-2.647-33.616-18.946-33.616-38.669
		C691.384,409.205,708.869,391.72,730.438,391.72z M786,613.109c0,4.911-3.981,8.891-8.892,8.891h-73.217
		c-4.911,0-8.892-3.981-8.892-8.891v-1.217c0-4.911,3.981-8.891,8.892-8.891h73.217c4.911,0,8.892,3.981,8.892,8.891V613.109z
		 M786,580.109c0,4.911-3.981,8.891-8.892,8.891h-73.217c-4.911,0-8.892-3.981-8.892-8.891v-1.217c0-4.911,3.981-8.891,8.892-8.891
		h73.217c4.911,0,8.892,3.981,8.892,8.891V580.109z M786,547.109c0,4.911-3.981,8.891-8.892,8.891h-73.217
		c-4.911,0-8.892-3.981-8.892-8.891v-1.217c0-4.911,3.981-8.891,8.892-8.891h73.217c4.911,0,8.892,3.981,8.892,8.891V547.109z"/>
	<circle fill="#BAB195" cx="446" cy="83.5" r="12.334"/>
	<circle fill="#BAB195" cx="580" cy="85.5" r="12.334"/>
	<rect x="269.143" y="275.386" fill="#283238" width="389.714" height="370.229"/>
	<g>
		<path fill="#546A79" d="M768.688,344.563L735,345v-14h35L768.688,344.563z M738,342l29.375,0.438l0.438-8.875L738,334V342z"/>
	</g>
	<g>
		<path fill="#7A8389" d="M730.5,376.667c-22.424,0-40.667-18.243-40.667-40.667s18.243-40.667,40.667-40.667
			s40.667,18.243,40.667,40.667S752.924,376.667,730.5,376.667z M730.5,299.333c-20.218,0-36.667,16.449-36.667,36.667
			s16.449,36.667,36.667,36.667s36.667-16.449,36.667-36.667S750.718,299.333,730.5,299.333z"/>
	</g>
	<g>
		<path fill="#546A79" d="M722.688,469.577L722.5,438H736v32.5L722.688,469.577z M725.5,441l-0.438,27.414l8.875,0.614L733.5,441
			H725.5z"/>
	</g>
	<g>
		<path fill="#7A8389" d="M689.833,431c0-22.424,18.243-40.667,40.667-40.667s40.667,18.243,40.667,40.667
			s-18.243,40.667-40.667,40.667S689.833,453.424,689.833,431z M767.167,431c0-20.218-16.449-36.667-36.667-36.667
			S693.833,410.782,693.833,431s16.449,36.667,36.667,36.667S767.167,451.218,767.167,431z"/>
	</g>
</g>
<g id="survey">
</g>
<g id="magzine">
</g>
<g id="journal_c">
</g>
</svg>
