<?xml version="1.0" encoding="utf-8"?>
<!-- Generator: Adobe Illustrator 17.0.0, SVG Export Plug-In . SVG Version: 6.00 Build 0)  -->
<svg version="1.2" baseProfile="tiny" id="Layer_1" xmlns="http://www.w3.org/2000/svg" xmlns:xlink="http://www.w3.org/1999/xlink"
	 x="0px" y="0px" width="1024px" height="768px" viewBox="0 0 1024 768" xml:space="preserve">
<metadata><?xpacket begin="﻿" id="W5M0MpCehiHzreSzNTczkc9d"?>
<x:xmpmeta xmlns:x="adobe:ns:meta/" x:xmptk="Adobe XMP Core 5.5-c014 79.151739, 2013/04/03-12:12:15        ">
   <rdf:RDF xmlns:rdf="http://www.w3.org/1999/02/22-rdf-syntax-ns#">
      <rdf:Description rdf:about=""
            xmlns:xmp="http://ns.adobe.com/xap/1.0/"
            xmlns:xmpGImg="http://ns.adobe.com/xap/1.0/g/img/"
            xmlns:xmpTPg="http://ns.adobe.com/xap/1.0/t/pg/"
            xmlns:stDim="http://ns.adobe.com/xap/1.0/sType/Dimensions#"
            xmlns:xmpG="http://ns.adobe.com/xap/1.0/g/"
            xmlns:dc="http://purl.org/dc/elements/1.1/">
         <xmp:CreatorTool>Adobe Illustrator CC (Windows)</xmp:CreatorTool>
         <xmp:CreateDate>2017-09-13T20:13:10+05:30</xmp:CreateDate>
         <xmp:Thumbnails>
            <rdf:Alt>
               <rdf:li rdf:parseType="Resource">
                  <xmpGImg:width>148</xmpGImg:width>
                  <xmpGImg:height>256</xmpGImg:height>
                  <xmpGImg:format>JPEG</xmpGImg:format>
                  <xmpGImg:image>/9j/4AAQSkZJRgABAgEASABIAAD/7QAsUGhvdG9zaG9wIDMuMAA4QklNA+0AAAAAABAASAAAAAEA&#xA;AQBIAAAAAQAB/+4ADkFkb2JlAGTAAAAAAf/bAIQABgQEBAUEBgUFBgkGBQYJCwgGBggLDAoKCwoK&#xA;DBAMDAwMDAwQDA4PEA8ODBMTFBQTExwbGxscHx8fHx8fHx8fHwEHBwcNDA0YEBAYGhURFRofHx8f&#xA;Hx8fHx8fHx8fHx8fHx8fHx8fHx8fHx8fHx8fHx8fHx8fHx8fHx8fHx8fHx8f/8AAEQgBAACUAwER&#xA;AAIRAQMRAf/EAaIAAAAHAQEBAQEAAAAAAAAAAAQFAwIGAQAHCAkKCwEAAgIDAQEBAQEAAAAAAAAA&#xA;AQACAwQFBgcICQoLEAACAQMDAgQCBgcDBAIGAnMBAgMRBAAFIRIxQVEGE2EicYEUMpGhBxWxQiPB&#xA;UtHhMxZi8CRygvElQzRTkqKyY3PCNUQnk6OzNhdUZHTD0uIIJoMJChgZhJRFRqS0VtNVKBry4/PE&#xA;1OT0ZXWFlaW1xdXl9WZ2hpamtsbW5vY3R1dnd4eXp7fH1+f3OEhYaHiImKi4yNjo+Ck5SVlpeYmZ&#xA;qbnJ2en5KjpKWmp6ipqqusra6voRAAICAQIDBQUEBQYECAMDbQEAAhEDBCESMUEFURNhIgZxgZEy&#xA;obHwFMHR4SNCFVJicvEzJDRDghaSUyWiY7LCB3PSNeJEgxdUkwgJChgZJjZFGidkdFU38qOzwygp&#xA;0+PzhJSktMTU5PRldYWVpbXF1eX1RlZmdoaWprbG1ub2R1dnd4eXp7fH1+f3OEhYaHiImKi4yNjo&#xA;+DlJWWl5iZmpucnZ6fkqOkpaanqKmqq6ytrq+v/aAAwDAQACEQMRAD8A9U4q7FXYq7FXYq7FXYq7&#xA;FXYq8k/M/wD5yY/L/wAjyS6fC513XYtm0+zZfTjb+We4+JEPiFDMO64q+a/OH/OV/wCbOvSOlhdx&#xA;aBYtULBYIPUpXblPLzk5e6cfliry7V/NPmfWXL6vq97qLN9o3dxLOT/yMZsVSvFU90Xz3510Nw2j&#xA;69qFhSnw29zLGpp2KhuJHsRir13yV/zmH+Y2jyRw+YooPMViNnZ1W2ugP8mWIemaf5UZJ8cVfTv5&#xA;a/nd5A/MKMR6Ne+jqqryl0i7AiulAG5ValZFHcoTTvTFWe4q7FXYq7FXYq7FXYq7FXYq7FVk00ME&#xA;Mk88ixQxKXllchVVVFWZmOwAHU4q8en/ADG0L84tA84+TvJOrz6drNpHxsr0N6P1mMEVeMj4xC7g&#xA;xOevFge9MVfDGpabfaZqFzp2oQNbX1nK8FzbyCjJJGxVlPyIxVDYq7FXYq7FXYqrWl3dWdzFdWk0&#xA;lvdQMHhniYpIjqahlZSCpHiMVfXn/OPv/OTn6emtvKfneZI9Yekem6w1ES6bosU42Cyn9luj9Nm+&#xA;0q+ksVdirsVdirsVdirsVdirsVfKX/OWv51TGeT8u9AnKRoAfMVzGd2LAMtoCOwFGl8dl7MCq+dP&#xA;JfnDWfJ/max8xaPJ6d9Yyc1Vt0kQji8TgdUdSVP4b4q+hfzj8kaN+bPkuD82/IcRfVI4gnmDSl+K&#xA;ZvRUcqhes0ApXb446EdAGVfL2KuxV2KuxV2KuxVsEg1GxGKvuL/nGD86JPOugP5e1uf1PM2jRqfW&#xA;c1e7ta8VlNdy6GiyHvUHucVe44q7FXYq7FXYq7FXYqxf8zvOkPkryHrPmWQB3sICbaNuj3EhEcCG&#xA;m9DI619sVfm1fX13f3txfXkrT3d1I81xO5qzySMWdmPiSa4qoYq9B/Jn83tY/LXzML6ANc6Nd8Y9&#xA;X00EASxitHSuwkjrVT9B2OKvS/zo/JjR/Mej/wDK0fytEd5oV5GbjVdLtxR4nBrJLFEPs0/3bF1Q&#xA;io26KvnPFXYq7FXYq7FXYqyP8u/Ol/5L856X5ksy3KxmVp4lNPVgb4ZojXb44yR7HfFX6Q/p7Sf0&#xA;B/iD6wv6I+qfX/rX7P1b0/V9T5cN8VTDFXYq7FXYq7FXYqwfz7rvky+1a0/LTzEK/wCLrK6ERJAW&#xA;sPDigJ6SNVmjP8yeJGKvgf8AMTyLq/kbzdf+XNTUmW1etvPSizwNvFMns6/cajqMVY3irsVehfk/&#xA;+c/mT8tdZM9kTd6LcsDqekO1ElA25oaH05QOjD5GoxV6755/Jryb+auiy+ffyjmiXUXq+qeXiVir&#xA;Md2AQmkEx8D8D9QR1Kr5ov8AT77Tr2axv7eS0vLdjHPbTKY5EcdVZWAIOKofFXYq7FXYq7FX0t/y&#xA;s25/6E8+q+sfr313/DXqV+L0q/WePy+qfu/lir6+xV2KuxV2KuxV2Kviz/nMTVr6D839LktpWgm0&#xA;7TLaS1ljJVkkFxNIJFI6MDT7sVZdewab/wA5F/lXHfW3pQfmZ5ZTjNCOKeuCK8ew9K4pyT+SSo6V&#xA;JVfKt1a3Npcy2t1E8FzA7RTwSKVdHQ8WVlO4ZSKEHFVLFXYqn3kzzz5o8ma1HrHl2+eyu0oJAN45&#xA;UrUxyxn4XU+B+Y3xV9F2nnb8mfz3sodN86QR+V/PSqIrXVI2CJK3RRHM+zqT/umbfeiMTviryf8A&#xA;M/8A5x3/ADB8hGW7ltv0toKbjV7NSyqvjPFu8XuTVf8AKOKvLsVdirsVdiqe/pyX/A/6C9Qel+k/&#xA;r3o78uX1f0uXWlKbdMVfpvirsVdirsVdirsVfEn/ADmbbyR/mxaSMPgn0i3ZD7CedD+K4q8o8g+e&#xA;9e8j+Z7XzBosvC4tzxmhP93PCxHOGQd1YfcaEbgYq+hPzI/L3y9+dXlUfmX+XaKvmNEC65oY4+pL&#xA;Ii/EpAp+/UfZP+7Fp36qvluSOSKRo5FKSISrowIYMDQgg9CMVW4q7FXYq9Y/LP8A5yT/ADD8kJFY&#xA;vMNc0JKL+jb5mYonTjBPu8e3QHko/lxV6U93/wA4vfm2ed0D5G80z/akqltG7+JahtJKnuwR2xVi&#xA;3mz/AJw+/MLTkN15aurTzLYMOUXpOttcFeteErekdv5ZTXwxV4/5g8mebvLkpj17RrzTG7G6gkjV&#xA;u3wuw4sPcHFUmxVM/wBEN/hr9McTx+u/VOdRxr6XqU49a++Kv1BxV2KuxV2KuxV2Kvlj/nN/y45i&#xA;8s+ZY0+BGn025kp3YCaBa/7GXFXylirLPy2/MzzN+XvmFNZ0OUfEAl7ZS1MFxF/JIoI6dVYbg/Ti&#xA;r37zV5A8ifnzokvnL8vpI9N86RKG1jRpSqerIQdpQNg7EfBMPhf9qh+yq+YtY0bVdF1O40vVrSWy&#xA;1C1bhcWsylHRvcHxG4Pcb4qgsVdirsVdirJPKn5j+e/KThvLuuXenJWpt45C0BJ3q0D8om+lcVeu&#xA;+X/+czfzAtIhb6/pen63BSkj8WtZnB6hinOL7osVTf8A5X3/AM47a+K+Z/y3FrO/95NZwWsrVPjK&#xA;hs5SPemKvS/8Nf8AOPn/ACpj/Ev+HJ/8E/WP0z9T5XX1j1+X1L1OPr8uNP2OfCnxUxV7jirsVdir&#xA;sVdirsVYR+c/kT/HH5cavoMShr9o/rGmE0FLqA84xU9OdDGT4McVfnJJHJFI0cilJEJV0YEMGBoQ&#xA;QehGKrcVTXyx5p8weV9Zg1nQb2Sw1G3PwTRHqD1R1NVdG7qwIOKvpHTPzF/KX88dNg0L8w7eLy/5&#xA;yjT0rHW4iI43bqBHK9eNW/3TLVf5W5HFXlP5p/8AOPfnzyA8t3LAdV8vqSU1i0UlFX/l4j3aE/P4&#xA;fBjiry/FXYq7FXYq7FU38p+WtR8z+ZdN8v6cpa81KdII6CoUMfikb/JRas3sMVfpB/gzRP8ABP8A&#xA;g30v9w36P/Rfp7V9H0vRr/rU3r474qnuKuxV2KuxV2KvmP8ANj/nK3U/LH5mfojy7Bb6jomkBrbW&#xA;IpdjPc8h6gilWpT0acAaEcuVQdsVZyn/ADlF+XV5+X2qeZbC5Carp8HIaBdER3LXD0SNVUH95GZG&#xA;FXStBuadMVfC+pahd6lqN1qN7J6t5ezSXFzKdi0srF3bbxY4qhsVdirsVet/lj/zkp5+8kRx6fPI&#xA;Ne0BaL+jr1iXjTpxgn+JkFP2WDKOy4q9IbRv+cafzh/e6Zdf4H82T/atWEcEckhI/wB1Ei3lqa/3&#xA;To56nFWAedf+cU/zW8us81haJ5hsF3E2nGs1P8q3fjJX2TliryO+0+/0+6e0v7aW0uozSSCdGjkU&#xA;+DK4BGKofFXYq+xf+cSvycl0TTT571uDhqWpxcNHgcfFDaPu0xB6NNtx8E/1sVfR+KuxV2KuxV2K&#xA;vLv+chvzWX8vvI0r2cgXzDq3O10hRSqNT97cUPaFWFP8or2xV+fzu7uzuxZ2JLMTUknqScVW4q7F&#xA;XYq7FXYq7FXYqzryb+d35n+TxHFo2uz/AFKOlLC5IubfiP2Vjl5cAf8AI44q9Ys/+cutL1q1Wx/M&#xA;LyRY6xB0eaAIwH+rb3SyivevqjFVZr7/AJww8z/HNbXnli5krWi3Ue57cYTd26/dTFXoPlj/AJxH&#xA;/Ku21fT9fhu7/VNMXjcRadfGMxS1AaP1OMULFO/Ejfodq1Ve9gACg2A6DFXYq7FXYq7FVG+vbSws&#xA;p768lWC0tY2muJ3NFSOMFmZj4ACuKvzy/Njz9rH5pfmLLe2kM00Eki2OgacilpBCGpGoRa/vJWPJ&#xA;vc06AYq9i/Lj/nDKW5tYb/z5qElo0gDfoewKeotegluGDqD4qin/AFsVZ+3/ADjZ/wA47AtaEBbm&#xA;NaP/ALk39VaDdipkoD3+zTFXxp5vsNG0/wA1avYaJdG90e1vJ4dPuyQxkgSQrG/JQA1VH2gKHriq&#xA;UYq7FXYq7FXYqqQQTTyrDBG0szmiRoCzMfAAbnFXpnkr/nG/82PNUkbppD6TYP8AavtUrbKB4iNg&#xA;Zm9uKU98VfUP5Vf84xeR/JEsOp33+5/zBHRku7lAIIXHeCCrAN4M5Zh244q9jxV2KuxV2KuxV2Kv&#xA;mP8A5zB/Nn6pZx/l7pM1Lm7VbjXZENCkH2oreo7yfbcfy07Nirv+cTPy10nRfLFz+Z2vBI5pUn/R&#xA;0swoltZQVE9xv0ZyrCvZBt9o4q8l/Of/AJyG81eetUubLTbqbTPKaM0drYwkxPOgP95dFTVy3XhX&#xA;ivhWpKryHFXYq7FXYq7FX1X/AM4q/k/5UuNKbzL5phs9Rv8AVopBpGjXiRy8bOOT05bkwSg8+cg4&#xA;q3GgHf4tlXv/APyqf8rP+pN0P/uG2f8A1TxVPNM0HQ9KUrpenWtgpFCLaGOEEVrT4AvfFUdirsVd&#xA;irsVdirsVdirF/zL8+6Z5E8m6h5jv6P9WXhaWxNDPcvtFEvf4m6+Cgntir84te1zU9e1m91nVJjc&#xA;ahfzNPcynu7muw7AdAOw2xV9n/myW8v/APOKcdnp54L+jNLszInQpK0Kyn39QFgfnir4kiERlQTF&#xA;hFyHqFACwWu/EEgE098VfTXl7/nGH8qfOflu1vvJ/neeS/liEkqzrbylG7pJaIYpYSDsau3iKjqq&#xA;wzzT/wA4kfm1o3KTT4LbXrYbhrKYLLx/yop/SNfZC2KvKte8q+ZvL1wLfXdKu9LmavBLuGSHlTqV&#xA;5gch7jFUqxVlX5b+TY/NPmRbe8m+qaFYRPqGvah2t7G3HKVtq/E2yJ/lEYqqecfzD1TWvOp8xaY8&#xA;ukJYiO38vw2ztG1lZ2w4W8UbKarxTdqHdiT3xV7/APk1/wA5cXNxcWfl7z5A0887pBa63aRlnZ3I&#xA;VFuLeMfEST9qMf7Hvir6nxV2KuxV2KuxV2KuxV2Kvhb/AJyi/Nk+cvOZ0TTZuXl7y+7wwlTVJ7r7&#xA;M0+2xApwQ+FSPtYq8UxV90fl82nfm3/zjenl9p1W7WxXSLktv6N3YhTbyOB2PpxS/I4q+KPMHl/W&#xA;PL2sXWjaxavZ6jZyGOeCQUIIPUHoyt1VhsRuMVQMM00EqTQu0UsZDJIhKspHQgjcYq+pf+cU7r85&#xA;9f1f9I32u3z+SLIMkwvT9YFzLQhIIHnDuoRviZkO1OPfFWPf85kefbPWfN2n+VrFlkj8vJI17Ku/&#xA;+lXPEtFX/itEWvuSO2KvnkAk0G5OKvTvOX/OieSLbyHD8HmLWvR1Pzi4+3ElOdlpx8PTVvWkH8xH&#xA;hirzDFX0n/ziD+U36U1eTz7q0NbDS3MOjI42ku6fHNQ9VhU0X/LPiuKvsHFXYq7FXYq7FXYq7FUv&#xA;8xaVNq+g6hpcN7Lp0l9byW631vT1YvUUrzTkCKiv9KHFXwN+an5A+efy8lkuLqH9JaBypFrNqpMY&#xA;B6CdN2hb/W+HwY4q80xV6B+Tf5w63+WfmF760T65pV4Fj1TTGYqsqqaq6HcLIlTxancjvir6w/xD&#xA;/wA47/nPp8P6SeyuL8LxS3vX+palD34I4aORlBNfgZkriqDi/IL/AJxv8tsdT1IWxgjPIHUtRPoL&#xA;TxUyIrfJq4qxT81f+crPLeiaU3lz8so45rhI/QTU44hFZWqAcaW0RC82X9n4eA6/F0xV8lXE89xP&#xA;JcTyNLPMzSSyuSzM7GrMxO5JJ3xVqKWWKVJYnaOWNg0cikqyspqCCNwQcVVdQ1C+1G+nv7+eS6vb&#xA;qRpbm5lYvJJI5qzMx3JJxVOvy+8k6p52836d5b00ETXsgE01KrDAvxSzN7IgJ9zt1OKv0f8ALPl3&#xA;S/LegWGg6VF6On6dCsFuneijdmPdmNWY9ycVTPFXYq7FXYq7FXYq7FXYqtliilieKVFkikUrJGwD&#xA;KysKEEHYgjFX5z/nbc+T5vzM1pfKNjFY6LbzGBFt6+lJLH8M0sa1KojSV4hPh4gEDfFWC4q7FXYq&#xA;7FXYq7FXYq+4P+cVPym/wn5RPmXU4eGv+YI1dVcUeCyryij33BkP7x/9iOq4q90xV2KuxV2KuxV2&#xA;KuxV2KuxV5T/AM5JfmWvkj8urlbWb09c1sNY6YAaOoYfv5h/xijbY9mK4q+AcVdirsVdirsVRN1p&#xA;uo2kFrcXVrNBb3qGWzmlRkSaNWKF42YAOoZStR3xVDYq9d/5xs/Kf/HnndLnUYeflvRCtzqPIfBN&#xA;JWsNt/s2Wr/5II7jFX3uAAKDYDoMVdirsVdirsVdirsVdirsVcSAKnYDqcVfnz/zkL+Zh8+fmJd3&#xA;NrJy0TS62OkgGqtHGx5zD/jM9WH+TxHbFXmOKuxV2KozSNI1LWNUtdK0y3a61C9lWC2t0FWd3NAP&#xA;7T0xV6vN/wA4x+e9G8029p5kRIPK6K91qnmS1b1LWGzgQyzsSwVkfgpCq6CrdKjFWB/mL5x/xX5m&#xA;lvreD6npFrGljomnj7NtYW44wRD3p8Tf5ROKpFpemX+q6la6Zp8DXN9eypBbQIKs8khCqo+ZOKv0&#xA;Z/KX8ubD8v8AyRY+X7fjJdKPW1O6X/d11IB6j7/sigVf8kDFWY4q7FXYq7FXYq7FXYq7FXYq8c/5&#xA;yi/MxvJ35eyafYy8Nb8xc7K1IPxRwU/0mYfJGCA9iwPbFXwdirsVdirsVfYv/OJv5L/obTV8+a7B&#xA;TVdRjI0aBxvBauN5iD0eYdPBP9YgKvoyaGGeJ4Zo1lhkUrJG4DKykUIYHYg4q+cvzb/5xE0fVvW1&#xA;byE0elaiavJo8hIs5T1PotuYG8F+x2+EYqg/+cWvyJ1jQtYvvNnm/TnstSsnez0izuAOStSk1yOo&#xA;IIPCNgaH4j4HFX05irsVdirsVdirsVdirsVdiq2SSOKNpJGCRoCzuxAVVAqSSegGKvzu/PT8x38/&#xA;fmHf6rDIW0m2P1PSENaC2iJAeh6GViZPpp2xV59irsVdir2X/nGv8mG8++Zv0rq0JPlXRnV7sMPh&#xA;up/tJbCvVf2pP8nb9oHFX3cqqqhVAVVFFUbAAdhireKuxV2KuxV2KuxV2KuxV2KuxV2KuxV4b/zl&#xA;j+Zg8seRD5dsZOOseZVeAlT8UdmtBcN/z0B9MexbwxV8O4q7FXYqyDyF5J1nzt5qsfLmkJW5vHo8&#xA;zAlIYl3kmkp+yi7+/QbnFX6MeSfJui+TfLFj5d0ePhZ2UYXmac5ZDvJLIR1d23P4bYqnmKuxV2Ku&#xA;xV2KuxV2KuxV2KuxV2KuxV2Kvzk/Orz7ded/zG1bWHk5WUUrWmlp2S0gYrFT/X3kb3Y4qwbFXYqu&#xA;RHkdY41Lu5CoiipJOwAAxV95/wDOOH5Np5A8q/XtTiH+KdYRZL8kfFbxdY7VT24/ak8W23CjFXr+&#xA;KuxV2KuxV2KuxV2KuxV2KuxV2KuxV2KuxV+WV9Z3Fje3FlcrwuLWR4ZkPVXjYqw+gjFVDFXYq+l/&#xA;+cS/yWGp3yfmBr0FdPspCNBt5F2luENDckHqsJ2T/L3/AGd1X17irsVdirsVdirsVdirsVdirsVd&#xA;irsVdirsVdir5I/5yi/Ia5j11fOXllBMdcuo7e80hATM99MGPqQKB8fq8auvXlU7g/Cq+dZfLHmW&#xA;G7NlNpN7HeA8TbPbyrKD4cCvL8MVev8A5Tf84sedPNF9De+aLaby/wCXkYNKJ19O8nA34RQt8Udf&#xA;55APYNir7Z0vTLDStOttN06Bbaws4kgtbeMUVI4xxVR8gMVROKuxV2KuxV2KuxV2KuxV2KuxV2Ku&#xA;xV2KuxV2KsC/MN0k86flzZTbQSazc3BY04+rb6XdGIb9yz7Yqz3FXYq7FXYq7FXYq7FXYq7FXYq7&#xA;FXYq7FXYq7FXYq7FXYq85/O9pNN0LRvNsaO6+U9YtdTvFjBZzZNytbqgHWkVwW+jFXocE8NxBHPA&#xA;6ywyqHikQhlZWFVZSOoIxVfirsVdirsVdirsVdirsVdirsVdirsVdirsVdirsVdiqje2VrfWc9le&#xA;RLPaXUbw3EDiqvHIpV0YeDKaHFXjuieY9R/J66Tyt5u9WfyCz8PLHmniZBaRsfgsdQI3XhXjHJSl&#xA;Pb7Cr2KyvrK/tIryxuI7q0nXnDcQOskbqf2ldSVYfLFVbFXYq7FXYq7FXYq7FXYq7FXYq7FXYq7F&#xA;XYq7FXYq7FVG8s7O9tZbS9gjubSdSk9vMiyRujbFXRgVYHwOKvLbz8gbXTbqa+/LzzHqPkq6mbm9&#xA;nbN9Z01nP7TWcx41/wBlQdhiqHMX/OUujjhHP5a8zwjpLMk9ncmm26p6UIr174qtHnn/AJyTikZZ&#xA;fy0srlaDi8Or2sY9/wC8kJ/DFVC589/85OsW+q/lnYwg/Y9XVbSWh8TxnjriqGk1P/nLzUGKR6R5&#xA;d0ZKnjI0jStTruRNcDtT7PfFUO/kL/nLDUPhv/P+l2MZqCtlAKgcezfVIWrX/KxVTl/JL8/J4QZf&#xA;zYuFmUGiRRyotT0BZJEJ6fy7YqhJfy2/5yw0kmfSvP8AaakUpSG53ZgB04z28qV+bD54qgZvz4/P&#xA;T8v3VfzK8mreaYGCHVrKkY3NKmWIz25J7IeBxV7Z+Xv5n+TfP+ltf+XL31jFQXdlKPTuYGboJY6m&#xA;lezKSp3oTTFWV4q7FXYq7FXYq7FXYq7FXYq7FXYq7FXYq7FXYq7FXYqsngguIXgnjWWGVSkkTgMr&#xA;KwoVZTsQcVfK/wCdP5YX35Ta7a/mn+XJNjZQTouq6WlfRi9VgPs13t5mojJ+yxHHtxVfRvkTzhpv&#xA;nLyjpnmXTqi21GESGI7tHIpKSxN7pIrL9GKp9irsVdirsVdirsVdirsVdirsVdirsVdirsVdirsV&#xA;diqV+avL9n5j8tanoV4AbbU7aW2kJFaeohUMPdTuMVeAf84Wa3d/oTzP5Wuqh9JvI7iNG/Z+sK0c&#xA;qj2V7avzOKvpPFXYq7FXYq7FXYq7FXYq7FXYq7FXYq7FXYq7FXYq7FXYq+V/+caT9S/P78xNKoEK&#xA;m+PpDen1fURHsem3qYq+qMVdirsVdirsVdir/9k=</xmpGImg:image>
               </rdf:li>
            </rdf:Alt>
         </xmp:Thumbnails>
         <xmpTPg:MaxPageSize rdf:parseType="Resource">
            <stDim:w>1024.000000</stDim:w>
            <stDim:h>768.000000</stDim:h>
            <stDim:unit>Pixels</stDim:unit>
         </xmpTPg:MaxPageSize>
         <xmpTPg:NPages>1</xmpTPg:NPages>
         <xmpTPg:HasVisibleTransparency>False</xmpTPg:HasVisibleTransparency>
         <xmpTPg:HasVisibleOverprint>False</xmpTPg:HasVisibleOverprint>
         <xmpTPg:PlateNames>
            <rdf:Seq>
               <rdf:li>Cyan</rdf:li>
               <rdf:li>Magenta</rdf:li>
               <rdf:li>Yellow</rdf:li>
               <rdf:li>Black</rdf:li>
            </rdf:Seq>
         </xmpTPg:PlateNames>
         <xmpTPg:SwatchGroups>
            <rdf:Seq>
               <rdf:li rdf:parseType="Resource">
                  <xmpG:groupName>Default Swatch Group</xmpG:groupName>
                  <xmpG:groupType>0</xmpG:groupType>
               </rdf:li>
            </rdf:Seq>
         </xmpTPg:SwatchGroups>
         <dc:format>image/svg+xml</dc:format>
      </rdf:Description>
   </rdf:RDF>
</x:xmpmeta>
                                                                                                    
                                                                                                    
                                                                                                    
                                                                                                    
                                                                                                    
                                                                                                    
                                                                                                    
                                                                                                    
                                                                                                    
                                                                                                    
                                                                                                    
                                                                                                    
                                                                                                    
                                                                                                    
                                                                                                    
                                                                                                    
                                                                                                    
                                                                                                    
                                                                                                    
                                                                                                    
                           
<?xpacket end="w"?>
	</metadata>
<g id="journal">
</g>
<g id="interview">
	<g>
		<path d="M713.676,248.98c-36.844-3.639-73.438-15.456-107.148-36.116c-34.537-21.167-62.213-49.307-82.315-81.449
			c37.978-29.203,91.563-33.625,134.83-7.109C702.76,151.099,723.068,201.481,713.676,248.98z"/>
		<path d="M698.368,288.144c-5.326,8.691-11.582,16.45-18.586,23.233c-36.579-3.735-72.938-15.512-106.385-36.011
			c-38.036-23.311-67.737-55.073-88.155-91.342c2.6-6.946,5.927-13.809,9.962-20.393c6.133-10.008,13.465-18.763,21.754-26.208
			c20.745,32.95,49.217,61.733,84.657,83.454c34.538,21.167,72.066,33.402,109.862,37.262
			C708.626,268.45,704.248,278.55,698.368,288.144z"/>
		<path d="M599.636,720.619c-0.359-4.626-1.25-10.349-2.873-16.825c-1.935-6.404-4.726-13.694-9.988-20.402
			c-5.363-6.553-12.761-12.25-21.467-15.986c-2.137-1.01-4.457-1.542-6.721-2.342c-2.291-0.694-4.569-1.627-6.978-1.926
			c-4.774-0.78-9.625-2.038-14.607-2.123c-4.972-0.316-10.015-0.83-15.142-0.49c-5.09,0.225-10.387,0.061-15.383,0.783
			c-5.103,0.552-10.247,1.109-15.411,1.668c-5.077,0.6-10.167,1.366-15.275,1.837c-10.213,0.908-20.47,1.675-30.531,1.391
			c-10.054-0.163-19.965-0.939-29.255-2.996c-9.289-1.977-18.026-5.064-25.359-9.577c-7.339-4.469-13.198-10.387-16.783-16.955
			c-3.666-6.518-5.455-13.33-6.045-19.439c-0.608-6.126-0.251-11.549,0.335-15.952c0.407-3.031,0.927-5.553,1.417-7.603
			c15.388,7.969,35.544,1.279,45.944-15.691l76.297-106.576l11.313,5.884l12.444-20.744l4.094,2.454l-12.468,20.786l27.513,17.386
			l72.971-119.06l-28.949-18.184l-27.419,45.7l-4.097-2.456l27.384-45.643l-1.036-0.349l9.409-13.126
			c31.053,3.626,62.578-5.007,87.351-24.428c-35.048-4.712-69.726-16.614-101.818-36.282
			c-36.833-22.573-66.139-52.782-87.103-87.315c-7.875,30.429-3.209,62.579,12.199,89.347c-0.167,0.245-0.384,0.45-0.54,0.705
			l-8.702,16.712l-22.545-13.817l-73.086,119.252l30.88,18.925l-60.525,116.242c-10.711,17.477-7.026,39.242,8.154,48.95
			c-0.591,2.216-1.239,5.07-1.795,8.536c-0.698,4.549-1.191,10.175-0.684,16.631c0.492,6.433,2.226,13.739,6.04,20.855
			c3.725,7.166,9.957,13.722,17.703,18.654c7.742,4.983,16.881,8.403,26.504,10.659c9.635,2.335,19.817,3.337,30.116,3.715
			c10.319,0.5,20.772-0.066,31.189-0.78c5.21-0.374,10.381-1.043,15.557-1.549c5.099-0.446,10.18-0.89,15.22-1.33
			c5.126-0.628,9.976-0.319,14.865-0.446c4.871-0.234,9.658,0.37,14.365,0.759c4.762,0.166,9.183,1.46,13.609,2.253
			c2.251,0.311,4.256,1.221,6.317,1.887c2.016,0.766,4.136,1.273,5.993,2.211c7.628,3.478,13.693,8.443,18.085,13.973
			c4.271,5.676,6.536,11.951,8.136,17.604c1.31,5.796,2.042,10.986,2.289,15.4c0.37,4.373,0.408,7.902,0.545,10.348
			c0.102,2.451,0.157,3.759,0.157,3.759l9.201-0.561c0,0-0.079-1.278-0.227-3.673C600.23,728.863,600.12,725.266,599.636,720.619z
			 M434.705,362.81c7.548-24.934,32.991-39.944,56.829-33.527l-0.035,0.11c2.236,1.372,3.09,4.626,2.003,7.823
			c-1.014,2.974-3.452,5.092-5.972,5.259l-0.065,0.175c-16.78-4.517-34.714,6.047-40.027,23.598
			c-5.314,17.551,3.934,35.438,20.715,39.956c15.104,4.066,31.027-4.095,37.951-18.565l-30.463-8.002l-7.666-7.783l9.968-2.945
			l28.33,8.128l0.005-0.055l14.482,3.579c-0.334,1.814,0.786,3.716,0.249,5.489c-7.548,24.934-32.98,39.945-56.819,33.527
			C440.352,413.158,427.157,387.744,434.705,362.81z"/>
	</g>
</g>
<g id="logo">
</g>
<g id="g_tv">
</g>
<g id="survey">
</g>
<g id="magzine">
</g>
<g id="journal_c">
</g>
</svg>
