<?xml version="1.0" encoding="utf-8"?>
<!-- Generator: Adobe Illustrator 17.0.0, SVG Export Plug-In . SVG Version: 6.00 Build 0)  -->
<svg version="1.2" baseProfile="tiny" id="Layer_1" xmlns="http://www.w3.org/2000/svg" xmlns:xlink="http://www.w3.org/1999/xlink"
	 x="0px" y="0px" width="1024px" height="768px" viewBox="0 0 1024 768" xml:space="preserve">
<metadata><?xpacket begin="﻿" id="W5M0MpCehiHzreSzNTczkc9d"?>
<x:xmpmeta xmlns:x="adobe:ns:meta/" x:xmptk="Adobe XMP Core 5.5-c014 79.151739, 2013/04/03-12:12:15        ">
   <rdf:RDF xmlns:rdf="http://www.w3.org/1999/02/22-rdf-syntax-ns#">
      <rdf:Description rdf:about=""
            xmlns:xmp="http://ns.adobe.com/xap/1.0/"
            xmlns:xmpGImg="http://ns.adobe.com/xap/1.0/g/img/"
            xmlns:xmpTPg="http://ns.adobe.com/xap/1.0/t/pg/"
            xmlns:stDim="http://ns.adobe.com/xap/1.0/sType/Dimensions#"
            xmlns:xmpG="http://ns.adobe.com/xap/1.0/g/"
            xmlns:dc="http://purl.org/dc/elements/1.1/">
         <xmp:CreatorTool>Adobe Illustrator CC (Windows)</xmp:CreatorTool>
         <xmp:CreateDate>2017-09-13T20:13:49+05:30</xmp:CreateDate>
         <xmp:Thumbnails>
            <rdf:Alt>
               <rdf:li rdf:parseType="Resource">
                  <xmpGImg:width>148</xmpGImg:width>
                  <xmpGImg:height>256</xmpGImg:height>
                  <xmpGImg:format>JPEG</xmpGImg:format>
                  <xmpGImg:image>/9j/4AAQSkZJRgABAgEASABIAAD/7QAsUGhvdG9zaG9wIDMuMAA4QklNA+0AAAAAABAASAAAAAEA&#xA;AQBIAAAAAQAB/+4ADkFkb2JlAGTAAAAAAf/bAIQABgQEBAUEBgUFBgkGBQYJCwgGBggLDAoKCwoK&#xA;DBAMDAwMDAwQDA4PEA8ODBMTFBQTExwbGxscHx8fHx8fHx8fHwEHBwcNDA0YEBAYGhURFRofHx8f&#xA;Hx8fHx8fHx8fHx8fHx8fHx8fHx8fHx8fHx8fHx8fHx8fHx8fHx8fHx8fHx8f/8AAEQgBAACUAwER&#xA;AAIRAQMRAf/EAaIAAAAHAQEBAQEAAAAAAAAAAAQFAwIGAQAHCAkKCwEAAgIDAQEBAQEAAAAAAAAA&#xA;AQACAwQFBgcICQoLEAACAQMDAgQCBgcDBAIGAnMBAgMRBAAFIRIxQVEGE2EicYEUMpGhBxWxQiPB&#xA;UtHhMxZi8CRygvElQzRTkqKyY3PCNUQnk6OzNhdUZHTD0uIIJoMJChgZhJRFRqS0VtNVKBry4/PE&#xA;1OT0ZXWFlaW1xdXl9WZ2hpamtsbW5vY3R1dnd4eXp7fH1+f3OEhYaHiImKi4yNjo+Ck5SVlpeYmZ&#xA;qbnJ2en5KjpKWmp6ipqqusra6voRAAICAQIDBQUEBQYECAMDbQEAAhEDBCESMUEFURNhIgZxgZEy&#xA;obHwFMHR4SNCFVJicvEzJDRDghaSUyWiY7LCB3PSNeJEgxdUkwgJChgZJjZFGidkdFU38qOzwygp&#xA;0+PzhJSktMTU5PRldYWVpbXF1eX1RlZmdoaWprbG1ub2R1dnd4eXp7fH1+f3OEhYaHiImKi4yNjo&#xA;+DlJWWl5iZmpucnZ6fkqOkpaanqKmqq6ytrq+v/aAAwDAQACEQMRAD8A9U4q7FXYq7FXYq7FXYq7&#xA;FXYqw/zT+aHl3Qme3Rjf367G3gI4qfCSTcL8hU+2YubVxhtzLutB2Fn1HqPoh3n9AeZaz+bnm/UG&#xA;ZbeZNPgOwjt1HKnvI3Jq/wCrTMCesnLls9XpvZ7TY/qHGfP9X9rFLzVtUvSTeXk9yT1M0jv/AMSJ&#xA;zGlMnmXb49Pjh9MRH3CkLkW5H2Wv65YsGs9QuLf2jldQfmAaHJxySHIlxsukw5PqhE/AMx0P85vM&#xA;lkypqSR6lAOpIEUtPZkHH71zKx66Y57ul1Xs1gnvjuB+Y/HxepeWPPXl7zEvGyn4XYFXs5qLKPEg&#xA;dGHupObHFqIz5c3ktd2Vm031j0945fs+LIMuda7FXYq7FXYq7FXYq7FXYq7FWndI0Z3YIiAszMaA&#xA;AbkknFIBJoMMk8y2HnPT9a0bQ7x7a9hWkE4PD1V2+JT9rgzfA3sffMTxRlEoxO7vBop6GePLmiJQ&#xA;PMd37eoeDXVtcWtzLbXEZinhYxyxtsVZTQg5pyCDRfQoTE4iUTYKlgZuxV2KuxV2Kr4ZpYZUlhdo&#xA;5UIZJEJVlI6EEbjCDTGURIURYex/l3+aX6QePSNdcLeNRba9NAsp6BH7B/A9/n12mm1fF6Zc3ie2&#xA;ewfDBy4fp6x7vMeX3fd0zM95V2KuxV2KuxV2KuxV2KuxV5J+b/nh/Uby3p8nFQAdSlU9SdxCD4d2&#xA;+7xzW63P/APi9l7OdlivHmP6v6/1fPuebaJrN7o2qQalZNxngaoB+yynZlb2YbZgY5mJsPUarTQz&#xA;4zjnyL0bzpoVl5v0RPN/l9K3SrTUbQbueA32H7af8Mu/zzs+MZY8cefV5nszVz0eU6bN9P8ACfx0&#xA;P2F5XmueudirsVdirsVdirgSDUbEdDih7v8AlZ52bXNOOnX0nLVLJR8bHeaLoH92Xo30Hvm40mfj&#xA;FHmHz/t7svwJ8cB+7l9h7v1M7zMeedirsVdirsVdirsVSrzTraaHoF7qbAFreP8AdKejSMQsY/4I&#xA;iuV5cnBEly9BpTnzRx95+zr9j5muJ5rieSedzJNKxeR26szGpJ+ZzQE3u+qwgIgAbAKeBkyLyT5y&#xA;vfLGqCeOstlNRby1B+2o6MK9GWu33ZfgznGb6Os7U7NhqsdHaQ+k/joyfzt5Js9Ss/8AFXlQLPYT&#xA;qZLu1jFChH2nVe1P2l7fqyM+ASHHDk6rsvtSWKX5fU7TGwJ6/joerzbMB6h2KuxV2KuxV2Kpl5b1&#xA;u40TW7TU4CawODIg/bjOzp/slrlmLIYSBcXW6WOfFLGeo+3o+mP0hafo/wDSPqD6n6P1j1e3pcef&#xA;L/gd833EKvo+WeDLj4K9V18eSIyTU7FXYq7FXYq7FWOeY9Y0KXUoPKepj/jsQSUYkAA1AjFT+0xD&#xA;cT/MB45TklEngP8AE7DR4ssYnUY/8mR+Pd3+94H5k0G80HWLjTbofFE1Y5KUEkZ+w4+Y/pmly4zC&#xA;VF9H0WrjqMQyR6/Ye5LMrct2Ksi8medtT8sXpeD99YykfWrNjRW/ylP7LDx+/L8Gc4z5Os7S7Lx6&#xA;qFHaY5H8dGY695K0bzbZP5g8nuguG3u9ONEq/U7dEf2+yeo98rJgjkHFj+TpNJ2nl0c/B1Q9PSX4&#xA;5j7Q8wuLee2neC4jaGeM8ZInBVlI7EHNeQRsXq4TEgDE2Cp4GbsVdirsVdir0/8AxTL/AMqZ9Hn+&#xA;/wDX/RfKu/Gvq0/5E/Dmw8X9x9jyn5AfypfSuP8AR/ut3sebR4h2KuxV2KuxV2KvC/zlupD50jKE&#xA;xvbWsKxupIavJ5A1R0IL5qddI+IPc977M4wdLK9+KR+4Jywt/wAyPKoYFU82aSvxDZfWX6KDi/8A&#xA;wreAO9prPC/4w4UDLszU0d9Pk+z9o+0PKpYpYZXilQxyxsVkRgQyspoQQehBzWkU9hGQIscitwMn&#xA;YqmGia9quiXy3umztBMNmA3V1/ldejDJ48koGw42q0mPPDgyCx+OT0iHXPJXn6BLXW410rXgOEV0&#xA;pCqx7BXOxFf2H+g5njJjzbS2k8vLS6rs48WI+Jh6j9n6R8WI+afy48xeXy8zxfW9PHS8gBIA/wCL&#xA;F+0n6vfMbNppQ8w7rQdtYNTsDwz7j+jv+/yYrmM7d2KuxV2Ko/6+36B/R/L4frXr8N619PhXJ8Xp&#xA;rzcbwv33H/Rr7bfUedC+TOxV2KuxV2KuxV4R+c8Lx+cubUpNaxOlPAFk3+lDmo1w9fwe/wDZg3pj&#xA;/XP3Bieh63qGiapDqVg/C4hPQ7q6n7SONqqw6/hvmNjyGBsO51mkhqMZhPkfs83onmHQdO89aSfM&#xA;vl1RHq8agalptRyZgPoq38rftj32zOy4hljxw59Q8zodbPQZPy+f+7/hl+On3PLWVlYqwKspoynY&#xA;gjsc1z14NtYEuxV2Ksu8r/mb5j0ILAz/AF+wXb6rOSSo8I5N2X5bj2zKxaqcNuYdLr+w8Go3rgn3&#xA;j9I/B82Tmb8qvOG8oOg6rJ1b4YlZvn/ctv48WOX3hy/0S6oR7R0XL97j+f8Ax77wlOr/AJNeY7YG&#xA;XS5YdTtzunAiKQjx4seH3Plc9FIct3M0/tLgltkBxn5j9f2MN1HRNY01+OoWU9qexljZQfkSKH6M&#xA;xZY5R5h3eHVYsv0SEvcUFkHIRf1M/or67xNPX9HnXavDlSmT4fTbT4n7zg/o39r6nzoXyN2KuxV2&#xA;KuxV2KvIvz00si50zVVUkOj2sr0+EFD6kYr4tzf7s1vaEeRex9lM/wBeP3S/Qf0PKs1r2KZ+XvMW&#xA;qaBqKX+nScZB8MkbVMcid1dQRUZbiymBsOFrtDj1MOCfwPUPQtS0PQPzCsX1jQCtn5gjFb7T3IHN&#xA;vfp1P2ZBsf2qHpmzxxzDij9Tzen1mbs6fhZ/Vi/hl+r9I6dHmF7ZXdldSWt3C0FzEeMkTijA5r5R&#xA;INF63FljkiJRNxKjkWx2KuxV2KpnpPmXX9Iaum381svX01asZ+cbVQ/dlkMso8i4mo0OHN/eREvv&#xA;+fNmOnfnX5hhQR6ha299H0Y0MTt8yOSf8JmVHXSHMW6XN7MYCbhKUPt/b9qM/wCVgflvqG+q+WRF&#xA;I32nhjiY1Pi4MLZL8zil9UWj+SNdj/u81jzJ+7cMn/Rf5d/4J/Sf6Mk/QfqfXvRrL6nqV9HlTnWl&#xA;O1eNN8yODF4d16ebqfH1v5vw+MeLXDe1V9Xd+1neZjz7sVdirsVdirsVY75/8vHXvK93Zxryu4wJ&#xA;7Md/Vj3AG43dapv45Tnx8cCHYdl6z8vnjM/TyPuP4t835on1EG3YEojT9RvtOvI7yxne3uoTWOVD&#xA;Qj29we4OxycJmJsNOfTwzQMJi4l6Ta+afKXna2j0/wA0xJp+rqvG31RKIhPUDkfs/wCq/wAPgQSB&#xA;meMsMwqe0nlcmi1PZ8jPAePF1j+PvHxYv5r/AC68weXmeZ4/renDpeQgkAf8WL1T6dvfMbNppQ8w&#xA;7ns/tnDqdgeGf80/o72LZjO3dirsVdirsVRmkaZc6rqdtp1sKzXUixrtWlerH2UbnJwgZEANGpzx&#xA;w45TlyiH0v8AoSx/Qf6F4/6F9X+q8e/Dhw++mb7wxw8PSnyz81PxvF/i4uL43aPybjuxV2KuxV2K&#xA;pNc6tcfWm9Aj0Y/hCsNnI+0a9aeFPnvmn1PaJhkqO4HNy8enBjZQPmzz1YeXvKuoa3On72zirFbN&#xA;/uyVyEjUEdi7Cp6gb0zN0+shlG3Puap4ZRL5a0HzHPqkswvpOd9I7ymQ7c+ZLN9IJzD1eGjxDkXu&#xA;OwO0Rkh4Uj6o8vMfs+5OswnpHYq7FWVeVvzH8w+Xwtuji804bGynJKqu1RG3VNv9j7ZlYtVKG3MO&#xA;l1/YeHUeoeifeP0j8Fkpi/K/zgOaSf4d1hx8SNxSJm28aRNudqFWPhl/Dhy8vTJ1Xi9oaHaQ8XGP&#xA;j+0fGwkmt/lL5t00s8EK6jbjo9savT3jajV/1a5Tk0c48t3ZaX2h02XYngPn+vl86YfPb3FvK0Nx&#xA;E8Mq7NHIpVh8waHMUgjm7qE4yFxNhTwM3Yq9o/KDyW1ja/p++TjdXS8bONhukJ6v837e3zza6LBQ&#xA;4jzeG9o+0/El4MD6Y/V5nu+H3+56Vme8s7FXYq7FXYqgdWvDDCIozSWaoBFfhUfaNRTfsPv7Zh67&#xA;U+FDb6jybsOPiPkkgAAAAoBsAM5h2S2aCGeF4Z41lhkBWSNwGVlPUEHYjEGuSvI/On5EW0sjan5S&#xA;kFleIef1Bz+6Zhv+7c1KH2Pw/IZtMHaO3Dk3He1iJhISgakGEQXN7BdNpmsWz2GrRbPBKOPMfzIe&#xA;jA+30ZLJiAHFE3F7TsztaOccM/Tk+/3fqRmUO6dirsVdiqc6L5w8zaKAunahLDCtaQEiSIVNTSN+&#xA;SCviBXLseonHkXXarsrT595xF942P2Mui/OAXkPoeYdDtdRSoAZfhoO54SCUE/IrmUNaDtONuml7&#xA;OSxm8GWUfx3ivuVDe/kpqjOZba50ltzz4yAH5LE06j/gcb08vJjwdq4eRGQfD9PCWSaL+UflD6xa&#xA;arBPcXdmQJore44hXBFULDhG1O9CN8vhooXbrNR7R6kxMCIxlysf2l6Hma847FXYq7FXYqtllSKN&#xA;pJDxRAWY+w+WAkAWUgWxq5ufUkkupqJXx/ZQfZXv0/XXOU1mp8SRkfpdphxUKHNJbnXGqVt1AH87&#xA;dT8hmjy9oHlAOwhpf5yG/Suo9fU2/wBVafqzH/OZe/7A2+BDuT22eR7eN5BR2UFh0zc4pExBPN18&#xA;wASAl3mLytoXmKz+q6tarOq7xS/Zljb+aOQfEpzIxZpQNxLAh5L5m/L7zP5dD3Fmr65pC7lkA+uR&#xA;L/loNpQB+0u/iBmdDJjyf0ZfZ+x3Wk7cyY9sg449/wDF+1jFprWmXVBFOof/AH2/wtX5GmTngnHm&#xA;HotP2np830yF9x2P2o3KXPdirsKCa5sk0P8ALzzbrDKYLF4IGp/pN0DDHQioYchyYf6inMjHpZy6&#xA;U6nVdt6bD/FxHujv+x6r5S/KfRNFdLu+I1LUFoytItIYz/kRmtSP5m+YAObHDpIw3O5eR7Q7ezag&#xA;cMfRDuHM+8s5zKdE7FXYq7FXYq7FUn1m69SQWq/YjIaX3bqq/R9r7s0/aepoeGPi5emx/wARYnrF&#xA;00k/1dPsJ1A7t/ZnGa7MZS4ByDvNPjocRRthpcUKB5VDzHc13A+WZen0kYi5byaMucyNDkj8zXHd&#xA;irsVdirBfPH5ReW/M/qXUa/o7V23+uQqOLt/xdHsG+YoffMzT62ePbnFrnjBQ/5NflBaaLNe3HmR&#xA;7bUL9mMNnZE+rCsS0LS8JBuzGgHw/CPntudPqcOewKMh06tMsufF9MpRHkS9THk7ykGLfoWxqev+&#xA;jxU29uNMyfAh/NHyR/KWp/1Sf+mKLsdG0ewYtYWNvaMwoxgiSMkeB4AZMRA5Bx8mec/qkZe82jMk&#xA;1OxV2KuxV2KuxV2Koe/uxa25k6yH4YlPdj07jYdT7ZTqMwxwMizxw4jTHgKDc1JJLMepJNSTTxOc&#xA;pOZkSTzLtAKFMesqS6opfu7N9Iqc0GD1Zhfe7PLtjZC3LieNOVNq9K5vDdbOuCTvq97DKVmiUUP2&#xA;dx9x3zVy1uSMqkHMGnjIbFEQ63aPtIGjPuKj8Mvhr4Hns1y00hy3RsVxBMKxOH8aHfMqGSMuRtol&#xA;AjmFTLGKlcS+nGSPtHZcoz5eCN9WcI2UuPUGpDAhlYbEEbgg9iM08Mkoy4gaLlGIIopxp/mSaACO&#xA;9rLEOkw+2o/yh+0B7b/M51HZ/b5JEMo/zh+kfq+Trc+h6x+TJs6p1jsVdirsVdirsVdirsVY7e3f&#xA;1q4MimsK/DD0oR3bb+b9VM5ztDU+JOh9MXY6fHwi+pUc17exy4D2eolgPsvzX3U75osoOLLfnbso&#xA;VOCfwzRzRiSM1U/50ObrHMTFh18omJor2VWFGAIPY75IgHmgGkl1dbGMcIkAnPXjsAPkNs1WtGOO&#xA;wHqc3TmZ3J2VtDt2WN5m257L8h1OW9n4yAZd7DVTs0mubFxEuuJfUkJ/ZGy5pdTl45eTl440FLMd&#xA;mmvl/T/rN19YkFYbYggbby7Ff+B+186e+dL7P6Dil40uUeXv/Y6/XZ6HCOrKc7B1LsVdirsVdirs&#xA;VdiqldwNPbSQq/pmRePOlevXb3yE48USLq0xNG2P3ME9s/GdeIJokgNUb2B239j9Gc1qNFPFvzj3&#xA;uyx5hL3rMxG1CX9gl1GN+Mi/Yb+BzG1OnGQebbiymB8kmKahZOSOUfuN1P8ADNTw5cR6hzrhMNnU&#xA;tRl+ASEk9kAB/AVyR1WWW1o8GA3pXs9ImlbncVROpU/aP9MtwaKUjc9gwyagDaKdqqqoVRRQKADw&#xA;zbgACg4JNoa8mKgRjq27H2zD1mbhHCOZbMUbNoPNU5K+GGWeZIIgDLIeKA9K9an2A3OZOk00s+QQ&#xA;j1a8uQQiSWa2drHaW0dvH9mMUqepJ3LGncnfPR8OGOOAhHkHn5zMjZVstYuxV2KuxV2KuxV2KuxV&#xA;p0R0ZHUMjAhlIqCDsQQcVfPesfn1Zab551GwS0Fz5cgl9COeJqzB02lkXkeLoXrxWo26Htmq1PZ0&#xA;Zbw2P2ObjzEDd6XoPmPRNfsVvdJu0uoDTlxPxIT+y6H4lPsRmlyYpQNSFOUJA8kyytLsVdiq2Rwi&#xA;Fz0GRnIRFlIFpYzFmLN9pjU5oskzKRJcyIoU1kEsj8tWHCE3rj45hSIeEda1/wBmRX5UzuOwtB4W&#xA;Pjl9c/sH43dNrc/FLhHIJ3m9cJ2KuxV2KuxV2KuxV2KuxV59+d/nkeVfJU628nDVdUDWlgAaMoYf&#xA;vZR/qIdj/MVwEsoiy+PMg3Jhomvaxod8t9pV3JaXK/txnZh/K6mqsPZhTIZMcZipC0gkcnuXkf8A&#xA;PnS9Q9Oy8yqun3hoq3q1+rOf8utTGfvX3GabUdnSjvDcfa5MMwPN6xHJHLGskTh43AZHUgqQdwQR&#xA;1zWEU3LsVQN5LyfgPsp19z/Zms1uazwhyMUeqHzAbkXpVh9evFiIPop8c5Bp8PZdv5jt8q+Gbfsf&#xA;QePls/RHn+gOLq8/BHbmWZgACg6Z3zo3Yq7FXYq7FXYq7FXYq7FXE03PTFXxt+c3no+bvOlxPA/L&#xA;S7CtppwBqrIjHlL/AM9G3/1aDtkCW6IoMEwMnYq7FWbflx58856NqdrpejctRhupVjj0mSrIzOf9&#xA;1nrGd+o27muY2fSQy8+fezjkMX1HcJfW8R+s25jloKshMkVSBXjJQdD/ADAH2zntfp56eJJFjvcr&#xA;DkjM0lmcyTbsXb7AAkkgBQKkk7AAdyclCBnIRG5KCQBZZjpGnixsxG1DM/xzMNxyPYeyjb8c9G0G&#xA;jGnxCA59fe6DPlOSVo3MxpdirsVdirsVdirsVdirsVeZ/n556Plnya9naScNU1rla29D8SQ0/fyD&#xA;5KwUe7A9sBLKAsvkfINzsVdirsVfS/8Azjv+V/6MsV83atFTUL1KaZC43it2G8u/7UvbwX/WyQDV&#xA;OXR7ZJGkiMkih0YUZWFQQexBwkAiiwBSDUfLZHKWxNe5t2Pt+wx/U33jOc1/YEZ+rD6T3dP2fd7n&#xA;YYNcRtPdZ5f0qQ3JuriNkWE0iR1ZSX/moabAdPf5ZDsTsuWORyZBRGwH3n9TLWakEcMSyPOnda7F&#xA;XYq7FXYq7FXYq7FXYq07pGjO7BEQFmZjQADckk4q+LvzZ87N5v8AOd5qEbltOgP1bTVNaehGTRqf&#xA;8WNV/pp2yBLfEUGG4EuxV2KvTfyO/LBvN2u/pDUYq+X9McNchuk8vVIB4ju/tt+1hAYylT63VQoC&#xA;qAFAoAOgGTaXYq7FXYq7FXYq7FXYq7FXYq7FXYq7FXlH/OQ/nr9A+Uv0Lavx1LXA0NVO6Wop6zf7&#xA;OvAfM+GAlnAbvlLINrsVdiqc+UfK2p+afMFpounLWe5b45CDxijG7yPT9lRv+GFBNPtXyr5Z0vyz&#xA;oNpoumpwtrVOPI05SOd3kcjqznc/0ybSTabYodirsVdirsVdirsVdirsVdirsVdirsVfE/5o+b5/&#xA;NXnXUdSd+VqkhttPXsttExCU/wBbdz7k5At8RQYngS7FVyIzsEQFnYgKoFSSegAxV9dfkl+WSeT/&#xA;AC/9bvox+n9TVXvCesMfVIB8ur/5XyGTAaZSt6RhYuxV2KuxV2KuxV2KuxV2KuxV2KuxV2KuxV8A&#xA;XdtNa3U1rOvCaB2ilU9mQlWH3jK3IUsVdir3P/nHb8r/AK/dp5x1aGtnauRpMLjaSdTQz0PVYzsv&#xA;+V/q5IBhOXR9I5JqdirsVdirsVdirsVdirsVdirsVdirsVdirsVfOP5//lPJDqyeZtEX1DrFzHbz&#xA;6agJla8mqQ8KgfF6nGrDrXfodokNkZPGJNB1yK5NrJp10lyDQwNDIJK+HEiuRbLekfl3/wA4/wDm&#xA;fXruK61+CTR9GUhpBMOFzKB+zHE3xJX+ZwPYHCAwM31NYWFnp9lBY2USwWltGsUEKbKqIKKB9GTa&#xA;lfFXYq7FXYq7FXYq7FXYq7FXYq7FXYq7FXYq7FWDefisvnL8vrOUfuH1a5uCxpx9S3025aMb9yzb&#xA;YqznFXYq7FXYq7FXYq7FXYq7FXYq7FXYq7FXYq7FXYq7FXYq8/8AzmaXT9F0fzTGrOvlbVrXUbxU&#xA;BLmzblbXPEDwjnLfRirPoZopokmhcSRSKHjkU1VlYVBBHUEYquxV2KuxV2KuxV2KuxV2KuxV2Kux&#xA;V2KuxV2KuxV2KuxVRvLO1vbSezu4lmtbmN4biFxVXjkUq6sPAg0xV5Lo3mC//Ka6Tyz5q9WbyMz8&#xA;PLfmahkFqjH4bO+I3XhXjHJSlPb7Kr1qzvbO+tYruynjurWZecNxC6yRup7q6kqR8sVVsVdirsVd&#xA;irsVdirsVdirsVdirsVdirsVdirsVdirsVUru0tLy2ltbyGO5tZ1KTQTKHjdT1VlYEEHwOKvM7z8&#xA;i7fTrqW98g+YL/ydcytzktLdvrOnM38zWkp41/2VB2GKocx/85MaQCsc3l3zJCOkkqzWlwaeKoYo&#xA;RX6cVaHnX/nIiJ2WX8urO4Wg4tDqttGPf+8cn8MVUbjzt/zkixb6t+XNlED9n1dTtZKH34zx1xVD&#xA;Saj/AM5W37FI9K8v6QtdpGdpGp13IlnHan2e+KqD+R/+cor/AOG+89abZRmtVs4RUCn831WJq1/y&#xA;sVU5fyb/ADznhBl/NGdZlDUSOOVFr2qyOhP/AAO2KoWX8vP+cotLJm0vz1a6gUpSG53ZgB04zQSp&#xA;X5tiqCk/O/8AOryLIq/mL5RF1poYK2qWY9MbmlTLGZrck9kPAnFXsnkL8yfKPnrTDfeX7wSmOn1q&#xA;zkHC4gLdBLHU0rTZhVT2JxVk+KuxV2KuxV2KuxV2KuxV2KuxV2KuxV2KuxV2KuxV2KrJoYZ4Xhnj&#xA;WWGRSkkbgMrKRQhgdiDir5l/N/8ALa9/KzWrb8zPy+Js7KGZV1PTFr6MfqNTpXe3lPwsn7JI47U4&#xA;qvoLyT5s0/zb5V03zFp+1vqEQk9MmpjkBKyRt7o6lfoxVO8VdirsVdirsVdirsVdirsVdirsVdir&#xA;sVdirsVdirsVSzzPoNr5g8u6lol0AYNRtpbZ69vUUqG+ancYq8L/AOcO9bujovmPy1c1VtLuo7iN&#xA;Gp8P1hWjkUf6rW9fpxV9D4q7FXYq7FXYq7FXYq7FXYq7FXYq7FXYq7FXYq7FXYq7FXzJ/wA46N9T&#xA;/PPz9phAjIN6fSG9PQ1AJsRtt6mKvpvFXYq7FXYq7FXYq//Z</xmpGImg:image>
               </rdf:li>
            </rdf:Alt>
         </xmp:Thumbnails>
         <xmpTPg:MaxPageSize rdf:parseType="Resource">
            <stDim:w>1024.000000</stDim:w>
            <stDim:h>768.000000</stDim:h>
            <stDim:unit>Pixels</stDim:unit>
         </xmpTPg:MaxPageSize>
         <xmpTPg:NPages>1</xmpTPg:NPages>
         <xmpTPg:HasVisibleTransparency>False</xmpTPg:HasVisibleTransparency>
         <xmpTPg:HasVisibleOverprint>False</xmpTPg:HasVisibleOverprint>
         <xmpTPg:PlateNames>
            <rdf:Seq>
               <rdf:li>Cyan</rdf:li>
               <rdf:li>Magenta</rdf:li>
               <rdf:li>Yellow</rdf:li>
               <rdf:li>Black</rdf:li>
            </rdf:Seq>
         </xmpTPg:PlateNames>
         <xmpTPg:SwatchGroups>
            <rdf:Seq>
               <rdf:li rdf:parseType="Resource">
                  <xmpG:groupName>Default Swatch Group</xmpG:groupName>
                  <xmpG:groupType>0</xmpG:groupType>
               </rdf:li>
            </rdf:Seq>
         </xmpTPg:SwatchGroups>
         <dc:format>image/svg+xml</dc:format>
      </rdf:Description>
   </rdf:RDF>
</x:xmpmeta>
                                                                                                    
                                                                                                    
                                                                                                    
                                                                                                    
                                                                                                    
                                                                                                    
                                                                                                    
                                                                                                    
                                                                                                    
                                                                                                    
                                                                                                    
                                                                                                    
                                                                                                    
                                                                                                    
                                                                                                    
                                                                                                    
                                                                                                    
                                                                                                    
                                                                                                    
                                                                                                    
                           
<?xpacket end="w"?>
	</metadata>
<g id="journal">
</g>
<g id="interview">
	<path fill="#463836" d="M585.421,301.998c-34.995-4.712-69.626-16.618-101.678-36.254c-36.772-22.538-66.047-52.685-86.995-87.147
		c-0.036-0.053-0.07-0.116-0.106-0.17c-3.001,11.606-4.187,23.468-3.633,35.178c0.012,0.332,0.023,0.674,0.054,1.008
		c1.023,18.645,6.417,36.892,15.774,53.159c-0.013,0.029-0.034,0.047-0.057,0.076c-0.149,0.218-0.336,0.403-0.475,0.632
		l-8.707,16.708l-22.544-13.813l-73.086,119.251l30.879,18.922L274.323,525.79c-10.71,17.48-7.022,39.244,8.155,48.954l2.411,1.36
		c15.377,7.911,35.482,1.212,45.87-15.725l76.298-106.581l11.309,5.886l12.445-20.744l4.095,2.458l-12.468,20.782l27.517,17.39
		l72.97-119.061l-28.955-18.186l-27.417,45.698l-4.095-2.458l27.382-45.641l-1.034-0.349l9.313-13.003l0.091-0.123
		c20.799,2.423,41.808-0.647,60.87-8.771c0.761-0.326,1.522-0.663,2.273-1c0.429-0.204,0.857-0.398,1.275-0.593
		c8.09-3.764,15.789-8.464,22.933-14.065C585.51,302.015,585.47,302.012,585.421,301.998z M379.435,401.965
		c-23.84-6.417-37.04-31.835-29.486-56.772c7.543-24.927,32.987-39.942,56.826-33.526l-0.029,0.108c2.231,1.375,3.086,4.63,2,7.829
		c-1.017,2.974-3.457,5.094-5.97,5.26l-0.065,0.175c-16.786-4.518-34.712,6.042-40.028,23.592
		c-5.316,17.55,3.931,35.444,20.717,39.962c15.099,4.063,31.023-4.099,37.952-18.571l-30.469-7.998l-7.664-7.782l9.968-2.951
		l28.33,8.126l0.004-0.05l14.478,3.578c-0.326,1.819,0.787,3.711,0.253,5.492C428.708,393.365,403.275,408.381,379.435,401.965z"/>
	<path fill="#F14742" d="M628.903,231.358c-36.845-3.639-73.438-15.456-107.148-36.116c-34.538-21.167-62.214-49.307-82.315-81.449
		c37.978-29.203,91.563-33.625,134.83-7.109C617.987,133.477,638.296,183.859,628.903,231.358z"/>
	<path fill="#F14742" d="M613.596,270.522c-5.326,8.691-11.582,16.45-18.586,23.233c-36.579-3.735-72.937-15.512-106.385-36.011
		c-38.036-23.311-67.737-55.073-88.155-91.342c2.6-6.946,5.927-13.809,9.962-20.393c6.133-10.008,13.465-18.763,21.754-26.208
		c20.745,32.95,49.217,61.733,84.657,83.454c34.538,21.167,72.066,33.402,109.862,37.262
		C623.854,250.828,619.476,260.929,613.596,270.522z"/>
	<path fill="#F14742" d="M585.405,301.99c-7.016,5.522-14.658,10.257-22.794,14.087c-0.418,0.195-0.846,0.389-1.275,0.593
		c-0.751,0.337-1.513,0.673-2.273,1c-17.467,7.548-37.013,11.003-57.309,9.266c-1.225-0.105-2.439-0.229-3.651-0.373
		c-38.698-4.487-71.11-27.194-89.337-58.723c-9.187-15.902-14.77-34.044-15.717-53.234c-0.032-0.334-0.043-0.676-0.054-1.008
		c-0.205-4.996-0.104-10.045,0.334-15.157c0.583-6.815,1.734-13.451,3.406-19.852c20.947,34.462,50.223,64.609,86.995,87.147
		C515.779,285.371,550.41,297.278,585.405,301.99z"/>
	<path fill="#141413" d="M515.644,713.64c-0.186-2.395-0.3-5.998-0.785-10.646c-0.357-4.627-1.243-10.344-2.866-16.826
		c-1.941-6.399-4.729-13.693-9.987-20.396c-5.371-6.552-12.762-12.253-21.475-15.99c-2.132-1.005-4.455-1.546-6.715-2.341
		c-2.289-0.698-4.568-1.625-6.981-1.922c-4.771-0.78-9.621-2.038-14.602-2.123c-4.981-0.316-10.015-0.837-15.143-0.493
		c-5.098,0.226-10.393,0.064-15.383,0.781c-5.106,0.557-10.252,1.11-15.419,1.671c-5.07,0.6-10.164,1.368-15.272,1.834
		c-10.215,0.912-20.468,1.68-30.53,1.391c-10.053-0.158-19.963-0.936-29.251-2.996c-9.295-1.98-18.033-5.066-25.366-9.578
		c-7.336-4.462-13.192-10.383-16.785-16.953c-3.658-6.516-5.453-13.333-6.044-19.436c-0.6-6.124-0.246-11.553,0.341-15.949
		c0.363-2.755,0.83-5.067,1.277-7.004l0.143-0.606l-2.342-1.321c-0.538,2.098-1.295,5.426-1.794,8.528
		c-0.701,4.557-1.192,10.175-0.681,16.633c0.483,6.435,2.226,13.74,6.033,20.861c3.723,7.164,9.956,13.719,17.704,18.648
		c7.743,4.988,16.884,8.411,26.507,10.659c9.636,2.34,19.817,3.342,30.112,3.722c10.326,0.493,20.772-0.069,31.19-0.783
		c5.211-0.377,10.387-1.048,15.559-1.549c5.097-0.447,10.183-0.895,15.219-1.327c5.123-0.635,9.974-0.32,14.863-0.454
		c4.878-0.235,9.663,0.375,14.368,0.758c4.763,0.167,9.178,1.468,13.607,2.259c2.251,0.313,4.262,1.218,6.322,1.886
		c2.012,0.765,4.136,1.277,5.993,2.209c7.621,3.483,13.689,8.448,18.084,13.973c4.272,5.675,6.535,11.951,8.128,17.607
		c1.311,5.793,2.05,10.985,2.296,15.392c0.368,4.377,0.407,7.903,0.539,10.354c0.102,2.448,0.16,3.757,0.16,3.757l9.201-0.557
		C515.872,717.313,515.791,716.031,515.644,713.64z"/>
	<polygon fill="#FEE191" points="377.038,271.368 303.952,390.619 418.349,459.677 489.823,339.916 	"/>
	<polygon fill="#FEE191" points="462.546,385.621 489.823,339.916 462.441,385.558 	"/>
	<polygon fill="#FEE191" points="489.823,339.916 488.928,339.373 488.789,339.567 	"/>
	<path fill="#F9BB32" d="M408.73,319.597c1.087-3.199,0.231-6.454-2-7.829l0.029-0.108c-23.84-6.417-49.283,8.598-56.826,33.526
		c-7.554,24.937,5.646,50.355,29.486,56.772c23.84,6.416,49.273-8.599,56.816-33.527c0.534-1.781-0.579-3.673-0.253-5.492
		l-14.478-3.578l-0.004,0.05l-28.33-8.126l-9.968,2.951l7.664,7.782l30.469,7.998c-6.929,14.472-22.854,22.634-37.952,18.571
		c-16.786-4.518-26.034-22.412-20.717-39.962c5.316-17.551,23.242-28.11,40.028-23.592l0.065-0.175
		C405.273,324.69,407.713,322.571,408.73,319.597z"/>
	<polygon fill="#FEE191" points="399.582,285.181 399.626,285.097 377.038,271.368 	"/>
	<polygon fill="#FFD24D" points="489.823,339.916 522.923,360.511 449.954,479.571 418.349,459.677 	"/>
</g>
<g id="logo">
</g>
<g id="g_tv">
</g>
<g id="survey">
</g>
<g id="magzine">
</g>
<g id="journal_c">
</g>
</svg>
