<?xml version="1.0" encoding="utf-8"?>
<!-- Generator: Adobe Illustrator 17.0.0, SVG Export Plug-In . SVG Version: 6.00 Build 0)  -->
<!DOCTYPE svg PUBLIC "-//W3C//DTD SVG 1.1//EN" "http://www.w3.org/Graphics/SVG/1.1/DTD/svg11.dtd">
<svg version="1.1" xmlns="http://www.w3.org/2000/svg" xmlns:xlink="http://www.w3.org/1999/xlink" x="0px" y="0px" width="1024px"
	 height="768px" viewBox="0 0 1024 768" enable-background="new 0 0 1024 768" xml:space="preserve">
<g id="journal">
</g>
<g id="interview">
</g>
<g id="logo">
</g>
<g id="g_tv">
</g>
<g id="survey">
</g>
<g id="magzine">
</g>
<g id="journal_c">
	<path fill="#F4F4F4" d="M332.099,147.052c0,0,227.989-98.995,332.983,31.498l-19.499,472.476c0,0-113.994,86.996-226.489,0
		l4.5-112.301c0,0-46.498-11.174-58.497,20.565L332.099,147.052z"/>
	<path fill="#D8D7D6" d="M315.013,138.729l41.912,429.302c0,0,18.213-15.857,47.249-18.084l3.977,104.526
		c0,0,124.716,111.91,246.958,8.295l22.924-497.263C678.031,165.506,569.974,22.89,315.013,138.729z M631.678,643.414
		c0,0-73.491,73.927-193.55-5.53l-16.59-419.988c0,0,135.63,59.375,223.528,14.553L631.678,643.414z M513.681,217.296
		c-27.661-4.535-56.862-13.063-85.049-26.687c0,0,23.466-24.78,85.46-15.919L513.681,217.296z M653.22,190.598
		c-5.084,20.014-51.639,34.166-110.603,30.082l5.529-63.614c0,0-85.569-39.001-158.332,15.426l13.898,351.991
		c-11.351-1.528-21.793-0.728-31.325,7.858l-28.268-376.149c0,0,169.392-67.524,290.979,6.767
		C639.532,165.669,656.233,178.737,653.22,190.598z"/>
	<path fill="#D3D3D3" d="M437.478,342.32l1.201,19.319c0,0,103.995,46.983,192.504,15.267l0.715-21.957
		C631.898,354.949,566.543,395.552,437.478,342.32z"/>
	<path fill="#D3D3D3" d="M437.478,391.217l1.201,19.319c0,0,103.995,46.983,192.504,15.267l0.715-21.957
		C631.898,403.846,566.543,444.448,437.478,391.217z"/>
	<path fill="#D3D3D3" d="M437.478,440.114l1.201,19.319c0,0,103.995,46.983,192.504,15.267l0.715-21.957
		C631.898,452.743,566.543,493.345,437.478,440.114z"/>
	<path fill="#D3D3D3" d="M444.168,488.833l1.118,17.99c0,0,96.838,43.75,179.255,14.216l0.666-20.446
		C625.208,500.593,564.35,538.401,444.168,488.833z"/>
	<path d="M631.514,272.298"/>
	<path fill="#FF7058" d="M529.776,560.086l-2.172,66.675c31.726,3.882,67.891,3.286,101.795-8.863l0.753-70.854
		C630.152,547.044,596.489,567.953,529.776,560.086z"/>
	<path fill="#84DBFF" d="M528.081,269.765c-25.534-3.335-55.74-10.859-90.604-25.238l1.201,68.216c0,0,37.583,16.978,86.787,23.63
		L528.081,269.765z"/>
	<path fill="#D3D3D3" d="M524.476,562.526c-23.789-3.452-51.626-10.652-83.506-23.8l1.158,18.625c0,0,35.216,15.908,81.667,22.505
		L524.476,562.526z"/>
	<path fill="#D3D3D3" d="M534.92,274.867l-0.565,17.332c31.112,4.041,66.876,3.722,100.346-8.271l0.69-21.168
		C635.391,262.76,601.689,283.686,534.92,274.867z"/>
	<path fill="#D3D3D3" d="M522.57,611.07c-22.795-3.492-49.317-10.498-79.551-22.967l1.133,18.218c0,0,33.376,15.072,77.753,21.699
		L522.57,611.07z"/>
	<path fill="#D3D3D3" d="M535.083,323.478l-0.552,16.955c30.833,4.191,66.522,4.098,99.884-7.857l0.675-20.706
		C635.089,311.87,601.541,332.701,535.083,323.478z"/>
</g>
</svg>
