<?xml version="1.0" encoding="utf-8"?>
<!-- Generator: Adobe Illustrator 17.0.0, SVG Export Plug-In . SVG Version: 6.00 Build 0)  -->
<!DOCTYPE svg PUBLIC "-//W3C//DTD SVG 1.1//EN" "http://www.w3.org/Graphics/SVG/1.1/DTD/svg11.dtd">
<svg version="1.1" xmlns="http://www.w3.org/2000/svg" xmlns:xlink="http://www.w3.org/1999/xlink" x="0px" y="0px" width="1024px"
	 height="768px" viewBox="0 0 1024 768" enable-background="new 0 0 1024 768" xml:space="preserve">
<g id="journal">
	<g>
		<path d="M315.013,145.729l41.912,429.302c0,0,18.213-15.857,47.249-18.084l3.977,104.526c0,0,124.716,111.91,246.958,8.295
			l22.924-497.263C678.031,172.506,569.974,29.89,315.013,145.729z M631.678,650.414c0,0-73.491,73.927-193.55-5.53l-16.59-419.988
			c0,0,135.63,59.375,223.528,14.553L631.678,650.414z M513.681,224.296c-27.661-4.535-56.862-13.063-85.049-26.687
			c0,0,23.466-24.78,85.46-15.919L513.681,224.296z M653.22,197.598c-5.084,20.014-51.639,34.166-110.603,30.082l5.529-63.614
			c0,0-85.569-39.001-158.332,15.426l13.898,351.991c-11.351-1.528-21.793-0.728-31.325,7.858l-28.268-376.149
			c0,0,169.392-67.524,290.979,6.767C639.532,172.669,656.233,185.737,653.22,197.598z"/>
		<path d="M437.478,349.32l1.201,19.319c0,0,103.995,46.983,192.504,15.267l0.715-21.957
			C631.898,361.949,566.543,402.552,437.478,349.32z"/>
		<path d="M437.478,398.217l1.201,19.319c0,0,103.995,46.983,192.504,15.267l0.715-21.957
			C631.898,410.846,566.543,451.448,437.478,398.217z"/>
		<path d="M437.478,447.114l1.201,19.319c0,0,103.995,46.983,192.504,15.267l0.715-21.957
			C631.898,459.743,566.543,500.345,437.478,447.114z"/>
		<path d="M444.168,495.833l1.118,17.99c0,0,96.838,43.75,179.255,14.216l0.666-20.446
			C625.208,507.593,564.35,545.401,444.168,495.833z"/>
		<path d="M631.514,279.298"/>
		<path d="M529.776,567.086l-2.172,66.675c31.726,3.882,67.891,3.286,101.795-8.863l0.753-70.854
			C630.152,554.044,596.489,574.953,529.776,567.086z"/>
		<path d="M528.081,276.765c-25.534-3.335-55.74-10.859-90.604-25.238l1.201,68.216c0,0,37.583,16.978,86.787,23.63L528.081,276.765
			z"/>
		<path d="M524.476,569.526c-23.789-3.452-51.626-10.652-83.506-23.8l1.158,18.625c0,0,35.216,15.908,81.667,22.505L524.476,569.526
			z"/>
		<path d="M534.92,281.867l-0.565,17.332c31.112,4.041,66.876,3.722,100.346-8.271l0.69-21.168
			C635.391,269.76,601.689,290.686,534.92,281.867z"/>
		<path d="M522.57,618.07c-22.795-3.492-49.317-10.498-79.551-22.967l1.133,18.218c0,0,33.376,15.072,77.753,21.699L522.57,618.07z"
			/>
		<path d="M535.083,330.478l-0.552,16.955c30.833,4.191,66.522,4.098,99.884-7.857l0.675-20.706
			C635.089,318.87,601.541,339.701,535.083,330.478z"/>
	</g>
</g>
<g id="interview">
</g>
<g id="logo">
</g>
<g id="g_tv">
</g>
<g id="survey">
</g>
<g id="magzine">
</g>
<g id="journal_c">
</g>
</svg>
