<?xml version="1.0" encoding="utf-8"?>
<!-- Generator: Adobe Illustrator 17.0.0, SVG Export Plug-In . SVG Version: 6.00 Build 0)  -->
<!DOCTYPE svg PUBLIC "-//W3C//DTD SVG 1.1//EN" "http://www.w3.org/Graphics/SVG/1.1/DTD/svg11.dtd">
<svg version="1.1" xmlns="http://www.w3.org/2000/svg" xmlns:xlink="http://www.w3.org/1999/xlink" x="0px" y="0px" width="1024px"
	 height="768px" viewBox="0 0 1024 768" enable-background="new 0 0 1024 768" xml:space="preserve">
<g id="journal">
</g>
<g id="interview">
</g>
<g id="logo">
</g>
<g id="g_tv">
</g>
<g id="survey">
</g>
<g id="magzine">
	<path d="M780,144H402.646c-2.259-21-21.702-38.884-44.715-38.884c-23.284,0-42.518,16.945-44.741,39.203
		c-0.123,1.231-0.175,6.681-0.195,9.681H313v523.465v6.051C313,707.348,332.371,727,356.203,727H687v-39h93V144z M403,164h358v503
		h-73.735H403V164z M332,156.236c0-1.729,0.056-8.858,0.126-10.297c1.309-12.434,12.379-21.686,25.805-21.686
		c13.468,0,24.874,9.783,25.921,22.289c0.042,0.991,0.148,5.851,0.148,7.1v479.364c-8-5.2-16.346-8.269-26-8.269s-19,3.069-26,8.269
		V156.236z M669,707H356.203c-5.194,0-10.008-1.291-13.955-4.087l-5.802-5.622c-2.796-3.947-4.446-8.581-4.446-13.775v-6.051v-7.78
		c0-14.299,11.701-25.932,26-25.932s26,11.633,26,25.932v7.78V688h9.372H669V707z"/>
	<rect x="444" y="284" width="112" height="112"/>
	<rect x="585" y="287" fill="none" stroke="#000000" stroke-width="8" stroke-miterlimit="10" width="106" height="106"/>
	<rect x="444" y="417" width="112" height="112"/>
	<rect x="582" y="417" width="112" height="112"/>
	<rect x="582" y="201" width="112" height="14"/>
	<rect x="443" y="569" width="149" height="15"/>
	<rect x="607" y="569" width="87" height="15"/>
	<rect x="443" y="599" width="70" height="15"/>
	<rect x="532" y="599" width="162" height="15"/>
	<rect x="536" y="231" width="158" height="15"/>
</g>
<g id="journal_c">
</g>
</svg>
