<?xml version="1.0" encoding="utf-8"?>
<!-- Generator: Adobe Illustrator 17.0.0, SVG Export Plug-In . SVG Version: 6.00 Build 0)  -->
<!DOCTYPE svg PUBLIC "-//W3C//DTD SVG 1.1//EN" "http://www.w3.org/Graphics/SVG/1.1/DTD/svg11.dtd">
<svg version="1.1" xmlns="http://www.w3.org/2000/svg" xmlns:xlink="http://www.w3.org/1999/xlink" x="0px" y="0px" width="1024px"
	 height="768px" viewBox="0 0 1024 768" enable-background="new 0 0 1024 768" xml:space="preserve">
<g id="journal">
</g>
<g id="interview">
</g>
<g id="logo">
</g>
<g id="g_tv">
</g>
<g id="survey">
	<g>
		<polygon fill-rule="evenodd" clip-rule="evenodd" points="356.896,433.204 339.54,415.847 330.348,425.04 357.487,452.18 
			357.993,451.674 358.109,451.79 415.791,394.109 405.891,384.21 		"/>
		<path fill-rule="evenodd" clip-rule="evenodd" d="M538,105H215h-10v625h657V105H538z M372.101,496c-43.078,0-78-34.922-78-78
			c0-43.078,34.922-78,78-78s78,34.922,78,78C450.101,461.078,415.179,496,372.101,496z M852,720H538V115h314V720z"/>
	</g>
	<path d="M706.101,340c-43.078,0-78,34.922-78,78c0,43.078,34.922,78,78,78s78-34.922,78-78
		C784.101,374.922,749.179,340,706.101,340z M739.791,439.891l-9.9,9.899L706,425.899l-23.891,23.891l-9.9-9.899L696.101,416
		l-23.891-23.891l9.9-9.9L706,406.1l23.891-23.891l9.9,9.9L715.899,416L739.791,439.891z"/>
</g>
<g id="magzine">
</g>
<g id="journal_c">
</g>
</svg>
