<?xml version="1.0" encoding="utf-8"?>
<!-- Generator: Adobe Illustrator 17.0.0, SVG Export Plug-In . SVG Version: 6.00 Build 0)  -->
<!DOCTYPE svg PUBLIC "-//W3C//DTD SVG 1.1//EN" "http://www.w3.org/Graphics/SVG/1.1/DTD/svg11.dtd">
<svg version="1.1" xmlns="http://www.w3.org/2000/svg" xmlns:xlink="http://www.w3.org/1999/xlink" x="0px" y="0px" width="1024px"
	 height="768px" viewBox="0 0 1024 768" enable-background="new 0 0 1024 768" xml:space="preserve">
<g id="journal">
</g>
<g id="interview">
</g>
<g id="logo">
</g>
<g id="g_tv">
</g>
<g id="survey">
	<rect x="521" y="98" fill="#E6EEFF" width="341" height="625"/>
	<circle fill-rule="evenodd" clip-rule="evenodd" fill="#00A200" cx="371.906" cy="411.195" r="78.805"/>
	<polygon fill-rule="evenodd" clip-rule="evenodd" fill="#FFFFFF" points="356.896,426.204 339.54,408.847 330.348,418.04 
		357.487,445.18 357.993,444.674 358.109,444.79 415.791,387.109 405.891,377.21 	"/>
	<path fill-rule="evenodd" clip-rule="evenodd" fill="#F9BC35" d="M538,98H215h-10v625h657V98H538z M372.101,489
		c-43.078,0-78-34.922-78-78c0-43.078,34.922-78,78-78s78,34.922,78,78C450.101,454.078,415.179,489,372.101,489z M852,713H538V108
		h314V713z"/>
	<path fill="#D00000" d="M706.101,333c-43.078,0-78,34.922-78,78c0,43.078,34.922,78,78,78s78-34.922,78-78
		C784.101,367.922,749.179,333,706.101,333z M739.791,432.891l-9.9,9.899L706,418.899l-23.891,23.891l-9.9-9.899L696.101,409
		l-23.891-23.891l9.9-9.9L706,399.1l23.891-23.891l9.9,9.9L715.899,409L739.791,432.891z"/>
</g>
<g id="magzine">
</g>
<g id="journal_c">
</g>
</svg>
