<?xml version="1.0" encoding="utf-8"?>
<!-- Generator: Adobe Illustrator 17.0.0, SVG Export Plug-In . SVG Version: 6.00 Build 0)  -->
<!DOCTYPE svg PUBLIC "-//W3C//DTD SVG 1.1//EN" "http://www.w3.org/Graphics/SVG/1.1/DTD/svg11.dtd">
<svg version="1.1" xmlns="http://www.w3.org/2000/svg" xmlns:xlink="http://www.w3.org/1999/xlink" x="0px" y="0px" width="1024px"
	 height="768px" viewBox="0 0 1024 768" enable-background="new 0 0 1024 768" xml:space="preserve">
<g id="journal">
</g>
<g id="interview">
</g>
<g id="logo">
</g>
<g id="g_tv">
	<path d="M763.416,248h-228.88c0.001,0,0.011-0.06,0.011-0.131c0-6.148-2.868-11.601-7.365-15.226l55.228-100.394
		c5.8-0.901,10.239-5.794,10.239-11.726c0-6.571-5.441-11.893-12.153-11.893s-12.153,5.329-12.153,11.9
		c0,2.091,0.555,4.054,1.522,5.761l-55.729,101.327L457.113,123.94c0.832-1.611,1.311-3.426,1.311-5.354
		c0-6.571-5.441-11.898-12.152-11.898c-6.712,0-12.153,5.327-12.153,11.898c0,6.093,4.68,11.108,10.711,11.807l56.403,102.551
		c-4.32,3.625-7.067,8.918-7.067,14.925c0,0.071,0.01,0.131,0.01,0.131H264.084C240.013,248,220,267.67,220,291.742v407.903
		C220,723.716,240.013,743,264.084,743h499.331C787.487,743,807,723.716,807,699.645V291.742C807,267.67,787.487,248,763.416,248z
		 M730.438,332.384c20.067,0,36.591,15.138,38.795,34.616H738v11h30.932c-3.122,18.443-19.163,32.492-38.494,32.492
		c-21.568,0-39.054-17.485-39.054-39.054C691.384,349.869,708.869,332.384,730.438,332.384z M659,681H269V525.605
		c-2-24.512-2-49.094,0-73.7V310h390V681z M730.438,426.565c21.569,0,39.054,17.485,39.054,39.054
		c0,19.68-14.558,35.952-33.491,38.653V476h-11v28.287c-18.993-2.647-33.616-18.946-33.616-38.669
		C691.384,444.049,708.869,426.565,730.438,426.565z M786,648.109c0,4.911-3.981,8.891-8.892,8.891h-73.217
		c-4.911,0-8.892-3.981-8.892-8.891v-1.217c0-4.911,3.981-8.891,8.892-8.891h73.217c4.911,0,8.892,3.981,8.892,8.891V648.109z
		 M786,615.109c0,4.911-3.981,8.891-8.892,8.891h-73.217c-4.911,0-8.892-3.981-8.892-8.891v-1.217c0-4.911,3.981-8.891,8.892-8.891
		h73.217c4.911,0,8.892,3.981,8.892,8.891V615.109z M786,582.109c0,4.911-3.981,8.891-8.892,8.891h-73.217
		c-4.911,0-8.892-3.981-8.892-8.891v-1.217c0-4.911,3.981-8.891,8.892-8.891h73.217c4.911,0,8.892,3.981,8.892,8.891V582.109z"/>
</g>
<g id="survey">
</g>
<g id="magzine">
</g>
<g id="journal_c">
</g>
</svg>
